G04 #@! TF.GenerationSoftware,KiCad,Pcbnew,(5.1.7)-1*
G04 #@! TF.CreationDate,2022-02-14T00:20:13+00:00*
G04 #@! TF.ProjectId,bp_fp_connector,62705f66-705f-4636-9f6e-6e6563746f72,rev?*
G04 #@! TF.SameCoordinates,Original*
G04 #@! TF.FileFunction,Soldermask,Top*
G04 #@! TF.FilePolarity,Negative*
%FSLAX46Y46*%
G04 Gerber Fmt 4.6, Leading zero omitted, Abs format (unit mm)*
G04 Created by KiCad (PCBNEW (5.1.7)-1) date 2022-02-14 00:20:13*
%MOMM*%
%LPD*%
G01*
G04 APERTURE LIST*
%ADD10C,1.550000*%
%ADD11C,2.850000*%
G04 APERTURE END LIST*
D10*
X27920000Y-22630000D03*
X27920000Y-25170000D03*
X27920000Y-27710000D03*
X27920000Y-30250000D03*
X27920000Y-32790000D03*
X27920000Y-35330000D03*
X27920000Y-37870000D03*
X27920000Y-40410000D03*
X27920000Y-42950000D03*
X27920000Y-45490000D03*
X27920000Y-48030000D03*
X27920000Y-50570000D03*
X27920000Y-53110000D03*
X27920000Y-55650000D03*
X27920000Y-58190000D03*
X27920000Y-60730000D03*
X27920000Y-63270000D03*
X27920000Y-65810000D03*
X27920000Y-68350000D03*
X27920000Y-70890000D03*
X27920000Y-73430000D03*
X27920000Y-75970000D03*
X27920000Y-78510000D03*
X27920000Y-81050000D03*
X27920000Y-83590000D03*
X27920000Y-86130000D03*
X27920000Y-88670000D03*
X27920000Y-91210000D03*
X27920000Y-93750000D03*
X27920000Y-96290000D03*
X27920000Y-98830000D03*
X27920000Y-101370000D03*
X30460000Y-22630000D03*
X30460000Y-25170000D03*
X30460000Y-27710000D03*
X30460000Y-30250000D03*
X30460000Y-32790000D03*
X30460000Y-35330000D03*
X30460000Y-37870000D03*
X30460000Y-40410000D03*
X30460000Y-42950000D03*
X30460000Y-45490000D03*
X30460000Y-48030000D03*
X30460000Y-50570000D03*
X30460000Y-53110000D03*
X30460000Y-55650000D03*
X30460000Y-58190000D03*
X30460000Y-60730000D03*
X30460000Y-63270000D03*
X30460000Y-65810000D03*
X30460000Y-68350000D03*
X30460000Y-70890000D03*
X30460000Y-73430000D03*
X30460000Y-75970000D03*
X30460000Y-78510000D03*
X30460000Y-81050000D03*
X30460000Y-83590000D03*
X30460000Y-86130000D03*
X30460000Y-88670000D03*
X30460000Y-91210000D03*
X30460000Y-93750000D03*
X30460000Y-96290000D03*
X30460000Y-98830000D03*
X30460000Y-101370000D03*
X33000000Y-22630000D03*
X33000000Y-25170000D03*
X33000000Y-27710000D03*
X33000000Y-30250000D03*
X33000000Y-32790000D03*
X33000000Y-35330000D03*
X33000000Y-37870000D03*
X33000000Y-40410000D03*
X33000000Y-42950000D03*
X33000000Y-45490000D03*
X33000000Y-48030000D03*
X33000000Y-50570000D03*
X33000000Y-53110000D03*
X33000000Y-55650000D03*
X33000000Y-58190000D03*
X33000000Y-60730000D03*
X33000000Y-63270000D03*
X33000000Y-65810000D03*
X33000000Y-68350000D03*
X33000000Y-70890000D03*
X33000000Y-73430000D03*
X33000000Y-75970000D03*
X33000000Y-78510000D03*
X33000000Y-81050000D03*
X33000000Y-83590000D03*
X33000000Y-86130000D03*
X33000000Y-88670000D03*
X33000000Y-91210000D03*
X33000000Y-93750000D03*
X33000000Y-96290000D03*
X33000000Y-98830000D03*
G36*
G01*
X32225000Y-101895450D02*
X32225000Y-100844550D01*
G75*
G02*
X32474550Y-100595000I249550J0D01*
G01*
X33525450Y-100595000D01*
G75*
G02*
X33775000Y-100844550I0J-249550D01*
G01*
X33775000Y-101895450D01*
G75*
G02*
X33525450Y-102145000I-249550J0D01*
G01*
X32474550Y-102145000D01*
G75*
G02*
X32225000Y-101895450I0J249550D01*
G01*
G37*
D11*
X35540000Y-17550000D03*
X35540000Y-106450000D03*
D10*
X22375000Y-22630000D03*
X22375000Y-25170000D03*
X22375000Y-27710000D03*
X22375000Y-30250000D03*
X22375000Y-32790000D03*
X22375000Y-35330000D03*
X22375000Y-37870000D03*
X22375000Y-40410000D03*
X22375000Y-42950000D03*
X22375000Y-45490000D03*
X22375000Y-48030000D03*
X22375000Y-50570000D03*
X22375000Y-53110000D03*
X22375000Y-55650000D03*
X22375000Y-58190000D03*
X22375000Y-60730000D03*
X22375000Y-63270000D03*
X22375000Y-65810000D03*
X22375000Y-68350000D03*
X22375000Y-70890000D03*
X22375000Y-73430000D03*
X22375000Y-75970000D03*
X22375000Y-78510000D03*
X22375000Y-81050000D03*
X22375000Y-83590000D03*
X22375000Y-86130000D03*
X22375000Y-88670000D03*
X22375000Y-91210000D03*
X22375000Y-93750000D03*
X22375000Y-96290000D03*
X22375000Y-98830000D03*
X22375000Y-101370000D03*
X19835000Y-22630000D03*
X19835000Y-25170000D03*
X19835000Y-27710000D03*
X19835000Y-30250000D03*
X19835000Y-32790000D03*
X19835000Y-35330000D03*
X19835000Y-37870000D03*
X19835000Y-40410000D03*
X19835000Y-42950000D03*
X19835000Y-45490000D03*
X19835000Y-48030000D03*
X19835000Y-50570000D03*
X19835000Y-53110000D03*
X19835000Y-55650000D03*
X19835000Y-58190000D03*
X19835000Y-60730000D03*
X19835000Y-63270000D03*
X19835000Y-65810000D03*
X19835000Y-68350000D03*
X19835000Y-70890000D03*
X19835000Y-73430000D03*
X19835000Y-75970000D03*
X19835000Y-78510000D03*
X19835000Y-81050000D03*
X19835000Y-83590000D03*
X19835000Y-86130000D03*
X19835000Y-88670000D03*
X19835000Y-91210000D03*
X19835000Y-93750000D03*
X19835000Y-96290000D03*
X19835000Y-98830000D03*
X19835000Y-101370000D03*
X17295000Y-22630000D03*
X17295000Y-25170000D03*
X17295000Y-27710000D03*
X17295000Y-30250000D03*
X17295000Y-32790000D03*
X17295000Y-35330000D03*
X17295000Y-37870000D03*
X17295000Y-40410000D03*
X17295000Y-42950000D03*
X17295000Y-45490000D03*
X17295000Y-48030000D03*
X17295000Y-50570000D03*
X17295000Y-53110000D03*
X17295000Y-55650000D03*
X17295000Y-58190000D03*
X17295000Y-60730000D03*
X17295000Y-63270000D03*
X17295000Y-65810000D03*
X17295000Y-68350000D03*
X17295000Y-70890000D03*
X17295000Y-73430000D03*
X17295000Y-75970000D03*
X17295000Y-78510000D03*
X17295000Y-81050000D03*
X17295000Y-83590000D03*
X17295000Y-86130000D03*
X17295000Y-88670000D03*
X17295000Y-91210000D03*
X17295000Y-93750000D03*
X17295000Y-96290000D03*
X17295000Y-98830000D03*
G36*
G01*
X18070000Y-100844550D02*
X18070000Y-101895450D01*
G75*
G02*
X17820450Y-102145000I-249550J0D01*
G01*
X16769550Y-102145000D01*
G75*
G02*
X16520000Y-101895450I0J249550D01*
G01*
X16520000Y-100844550D01*
G75*
G02*
X16769550Y-100595000I249550J0D01*
G01*
X17820450Y-100595000D01*
G75*
G02*
X18070000Y-100844550I0J-249550D01*
G01*
G37*
D11*
X14755000Y-17550000D03*
X14755000Y-106450000D03*
M02*
