M48
; DRILL file {KiCad (5.1.7)-1} date 02/14/22 00:20:41
; FORMAT={-:-/ absolute / metric / decimal}
; #@! TF.CreationDate,2022-02-14T00:20:41+00:00
; #@! TF.GenerationSoftware,Kicad,Pcbnew,(5.1.7)-1
FMAT,2
METRIC
T1C1.000
T2C2.850
%
G90
G05
T1
X17.295Y-22.63
X17.295Y-25.17
X17.295Y-27.71
X17.295Y-30.25
X17.295Y-32.79
X17.295Y-35.33
X17.295Y-37.87
X17.295Y-40.41
X17.295Y-42.95
X17.295Y-45.49
X17.295Y-48.03
X17.295Y-50.57
X17.295Y-53.11
X17.295Y-55.65
X17.295Y-58.19
X17.295Y-60.73
X17.295Y-63.27
X17.295Y-65.81
X17.295Y-68.35
X17.295Y-70.89
X17.295Y-73.43
X17.295Y-75.97
X17.295Y-78.51
X17.295Y-81.05
X17.295Y-83.59
X17.295Y-86.13
X17.295Y-88.67
X17.295Y-91.21
X17.295Y-93.75
X17.295Y-96.29
X17.295Y-98.83
X17.295Y-101.37
X19.835Y-22.63
X19.835Y-25.17
X19.835Y-27.71
X19.835Y-30.25
X19.835Y-32.79
X19.835Y-35.33
X19.835Y-37.87
X19.835Y-40.41
X19.835Y-42.95
X19.835Y-45.49
X19.835Y-48.03
X19.835Y-50.57
X19.835Y-53.11
X19.835Y-55.65
X19.835Y-58.19
X19.835Y-60.73
X19.835Y-63.27
X19.835Y-65.81
X19.835Y-68.35
X19.835Y-70.89
X19.835Y-73.43
X19.835Y-75.97
X19.835Y-78.51
X19.835Y-81.05
X19.835Y-83.59
X19.835Y-86.13
X19.835Y-88.67
X19.835Y-91.21
X19.835Y-93.75
X19.835Y-96.29
X19.835Y-98.83
X19.835Y-101.37
X22.375Y-22.63
X22.375Y-25.17
X22.375Y-27.71
X22.375Y-30.25
X22.375Y-32.79
X22.375Y-35.33
X22.375Y-37.87
X22.375Y-40.41
X22.375Y-42.95
X22.375Y-45.49
X22.375Y-48.03
X22.375Y-50.57
X22.375Y-53.11
X22.375Y-55.65
X22.375Y-58.19
X22.375Y-60.73
X22.375Y-63.27
X22.375Y-65.81
X22.375Y-68.35
X22.375Y-70.89
X22.375Y-73.43
X22.375Y-75.97
X22.375Y-78.51
X22.375Y-81.05
X22.375Y-83.59
X22.375Y-86.13
X22.375Y-88.67
X22.375Y-91.21
X22.375Y-93.75
X22.375Y-96.29
X22.375Y-98.83
X22.375Y-101.37
X27.92Y-22.63
X27.92Y-25.17
X27.92Y-27.71
X27.92Y-30.25
X27.92Y-32.79
X27.92Y-35.33
X27.92Y-37.87
X27.92Y-40.41
X27.92Y-42.95
X27.92Y-45.49
X27.92Y-48.03
X27.92Y-50.57
X27.92Y-53.11
X27.92Y-55.65
X27.92Y-58.19
X27.92Y-60.73
X27.92Y-63.27
X27.92Y-65.81
X27.92Y-68.35
X27.92Y-70.89
X27.92Y-73.43
X27.92Y-75.97
X27.92Y-78.51
X27.92Y-81.05
X27.92Y-83.59
X27.92Y-86.13
X27.92Y-88.67
X27.92Y-91.21
X27.92Y-93.75
X27.92Y-96.29
X27.92Y-98.83
X27.92Y-101.37
X30.46Y-22.63
X30.46Y-25.17
X30.46Y-27.71
X30.46Y-30.25
X30.46Y-32.79
X30.46Y-35.33
X30.46Y-37.87
X30.46Y-40.41
X30.46Y-42.95
X30.46Y-45.49
X30.46Y-48.03
X30.46Y-50.57
X30.46Y-53.11
X30.46Y-55.65
X30.46Y-58.19
X30.46Y-60.73
X30.46Y-63.27
X30.46Y-65.81
X30.46Y-68.35
X30.46Y-70.89
X30.46Y-73.43
X30.46Y-75.97
X30.46Y-78.51
X30.46Y-81.05
X30.46Y-83.59
X30.46Y-86.13
X30.46Y-88.67
X30.46Y-91.21
X30.46Y-93.75
X30.46Y-96.29
X30.46Y-98.83
X30.46Y-101.37
X33.0Y-22.63
X33.0Y-25.17
X33.0Y-27.71
X33.0Y-30.25
X33.0Y-32.79
X33.0Y-35.33
X33.0Y-37.87
X33.0Y-40.41
X33.0Y-42.95
X33.0Y-45.49
X33.0Y-48.03
X33.0Y-50.57
X33.0Y-53.11
X33.0Y-55.65
X33.0Y-58.19
X33.0Y-60.73
X33.0Y-63.27
X33.0Y-65.81
X33.0Y-68.35
X33.0Y-70.89
X33.0Y-73.43
X33.0Y-75.97
X33.0Y-78.51
X33.0Y-81.05
X33.0Y-83.59
X33.0Y-86.13
X33.0Y-88.67
X33.0Y-91.21
X33.0Y-93.75
X33.0Y-96.29
X33.0Y-98.83
X33.0Y-101.37
T2
X14.755Y-17.55
X14.755Y-106.45
X35.54Y-17.55
X35.54Y-106.45
T0
M30
