%FSLAX45Y45*%
G04 Gerber Fmt 4.5, Leading zero omitted, Abs format (unit mm)*
G04 Created by KiCad (PCBNEW (5.1.7)-1) date 2022-02-14 00:20:51*
%MOMM*%
%LPD*%
G01*
G04 APERTURE LIST*
%TA.AperFunction,Profile*%
%ADD10C,0.100000*%
%TD*%
%ADD11C,0.200000*%
%ADD12C,0.300000*%
G04 APERTURE END LIST*
D10*
X3830000Y-1200000D02*
X3830000Y-11200000D01*
X1200000Y-1200000D02*
X3830000Y-1200000D01*
X1200000Y-11200000D02*
X1200000Y-1200000D01*
X3830000Y-11200000D02*
X1200000Y-11200000D01*
D11*
X1679500Y-2213000D02*
X1779500Y-2313000D01*
X1779500Y-2213000D02*
X1679500Y-2313000D01*
X1679500Y-2467000D02*
X1779500Y-2567000D01*
X1779500Y-2467000D02*
X1679500Y-2567000D01*
X1679500Y-2721000D02*
X1779500Y-2821000D01*
X1779500Y-2721000D02*
X1679500Y-2821000D01*
X1679500Y-2975000D02*
X1779500Y-3075000D01*
X1779500Y-2975000D02*
X1679500Y-3075000D01*
X1679500Y-3229000D02*
X1779500Y-3329000D01*
X1779500Y-3229000D02*
X1679500Y-3329000D01*
X1679500Y-3483000D02*
X1779500Y-3583000D01*
X1779500Y-3483000D02*
X1679500Y-3583000D01*
X1679500Y-3737000D02*
X1779500Y-3837000D01*
X1779500Y-3737000D02*
X1679500Y-3837000D01*
X1679500Y-3991000D02*
X1779500Y-4091000D01*
X1779500Y-3991000D02*
X1679500Y-4091000D01*
X1679500Y-4245000D02*
X1779500Y-4345000D01*
X1779500Y-4245000D02*
X1679500Y-4345000D01*
X1679500Y-4499000D02*
X1779500Y-4599000D01*
X1779500Y-4499000D02*
X1679500Y-4599000D01*
X1679500Y-4753000D02*
X1779500Y-4853000D01*
X1779500Y-4753000D02*
X1679500Y-4853000D01*
X1679500Y-5007000D02*
X1779500Y-5107000D01*
X1779500Y-5007000D02*
X1679500Y-5107000D01*
X1679500Y-5261000D02*
X1779500Y-5361000D01*
X1779500Y-5261000D02*
X1679500Y-5361000D01*
X1679500Y-5515000D02*
X1779500Y-5615000D01*
X1779500Y-5515000D02*
X1679500Y-5615000D01*
X1679500Y-5769000D02*
X1779500Y-5869000D01*
X1779500Y-5769000D02*
X1679500Y-5869000D01*
X1679500Y-6023000D02*
X1779500Y-6123000D01*
X1779500Y-6023000D02*
X1679500Y-6123000D01*
X1679500Y-6277000D02*
X1779500Y-6377000D01*
X1779500Y-6277000D02*
X1679500Y-6377000D01*
X1679500Y-6531000D02*
X1779500Y-6631000D01*
X1779500Y-6531000D02*
X1679500Y-6631000D01*
X1679500Y-6785000D02*
X1779500Y-6885000D01*
X1779500Y-6785000D02*
X1679500Y-6885000D01*
X1679500Y-7039000D02*
X1779500Y-7139000D01*
X1779500Y-7039000D02*
X1679500Y-7139000D01*
X1679500Y-7293000D02*
X1779500Y-7393000D01*
X1779500Y-7293000D02*
X1679500Y-7393000D01*
X1679500Y-7547000D02*
X1779500Y-7647000D01*
X1779500Y-7547000D02*
X1679500Y-7647000D01*
X1679500Y-7801000D02*
X1779500Y-7901000D01*
X1779500Y-7801000D02*
X1679500Y-7901000D01*
X1679500Y-8055000D02*
X1779500Y-8155000D01*
X1779500Y-8055000D02*
X1679500Y-8155000D01*
X1679500Y-8309000D02*
X1779500Y-8409000D01*
X1779500Y-8309000D02*
X1679500Y-8409000D01*
X1679500Y-8563000D02*
X1779500Y-8663000D01*
X1779500Y-8563000D02*
X1679500Y-8663000D01*
X1679500Y-8817000D02*
X1779500Y-8917000D01*
X1779500Y-8817000D02*
X1679500Y-8917000D01*
X1679500Y-9071000D02*
X1779500Y-9171000D01*
X1779500Y-9071000D02*
X1679500Y-9171000D01*
X1679500Y-9325000D02*
X1779500Y-9425000D01*
X1779500Y-9325000D02*
X1679500Y-9425000D01*
X1679500Y-9579000D02*
X1779500Y-9679000D01*
X1779500Y-9579000D02*
X1679500Y-9679000D01*
X1679500Y-9833000D02*
X1779500Y-9933000D01*
X1779500Y-9833000D02*
X1679500Y-9933000D01*
X1679500Y-10087000D02*
X1779500Y-10187000D01*
X1779500Y-10087000D02*
X1679500Y-10187000D01*
X1933500Y-2213000D02*
X2033500Y-2313000D01*
X2033500Y-2213000D02*
X1933500Y-2313000D01*
X1933500Y-2467000D02*
X2033500Y-2567000D01*
X2033500Y-2467000D02*
X1933500Y-2567000D01*
X1933500Y-2721000D02*
X2033500Y-2821000D01*
X2033500Y-2721000D02*
X1933500Y-2821000D01*
X1933500Y-2975000D02*
X2033500Y-3075000D01*
X2033500Y-2975000D02*
X1933500Y-3075000D01*
X1933500Y-3229000D02*
X2033500Y-3329000D01*
X2033500Y-3229000D02*
X1933500Y-3329000D01*
X1933500Y-3483000D02*
X2033500Y-3583000D01*
X2033500Y-3483000D02*
X1933500Y-3583000D01*
X1933500Y-3737000D02*
X2033500Y-3837000D01*
X2033500Y-3737000D02*
X1933500Y-3837000D01*
X1933500Y-3991000D02*
X2033500Y-4091000D01*
X2033500Y-3991000D02*
X1933500Y-4091000D01*
X1933500Y-4245000D02*
X2033500Y-4345000D01*
X2033500Y-4245000D02*
X1933500Y-4345000D01*
X1933500Y-4499000D02*
X2033500Y-4599000D01*
X2033500Y-4499000D02*
X1933500Y-4599000D01*
X1933500Y-4753000D02*
X2033500Y-4853000D01*
X2033500Y-4753000D02*
X1933500Y-4853000D01*
X1933500Y-5007000D02*
X2033500Y-5107000D01*
X2033500Y-5007000D02*
X1933500Y-5107000D01*
X1933500Y-5261000D02*
X2033500Y-5361000D01*
X2033500Y-5261000D02*
X1933500Y-5361000D01*
X1933500Y-5515000D02*
X2033500Y-5615000D01*
X2033500Y-5515000D02*
X1933500Y-5615000D01*
X1933500Y-5769000D02*
X2033500Y-5869000D01*
X2033500Y-5769000D02*
X1933500Y-5869000D01*
X1933500Y-6023000D02*
X2033500Y-6123000D01*
X2033500Y-6023000D02*
X1933500Y-6123000D01*
X1933500Y-6277000D02*
X2033500Y-6377000D01*
X2033500Y-6277000D02*
X1933500Y-6377000D01*
X1933500Y-6531000D02*
X2033500Y-6631000D01*
X2033500Y-6531000D02*
X1933500Y-6631000D01*
X1933500Y-6785000D02*
X2033500Y-6885000D01*
X2033500Y-6785000D02*
X1933500Y-6885000D01*
X1933500Y-7039000D02*
X2033500Y-7139000D01*
X2033500Y-7039000D02*
X1933500Y-7139000D01*
X1933500Y-7293000D02*
X2033500Y-7393000D01*
X2033500Y-7293000D02*
X1933500Y-7393000D01*
X1933500Y-7547000D02*
X2033500Y-7647000D01*
X2033500Y-7547000D02*
X1933500Y-7647000D01*
X1933500Y-7801000D02*
X2033500Y-7901000D01*
X2033500Y-7801000D02*
X1933500Y-7901000D01*
X1933500Y-8055000D02*
X2033500Y-8155000D01*
X2033500Y-8055000D02*
X1933500Y-8155000D01*
X1933500Y-8309000D02*
X2033500Y-8409000D01*
X2033500Y-8309000D02*
X1933500Y-8409000D01*
X1933500Y-8563000D02*
X2033500Y-8663000D01*
X2033500Y-8563000D02*
X1933500Y-8663000D01*
X1933500Y-8817000D02*
X2033500Y-8917000D01*
X2033500Y-8817000D02*
X1933500Y-8917000D01*
X1933500Y-9071000D02*
X2033500Y-9171000D01*
X2033500Y-9071000D02*
X1933500Y-9171000D01*
X1933500Y-9325000D02*
X2033500Y-9425000D01*
X2033500Y-9325000D02*
X1933500Y-9425000D01*
X1933500Y-9579000D02*
X2033500Y-9679000D01*
X2033500Y-9579000D02*
X1933500Y-9679000D01*
X1933500Y-9833000D02*
X2033500Y-9933000D01*
X2033500Y-9833000D02*
X1933500Y-9933000D01*
X1933500Y-10087000D02*
X2033500Y-10187000D01*
X2033500Y-10087000D02*
X1933500Y-10187000D01*
X2187500Y-2213000D02*
X2287500Y-2313000D01*
X2287500Y-2213000D02*
X2187500Y-2313000D01*
X2187500Y-2467000D02*
X2287500Y-2567000D01*
X2287500Y-2467000D02*
X2187500Y-2567000D01*
X2187500Y-2721000D02*
X2287500Y-2821000D01*
X2287500Y-2721000D02*
X2187500Y-2821000D01*
X2187500Y-2975000D02*
X2287500Y-3075000D01*
X2287500Y-2975000D02*
X2187500Y-3075000D01*
X2187500Y-3229000D02*
X2287500Y-3329000D01*
X2287500Y-3229000D02*
X2187500Y-3329000D01*
X2187500Y-3483000D02*
X2287500Y-3583000D01*
X2287500Y-3483000D02*
X2187500Y-3583000D01*
X2187500Y-3737000D02*
X2287500Y-3837000D01*
X2287500Y-3737000D02*
X2187500Y-3837000D01*
X2187500Y-3991000D02*
X2287500Y-4091000D01*
X2287500Y-3991000D02*
X2187500Y-4091000D01*
X2187500Y-4245000D02*
X2287500Y-4345000D01*
X2287500Y-4245000D02*
X2187500Y-4345000D01*
X2187500Y-4499000D02*
X2287500Y-4599000D01*
X2287500Y-4499000D02*
X2187500Y-4599000D01*
X2187500Y-4753000D02*
X2287500Y-4853000D01*
X2287500Y-4753000D02*
X2187500Y-4853000D01*
X2187500Y-5007000D02*
X2287500Y-5107000D01*
X2287500Y-5007000D02*
X2187500Y-5107000D01*
X2187500Y-5261000D02*
X2287500Y-5361000D01*
X2287500Y-5261000D02*
X2187500Y-5361000D01*
X2187500Y-5515000D02*
X2287500Y-5615000D01*
X2287500Y-5515000D02*
X2187500Y-5615000D01*
X2187500Y-5769000D02*
X2287500Y-5869000D01*
X2287500Y-5769000D02*
X2187500Y-5869000D01*
X2187500Y-6023000D02*
X2287500Y-6123000D01*
X2287500Y-6023000D02*
X2187500Y-6123000D01*
X2187500Y-6277000D02*
X2287500Y-6377000D01*
X2287500Y-6277000D02*
X2187500Y-6377000D01*
X2187500Y-6531000D02*
X2287500Y-6631000D01*
X2287500Y-6531000D02*
X2187500Y-6631000D01*
X2187500Y-6785000D02*
X2287500Y-6885000D01*
X2287500Y-6785000D02*
X2187500Y-6885000D01*
X2187500Y-7039000D02*
X2287500Y-7139000D01*
X2287500Y-7039000D02*
X2187500Y-7139000D01*
X2187500Y-7293000D02*
X2287500Y-7393000D01*
X2287500Y-7293000D02*
X2187500Y-7393000D01*
X2187500Y-7547000D02*
X2287500Y-7647000D01*
X2287500Y-7547000D02*
X2187500Y-7647000D01*
X2187500Y-7801000D02*
X2287500Y-7901000D01*
X2287500Y-7801000D02*
X2187500Y-7901000D01*
X2187500Y-8055000D02*
X2287500Y-8155000D01*
X2287500Y-8055000D02*
X2187500Y-8155000D01*
X2187500Y-8309000D02*
X2287500Y-8409000D01*
X2287500Y-8309000D02*
X2187500Y-8409000D01*
X2187500Y-8563000D02*
X2287500Y-8663000D01*
X2287500Y-8563000D02*
X2187500Y-8663000D01*
X2187500Y-8817000D02*
X2287500Y-8917000D01*
X2287500Y-8817000D02*
X2187500Y-8917000D01*
X2187500Y-9071000D02*
X2287500Y-9171000D01*
X2287500Y-9071000D02*
X2187500Y-9171000D01*
X2187500Y-9325000D02*
X2287500Y-9425000D01*
X2287500Y-9325000D02*
X2187500Y-9425000D01*
X2187500Y-9579000D02*
X2287500Y-9679000D01*
X2287500Y-9579000D02*
X2187500Y-9679000D01*
X2187500Y-9833000D02*
X2287500Y-9933000D01*
X2287500Y-9833000D02*
X2187500Y-9933000D01*
X2187500Y-10087000D02*
X2287500Y-10187000D01*
X2287500Y-10087000D02*
X2187500Y-10187000D01*
X2742000Y-2213000D02*
X2842000Y-2313000D01*
X2842000Y-2213000D02*
X2742000Y-2313000D01*
X2742000Y-2467000D02*
X2842000Y-2567000D01*
X2842000Y-2467000D02*
X2742000Y-2567000D01*
X2742000Y-2721000D02*
X2842000Y-2821000D01*
X2842000Y-2721000D02*
X2742000Y-2821000D01*
X2742000Y-2975000D02*
X2842000Y-3075000D01*
X2842000Y-2975000D02*
X2742000Y-3075000D01*
X2742000Y-3229000D02*
X2842000Y-3329000D01*
X2842000Y-3229000D02*
X2742000Y-3329000D01*
X2742000Y-3483000D02*
X2842000Y-3583000D01*
X2842000Y-3483000D02*
X2742000Y-3583000D01*
X2742000Y-3737000D02*
X2842000Y-3837000D01*
X2842000Y-3737000D02*
X2742000Y-3837000D01*
X2742000Y-3991000D02*
X2842000Y-4091000D01*
X2842000Y-3991000D02*
X2742000Y-4091000D01*
X2742000Y-4245000D02*
X2842000Y-4345000D01*
X2842000Y-4245000D02*
X2742000Y-4345000D01*
X2742000Y-4499000D02*
X2842000Y-4599000D01*
X2842000Y-4499000D02*
X2742000Y-4599000D01*
X2742000Y-4753000D02*
X2842000Y-4853000D01*
X2842000Y-4753000D02*
X2742000Y-4853000D01*
X2742000Y-5007000D02*
X2842000Y-5107000D01*
X2842000Y-5007000D02*
X2742000Y-5107000D01*
X2742000Y-5261000D02*
X2842000Y-5361000D01*
X2842000Y-5261000D02*
X2742000Y-5361000D01*
X2742000Y-5515000D02*
X2842000Y-5615000D01*
X2842000Y-5515000D02*
X2742000Y-5615000D01*
X2742000Y-5769000D02*
X2842000Y-5869000D01*
X2842000Y-5769000D02*
X2742000Y-5869000D01*
X2742000Y-6023000D02*
X2842000Y-6123000D01*
X2842000Y-6023000D02*
X2742000Y-6123000D01*
X2742000Y-6277000D02*
X2842000Y-6377000D01*
X2842000Y-6277000D02*
X2742000Y-6377000D01*
X2742000Y-6531000D02*
X2842000Y-6631000D01*
X2842000Y-6531000D02*
X2742000Y-6631000D01*
X2742000Y-6785000D02*
X2842000Y-6885000D01*
X2842000Y-6785000D02*
X2742000Y-6885000D01*
X2742000Y-7039000D02*
X2842000Y-7139000D01*
X2842000Y-7039000D02*
X2742000Y-7139000D01*
X2742000Y-7293000D02*
X2842000Y-7393000D01*
X2842000Y-7293000D02*
X2742000Y-7393000D01*
X2742000Y-7547000D02*
X2842000Y-7647000D01*
X2842000Y-7547000D02*
X2742000Y-7647000D01*
X2742000Y-7801000D02*
X2842000Y-7901000D01*
X2842000Y-7801000D02*
X2742000Y-7901000D01*
X2742000Y-8055000D02*
X2842000Y-8155000D01*
X2842000Y-8055000D02*
X2742000Y-8155000D01*
X2742000Y-8309000D02*
X2842000Y-8409000D01*
X2842000Y-8309000D02*
X2742000Y-8409000D01*
X2742000Y-8563000D02*
X2842000Y-8663000D01*
X2842000Y-8563000D02*
X2742000Y-8663000D01*
X2742000Y-8817000D02*
X2842000Y-8917000D01*
X2842000Y-8817000D02*
X2742000Y-8917000D01*
X2742000Y-9071000D02*
X2842000Y-9171000D01*
X2842000Y-9071000D02*
X2742000Y-9171000D01*
X2742000Y-9325000D02*
X2842000Y-9425000D01*
X2842000Y-9325000D02*
X2742000Y-9425000D01*
X2742000Y-9579000D02*
X2842000Y-9679000D01*
X2842000Y-9579000D02*
X2742000Y-9679000D01*
X2742000Y-9833000D02*
X2842000Y-9933000D01*
X2842000Y-9833000D02*
X2742000Y-9933000D01*
X2742000Y-10087000D02*
X2842000Y-10187000D01*
X2842000Y-10087000D02*
X2742000Y-10187000D01*
X2996000Y-2213000D02*
X3096000Y-2313000D01*
X3096000Y-2213000D02*
X2996000Y-2313000D01*
X2996000Y-2467000D02*
X3096000Y-2567000D01*
X3096000Y-2467000D02*
X2996000Y-2567000D01*
X2996000Y-2721000D02*
X3096000Y-2821000D01*
X3096000Y-2721000D02*
X2996000Y-2821000D01*
X2996000Y-2975000D02*
X3096000Y-3075000D01*
X3096000Y-2975000D02*
X2996000Y-3075000D01*
X2996000Y-3229000D02*
X3096000Y-3329000D01*
X3096000Y-3229000D02*
X2996000Y-3329000D01*
X2996000Y-3483000D02*
X3096000Y-3583000D01*
X3096000Y-3483000D02*
X2996000Y-3583000D01*
X2996000Y-3737000D02*
X3096000Y-3837000D01*
X3096000Y-3737000D02*
X2996000Y-3837000D01*
X2996000Y-3991000D02*
X3096000Y-4091000D01*
X3096000Y-3991000D02*
X2996000Y-4091000D01*
X2996000Y-4245000D02*
X3096000Y-4345000D01*
X3096000Y-4245000D02*
X2996000Y-4345000D01*
X2996000Y-4499000D02*
X3096000Y-4599000D01*
X3096000Y-4499000D02*
X2996000Y-4599000D01*
X2996000Y-4753000D02*
X3096000Y-4853000D01*
X3096000Y-4753000D02*
X2996000Y-4853000D01*
X2996000Y-5007000D02*
X3096000Y-5107000D01*
X3096000Y-5007000D02*
X2996000Y-5107000D01*
X2996000Y-5261000D02*
X3096000Y-5361000D01*
X3096000Y-5261000D02*
X2996000Y-5361000D01*
X2996000Y-5515000D02*
X3096000Y-5615000D01*
X3096000Y-5515000D02*
X2996000Y-5615000D01*
X2996000Y-5769000D02*
X3096000Y-5869000D01*
X3096000Y-5769000D02*
X2996000Y-5869000D01*
X2996000Y-6023000D02*
X3096000Y-6123000D01*
X3096000Y-6023000D02*
X2996000Y-6123000D01*
X2996000Y-6277000D02*
X3096000Y-6377000D01*
X3096000Y-6277000D02*
X2996000Y-6377000D01*
X2996000Y-6531000D02*
X3096000Y-6631000D01*
X3096000Y-6531000D02*
X2996000Y-6631000D01*
X2996000Y-6785000D02*
X3096000Y-6885000D01*
X3096000Y-6785000D02*
X2996000Y-6885000D01*
X2996000Y-7039000D02*
X3096000Y-7139000D01*
X3096000Y-7039000D02*
X2996000Y-7139000D01*
X2996000Y-7293000D02*
X3096000Y-7393000D01*
X3096000Y-7293000D02*
X2996000Y-7393000D01*
X2996000Y-7547000D02*
X3096000Y-7647000D01*
X3096000Y-7547000D02*
X2996000Y-7647000D01*
X2996000Y-7801000D02*
X3096000Y-7901000D01*
X3096000Y-7801000D02*
X2996000Y-7901000D01*
X2996000Y-8055000D02*
X3096000Y-8155000D01*
X3096000Y-8055000D02*
X2996000Y-8155000D01*
X2996000Y-8309000D02*
X3096000Y-8409000D01*
X3096000Y-8309000D02*
X2996000Y-8409000D01*
X2996000Y-8563000D02*
X3096000Y-8663000D01*
X3096000Y-8563000D02*
X2996000Y-8663000D01*
X2996000Y-8817000D02*
X3096000Y-8917000D01*
X3096000Y-8817000D02*
X2996000Y-8917000D01*
X2996000Y-9071000D02*
X3096000Y-9171000D01*
X3096000Y-9071000D02*
X2996000Y-9171000D01*
X2996000Y-9325000D02*
X3096000Y-9425000D01*
X3096000Y-9325000D02*
X2996000Y-9425000D01*
X2996000Y-9579000D02*
X3096000Y-9679000D01*
X3096000Y-9579000D02*
X2996000Y-9679000D01*
X2996000Y-9833000D02*
X3096000Y-9933000D01*
X3096000Y-9833000D02*
X2996000Y-9933000D01*
X2996000Y-10087000D02*
X3096000Y-10187000D01*
X3096000Y-10087000D02*
X2996000Y-10187000D01*
X3250000Y-2213000D02*
X3350000Y-2313000D01*
X3350000Y-2213000D02*
X3250000Y-2313000D01*
X3250000Y-2467000D02*
X3350000Y-2567000D01*
X3350000Y-2467000D02*
X3250000Y-2567000D01*
X3250000Y-2721000D02*
X3350000Y-2821000D01*
X3350000Y-2721000D02*
X3250000Y-2821000D01*
X3250000Y-2975000D02*
X3350000Y-3075000D01*
X3350000Y-2975000D02*
X3250000Y-3075000D01*
X3250000Y-3229000D02*
X3350000Y-3329000D01*
X3350000Y-3229000D02*
X3250000Y-3329000D01*
X3250000Y-3483000D02*
X3350000Y-3583000D01*
X3350000Y-3483000D02*
X3250000Y-3583000D01*
X3250000Y-3737000D02*
X3350000Y-3837000D01*
X3350000Y-3737000D02*
X3250000Y-3837000D01*
X3250000Y-3991000D02*
X3350000Y-4091000D01*
X3350000Y-3991000D02*
X3250000Y-4091000D01*
X3250000Y-4245000D02*
X3350000Y-4345000D01*
X3350000Y-4245000D02*
X3250000Y-4345000D01*
X3250000Y-4499000D02*
X3350000Y-4599000D01*
X3350000Y-4499000D02*
X3250000Y-4599000D01*
X3250000Y-4753000D02*
X3350000Y-4853000D01*
X3350000Y-4753000D02*
X3250000Y-4853000D01*
X3250000Y-5007000D02*
X3350000Y-5107000D01*
X3350000Y-5007000D02*
X3250000Y-5107000D01*
X3250000Y-5261000D02*
X3350000Y-5361000D01*
X3350000Y-5261000D02*
X3250000Y-5361000D01*
X3250000Y-5515000D02*
X3350000Y-5615000D01*
X3350000Y-5515000D02*
X3250000Y-5615000D01*
X3250000Y-5769000D02*
X3350000Y-5869000D01*
X3350000Y-5769000D02*
X3250000Y-5869000D01*
X3250000Y-6023000D02*
X3350000Y-6123000D01*
X3350000Y-6023000D02*
X3250000Y-6123000D01*
X3250000Y-6277000D02*
X3350000Y-6377000D01*
X3350000Y-6277000D02*
X3250000Y-6377000D01*
X3250000Y-6531000D02*
X3350000Y-6631000D01*
X3350000Y-6531000D02*
X3250000Y-6631000D01*
X3250000Y-6785000D02*
X3350000Y-6885000D01*
X3350000Y-6785000D02*
X3250000Y-6885000D01*
X3250000Y-7039000D02*
X3350000Y-7139000D01*
X3350000Y-7039000D02*
X3250000Y-7139000D01*
X3250000Y-7293000D02*
X3350000Y-7393000D01*
X3350000Y-7293000D02*
X3250000Y-7393000D01*
X3250000Y-7547000D02*
X3350000Y-7647000D01*
X3350000Y-7547000D02*
X3250000Y-7647000D01*
X3250000Y-7801000D02*
X3350000Y-7901000D01*
X3350000Y-7801000D02*
X3250000Y-7901000D01*
X3250000Y-8055000D02*
X3350000Y-8155000D01*
X3350000Y-8055000D02*
X3250000Y-8155000D01*
X3250000Y-8309000D02*
X3350000Y-8409000D01*
X3350000Y-8309000D02*
X3250000Y-8409000D01*
X3250000Y-8563000D02*
X3350000Y-8663000D01*
X3350000Y-8563000D02*
X3250000Y-8663000D01*
X3250000Y-8817000D02*
X3350000Y-8917000D01*
X3350000Y-8817000D02*
X3250000Y-8917000D01*
X3250000Y-9071000D02*
X3350000Y-9171000D01*
X3350000Y-9071000D02*
X3250000Y-9171000D01*
X3250000Y-9325000D02*
X3350000Y-9425000D01*
X3350000Y-9325000D02*
X3250000Y-9425000D01*
X3250000Y-9579000D02*
X3350000Y-9679000D01*
X3350000Y-9579000D02*
X3250000Y-9679000D01*
X3250000Y-9833000D02*
X3350000Y-9933000D01*
X3350000Y-9833000D02*
X3250000Y-9933000D01*
X3250000Y-10087000D02*
X3350000Y-10187000D01*
X3350000Y-10087000D02*
X3250000Y-10187000D01*
X1618000Y-1755000D02*
G75*
G03*
X1618000Y-1755000I-142500J0D01*
G01*
X1618000Y-10645000D02*
G75*
G03*
X1618000Y-10645000I-142500J0D01*
G01*
X3696500Y-1755000D02*
G75*
G03*
X3696500Y-1755000I-142500J0D01*
G01*
X3696500Y-10645000D02*
G75*
G03*
X3696500Y-10645000I-142500J0D01*
G01*
D12*
X1481428Y-11670714D02*
X1481428Y-11370714D01*
X1552857Y-11370714D01*
X1595714Y-11385000D01*
X1624286Y-11413571D01*
X1638571Y-11442143D01*
X1652857Y-11499286D01*
X1652857Y-11542143D01*
X1638571Y-11599286D01*
X1624286Y-11627857D01*
X1595714Y-11656429D01*
X1552857Y-11670714D01*
X1481428Y-11670714D01*
X1781428Y-11670714D02*
X1781428Y-11470714D01*
X1781428Y-11527857D02*
X1795714Y-11499286D01*
X1810000Y-11485000D01*
X1838571Y-11470714D01*
X1867143Y-11470714D01*
X1967143Y-11670714D02*
X1967143Y-11470714D01*
X1967143Y-11370714D02*
X1952857Y-11385000D01*
X1967143Y-11399286D01*
X1981428Y-11385000D01*
X1967143Y-11370714D01*
X1967143Y-11399286D01*
X2152857Y-11670714D02*
X2124286Y-11656429D01*
X2110000Y-11627857D01*
X2110000Y-11370714D01*
X2310000Y-11670714D02*
X2281428Y-11656429D01*
X2267143Y-11627857D01*
X2267143Y-11370714D01*
X2652857Y-11670714D02*
X2652857Y-11370714D01*
X2752857Y-11585000D01*
X2852857Y-11370714D01*
X2852857Y-11670714D01*
X3124286Y-11670714D02*
X3124286Y-11513571D01*
X3110000Y-11485000D01*
X3081428Y-11470714D01*
X3024286Y-11470714D01*
X2995714Y-11485000D01*
X3124286Y-11656429D02*
X3095714Y-11670714D01*
X3024286Y-11670714D01*
X2995714Y-11656429D01*
X2981428Y-11627857D01*
X2981428Y-11599286D01*
X2995714Y-11570714D01*
X3024286Y-11556429D01*
X3095714Y-11556429D01*
X3124286Y-11542143D01*
X3267143Y-11470714D02*
X3267143Y-11770714D01*
X3267143Y-11485000D02*
X3295714Y-11470714D01*
X3352857Y-11470714D01*
X3381428Y-11485000D01*
X3395714Y-11499286D01*
X3410000Y-11527857D01*
X3410000Y-11613571D01*
X3395714Y-11642143D01*
X3381428Y-11656429D01*
X3352857Y-11670714D01*
X3295714Y-11670714D01*
X3267143Y-11656429D01*
X3538571Y-11642143D02*
X3552857Y-11656429D01*
X3538571Y-11670714D01*
X3524286Y-11656429D01*
X3538571Y-11642143D01*
X3538571Y-11670714D01*
X3538571Y-11485000D02*
X3552857Y-11499286D01*
X3538571Y-11513571D01*
X3524286Y-11499286D01*
X3538571Y-11485000D01*
X3538571Y-11513571D01*
X1095000Y-12115000D02*
X1195000Y-12215000D01*
X1195000Y-12115000D02*
X1095000Y-12215000D01*
X1638571Y-12300714D02*
X1467143Y-12300714D01*
X1552857Y-12300714D02*
X1552857Y-12000714D01*
X1524286Y-12043571D01*
X1495714Y-12072143D01*
X1467143Y-12086429D01*
X1767143Y-12272143D02*
X1781428Y-12286429D01*
X1767143Y-12300714D01*
X1752857Y-12286429D01*
X1767143Y-12272143D01*
X1767143Y-12300714D01*
X1967143Y-12000714D02*
X1995714Y-12000714D01*
X2024286Y-12015000D01*
X2038571Y-12029286D01*
X2052857Y-12057857D01*
X2067143Y-12115000D01*
X2067143Y-12186429D01*
X2052857Y-12243571D01*
X2038571Y-12272143D01*
X2024286Y-12286429D01*
X1995714Y-12300714D01*
X1967143Y-12300714D01*
X1938571Y-12286429D01*
X1924286Y-12272143D01*
X1910000Y-12243571D01*
X1895714Y-12186429D01*
X1895714Y-12115000D01*
X1910000Y-12057857D01*
X1924286Y-12029286D01*
X1938571Y-12015000D01*
X1967143Y-12000714D01*
X2252857Y-12000714D02*
X2281428Y-12000714D01*
X2310000Y-12015000D01*
X2324286Y-12029286D01*
X2338571Y-12057857D01*
X2352857Y-12115000D01*
X2352857Y-12186429D01*
X2338571Y-12243571D01*
X2324286Y-12272143D01*
X2310000Y-12286429D01*
X2281428Y-12300714D01*
X2252857Y-12300714D01*
X2224286Y-12286429D01*
X2210000Y-12272143D01*
X2195714Y-12243571D01*
X2181428Y-12186429D01*
X2181428Y-12115000D01*
X2195714Y-12057857D01*
X2210000Y-12029286D01*
X2224286Y-12015000D01*
X2252857Y-12000714D01*
X2481428Y-12300714D02*
X2481428Y-12100714D01*
X2481428Y-12129286D02*
X2495714Y-12115000D01*
X2524286Y-12100714D01*
X2567143Y-12100714D01*
X2595714Y-12115000D01*
X2610000Y-12143571D01*
X2610000Y-12300714D01*
X2610000Y-12143571D02*
X2624286Y-12115000D01*
X2652857Y-12100714D01*
X2695714Y-12100714D01*
X2724286Y-12115000D01*
X2738571Y-12143571D01*
X2738571Y-12300714D01*
X2881428Y-12300714D02*
X2881428Y-12100714D01*
X2881428Y-12129286D02*
X2895714Y-12115000D01*
X2924286Y-12100714D01*
X2967143Y-12100714D01*
X2995714Y-12115000D01*
X3010000Y-12143571D01*
X3010000Y-12300714D01*
X3010000Y-12143571D02*
X3024286Y-12115000D01*
X3052857Y-12100714D01*
X3095714Y-12100714D01*
X3124286Y-12115000D01*
X3138571Y-12143571D01*
X3138571Y-12300714D01*
X3724286Y-11986429D02*
X3467143Y-12372143D01*
X4110000Y-12000714D02*
X4138571Y-12000714D01*
X4167143Y-12015000D01*
X4181428Y-12029286D01*
X4195714Y-12057857D01*
X4210000Y-12115000D01*
X4210000Y-12186429D01*
X4195714Y-12243571D01*
X4181428Y-12272143D01*
X4167143Y-12286429D01*
X4138571Y-12300714D01*
X4110000Y-12300714D01*
X4081428Y-12286429D01*
X4067143Y-12272143D01*
X4052857Y-12243571D01*
X4038571Y-12186429D01*
X4038571Y-12115000D01*
X4052857Y-12057857D01*
X4067143Y-12029286D01*
X4081428Y-12015000D01*
X4110000Y-12000714D01*
X4338571Y-12272143D02*
X4352857Y-12286429D01*
X4338571Y-12300714D01*
X4324286Y-12286429D01*
X4338571Y-12272143D01*
X4338571Y-12300714D01*
X4538571Y-12000714D02*
X4567143Y-12000714D01*
X4595714Y-12015000D01*
X4610000Y-12029286D01*
X4624286Y-12057857D01*
X4638571Y-12115000D01*
X4638571Y-12186429D01*
X4624286Y-12243571D01*
X4610000Y-12272143D01*
X4595714Y-12286429D01*
X4567143Y-12300714D01*
X4538571Y-12300714D01*
X4510000Y-12286429D01*
X4495714Y-12272143D01*
X4481428Y-12243571D01*
X4467143Y-12186429D01*
X4467143Y-12115000D01*
X4481428Y-12057857D01*
X4495714Y-12029286D01*
X4510000Y-12015000D01*
X4538571Y-12000714D01*
X4738571Y-12000714D02*
X4924286Y-12000714D01*
X4824286Y-12115000D01*
X4867143Y-12115000D01*
X4895714Y-12129286D01*
X4910000Y-12143571D01*
X4924286Y-12172143D01*
X4924286Y-12243571D01*
X4910000Y-12272143D01*
X4895714Y-12286429D01*
X4867143Y-12300714D01*
X4781428Y-12300714D01*
X4752857Y-12286429D01*
X4738571Y-12272143D01*
X5067143Y-12300714D02*
X5124286Y-12300714D01*
X5152857Y-12286429D01*
X5167143Y-12272143D01*
X5195714Y-12229286D01*
X5210000Y-12172143D01*
X5210000Y-12057857D01*
X5195714Y-12029286D01*
X5181428Y-12015000D01*
X5152857Y-12000714D01*
X5095714Y-12000714D01*
X5067143Y-12015000D01*
X5052857Y-12029286D01*
X5038571Y-12057857D01*
X5038571Y-12129286D01*
X5052857Y-12157857D01*
X5067143Y-12172143D01*
X5095714Y-12186429D01*
X5152857Y-12186429D01*
X5181428Y-12172143D01*
X5195714Y-12157857D01*
X5210000Y-12129286D01*
X5324286Y-12000714D02*
X5324286Y-12057857D01*
X5438571Y-12000714D02*
X5438571Y-12057857D01*
X5881428Y-12415000D02*
X5867143Y-12400714D01*
X5838571Y-12357857D01*
X5824286Y-12329286D01*
X5810000Y-12286429D01*
X5795714Y-12215000D01*
X5795714Y-12157857D01*
X5810000Y-12086429D01*
X5824286Y-12043571D01*
X5838571Y-12015000D01*
X5867143Y-11972143D01*
X5881428Y-11957857D01*
X6152857Y-12300714D02*
X5981428Y-12300714D01*
X6067143Y-12300714D02*
X6067143Y-12000714D01*
X6038571Y-12043571D01*
X6010000Y-12072143D01*
X5981428Y-12086429D01*
X6295714Y-12300714D02*
X6352857Y-12300714D01*
X6381428Y-12286429D01*
X6395714Y-12272143D01*
X6424286Y-12229286D01*
X6438571Y-12172143D01*
X6438571Y-12057857D01*
X6424286Y-12029286D01*
X6410000Y-12015000D01*
X6381428Y-12000714D01*
X6324286Y-12000714D01*
X6295714Y-12015000D01*
X6281428Y-12029286D01*
X6267143Y-12057857D01*
X6267143Y-12129286D01*
X6281428Y-12157857D01*
X6295714Y-12172143D01*
X6324286Y-12186429D01*
X6381428Y-12186429D01*
X6410000Y-12172143D01*
X6424286Y-12157857D01*
X6438571Y-12129286D01*
X6552857Y-12029286D02*
X6567143Y-12015000D01*
X6595714Y-12000714D01*
X6667143Y-12000714D01*
X6695714Y-12015000D01*
X6710000Y-12029286D01*
X6724286Y-12057857D01*
X6724286Y-12086429D01*
X6710000Y-12129286D01*
X6538571Y-12300714D01*
X6724286Y-12300714D01*
X7081428Y-12300714D02*
X7081428Y-12000714D01*
X7210000Y-12300714D02*
X7210000Y-12143571D01*
X7195714Y-12115000D01*
X7167143Y-12100714D01*
X7124286Y-12100714D01*
X7095714Y-12115000D01*
X7081428Y-12129286D01*
X7395714Y-12300714D02*
X7367143Y-12286429D01*
X7352857Y-12272143D01*
X7338571Y-12243571D01*
X7338571Y-12157857D01*
X7352857Y-12129286D01*
X7367143Y-12115000D01*
X7395714Y-12100714D01*
X7438571Y-12100714D01*
X7467143Y-12115000D01*
X7481428Y-12129286D01*
X7495714Y-12157857D01*
X7495714Y-12243571D01*
X7481428Y-12272143D01*
X7467143Y-12286429D01*
X7438571Y-12300714D01*
X7395714Y-12300714D01*
X7667143Y-12300714D02*
X7638571Y-12286429D01*
X7624286Y-12257857D01*
X7624286Y-12000714D01*
X7895714Y-12286429D02*
X7867143Y-12300714D01*
X7810000Y-12300714D01*
X7781428Y-12286429D01*
X7767143Y-12257857D01*
X7767143Y-12143571D01*
X7781428Y-12115000D01*
X7810000Y-12100714D01*
X7867143Y-12100714D01*
X7895714Y-12115000D01*
X7910000Y-12143571D01*
X7910000Y-12172143D01*
X7767143Y-12200714D01*
X8024286Y-12286429D02*
X8052857Y-12300714D01*
X8110000Y-12300714D01*
X8138571Y-12286429D01*
X8152857Y-12257857D01*
X8152857Y-12243571D01*
X8138571Y-12215000D01*
X8110000Y-12200714D01*
X8067143Y-12200714D01*
X8038571Y-12186429D01*
X8024286Y-12157857D01*
X8024286Y-12143571D01*
X8038571Y-12115000D01*
X8067143Y-12100714D01*
X8110000Y-12100714D01*
X8138571Y-12115000D01*
X8252857Y-12415000D02*
X8267143Y-12400714D01*
X8295714Y-12357857D01*
X8310000Y-12329286D01*
X8324286Y-12286429D01*
X8338571Y-12215000D01*
X8338571Y-12157857D01*
X8324286Y-12086429D01*
X8310000Y-12043571D01*
X8295714Y-12015000D01*
X8267143Y-11972143D01*
X8252857Y-11957857D01*
X1195000Y-12561000D02*
G75*
G03*
X1195000Y-12561000I-142500J0D01*
G01*
X1467143Y-12425286D02*
X1481428Y-12411000D01*
X1510000Y-12396714D01*
X1581428Y-12396714D01*
X1610000Y-12411000D01*
X1624286Y-12425286D01*
X1638571Y-12453857D01*
X1638571Y-12482429D01*
X1624286Y-12525286D01*
X1452857Y-12696714D01*
X1638571Y-12696714D01*
X1767143Y-12668143D02*
X1781428Y-12682429D01*
X1767143Y-12696714D01*
X1752857Y-12682429D01*
X1767143Y-12668143D01*
X1767143Y-12696714D01*
X1952857Y-12525286D02*
X1924286Y-12511000D01*
X1910000Y-12496714D01*
X1895714Y-12468143D01*
X1895714Y-12453857D01*
X1910000Y-12425286D01*
X1924286Y-12411000D01*
X1952857Y-12396714D01*
X2010000Y-12396714D01*
X2038571Y-12411000D01*
X2052857Y-12425286D01*
X2067143Y-12453857D01*
X2067143Y-12468143D01*
X2052857Y-12496714D01*
X2038571Y-12511000D01*
X2010000Y-12525286D01*
X1952857Y-12525286D01*
X1924286Y-12539571D01*
X1910000Y-12553857D01*
X1895714Y-12582429D01*
X1895714Y-12639571D01*
X1910000Y-12668143D01*
X1924286Y-12682429D01*
X1952857Y-12696714D01*
X2010000Y-12696714D01*
X2038571Y-12682429D01*
X2052857Y-12668143D01*
X2067143Y-12639571D01*
X2067143Y-12582429D01*
X2052857Y-12553857D01*
X2038571Y-12539571D01*
X2010000Y-12525286D01*
X2338571Y-12396714D02*
X2195714Y-12396714D01*
X2181428Y-12539571D01*
X2195714Y-12525286D01*
X2224286Y-12511000D01*
X2295714Y-12511000D01*
X2324286Y-12525286D01*
X2338571Y-12539571D01*
X2352857Y-12568143D01*
X2352857Y-12639571D01*
X2338571Y-12668143D01*
X2324286Y-12682429D01*
X2295714Y-12696714D01*
X2224286Y-12696714D01*
X2195714Y-12682429D01*
X2181428Y-12668143D01*
X2481428Y-12696714D02*
X2481428Y-12496714D01*
X2481428Y-12525286D02*
X2495714Y-12511000D01*
X2524286Y-12496714D01*
X2567143Y-12496714D01*
X2595714Y-12511000D01*
X2610000Y-12539571D01*
X2610000Y-12696714D01*
X2610000Y-12539571D02*
X2624286Y-12511000D01*
X2652857Y-12496714D01*
X2695714Y-12496714D01*
X2724286Y-12511000D01*
X2738571Y-12539571D01*
X2738571Y-12696714D01*
X2881428Y-12696714D02*
X2881428Y-12496714D01*
X2881428Y-12525286D02*
X2895714Y-12511000D01*
X2924286Y-12496714D01*
X2967143Y-12496714D01*
X2995714Y-12511000D01*
X3010000Y-12539571D01*
X3010000Y-12696714D01*
X3010000Y-12539571D02*
X3024286Y-12511000D01*
X3052857Y-12496714D01*
X3095714Y-12496714D01*
X3124286Y-12511000D01*
X3138571Y-12539571D01*
X3138571Y-12696714D01*
X3724286Y-12382429D02*
X3467143Y-12768143D01*
X4110000Y-12396714D02*
X4138571Y-12396714D01*
X4167143Y-12411000D01*
X4181428Y-12425286D01*
X4195714Y-12453857D01*
X4210000Y-12511000D01*
X4210000Y-12582429D01*
X4195714Y-12639571D01*
X4181428Y-12668143D01*
X4167143Y-12682429D01*
X4138571Y-12696714D01*
X4110000Y-12696714D01*
X4081428Y-12682429D01*
X4067143Y-12668143D01*
X4052857Y-12639571D01*
X4038571Y-12582429D01*
X4038571Y-12511000D01*
X4052857Y-12453857D01*
X4067143Y-12425286D01*
X4081428Y-12411000D01*
X4110000Y-12396714D01*
X4338571Y-12668143D02*
X4352857Y-12682429D01*
X4338571Y-12696714D01*
X4324286Y-12682429D01*
X4338571Y-12668143D01*
X4338571Y-12696714D01*
X4638571Y-12696714D02*
X4467143Y-12696714D01*
X4552857Y-12696714D02*
X4552857Y-12396714D01*
X4524286Y-12439571D01*
X4495714Y-12468143D01*
X4467143Y-12482429D01*
X4924286Y-12696714D02*
X4752857Y-12696714D01*
X4838571Y-12696714D02*
X4838571Y-12396714D01*
X4810000Y-12439571D01*
X4781428Y-12468143D01*
X4752857Y-12482429D01*
X5038571Y-12425286D02*
X5052857Y-12411000D01*
X5081428Y-12396714D01*
X5152857Y-12396714D01*
X5181428Y-12411000D01*
X5195714Y-12425286D01*
X5210000Y-12453857D01*
X5210000Y-12482429D01*
X5195714Y-12525286D01*
X5024286Y-12696714D01*
X5210000Y-12696714D01*
X5324286Y-12396714D02*
X5324286Y-12453857D01*
X5438571Y-12396714D02*
X5438571Y-12453857D01*
X5881428Y-12811000D02*
X5867143Y-12796714D01*
X5838571Y-12753857D01*
X5824286Y-12725286D01*
X5810000Y-12682429D01*
X5795714Y-12611000D01*
X5795714Y-12553857D01*
X5810000Y-12482429D01*
X5824286Y-12439571D01*
X5838571Y-12411000D01*
X5867143Y-12368143D01*
X5881428Y-12353857D01*
X6124286Y-12496714D02*
X6124286Y-12696714D01*
X6052857Y-12382429D02*
X5981428Y-12596714D01*
X6167143Y-12596714D01*
X6510000Y-12696714D02*
X6510000Y-12396714D01*
X6638571Y-12696714D02*
X6638571Y-12539571D01*
X6624286Y-12511000D01*
X6595714Y-12496714D01*
X6552857Y-12496714D01*
X6524286Y-12511000D01*
X6510000Y-12525286D01*
X6824286Y-12696714D02*
X6795714Y-12682429D01*
X6781428Y-12668143D01*
X6767143Y-12639571D01*
X6767143Y-12553857D01*
X6781428Y-12525286D01*
X6795714Y-12511000D01*
X6824286Y-12496714D01*
X6867143Y-12496714D01*
X6895714Y-12511000D01*
X6910000Y-12525286D01*
X6924286Y-12553857D01*
X6924286Y-12639571D01*
X6910000Y-12668143D01*
X6895714Y-12682429D01*
X6867143Y-12696714D01*
X6824286Y-12696714D01*
X7095714Y-12696714D02*
X7067143Y-12682429D01*
X7052857Y-12653857D01*
X7052857Y-12396714D01*
X7324286Y-12682429D02*
X7295714Y-12696714D01*
X7238571Y-12696714D01*
X7210000Y-12682429D01*
X7195714Y-12653857D01*
X7195714Y-12539571D01*
X7210000Y-12511000D01*
X7238571Y-12496714D01*
X7295714Y-12496714D01*
X7324286Y-12511000D01*
X7338571Y-12539571D01*
X7338571Y-12568143D01*
X7195714Y-12596714D01*
X7452857Y-12682429D02*
X7481428Y-12696714D01*
X7538571Y-12696714D01*
X7567143Y-12682429D01*
X7581428Y-12653857D01*
X7581428Y-12639571D01*
X7567143Y-12611000D01*
X7538571Y-12596714D01*
X7495714Y-12596714D01*
X7467143Y-12582429D01*
X7452857Y-12553857D01*
X7452857Y-12539571D01*
X7467143Y-12511000D01*
X7495714Y-12496714D01*
X7538571Y-12496714D01*
X7567143Y-12511000D01*
X7681428Y-12811000D02*
X7695714Y-12796714D01*
X7724286Y-12753857D01*
X7738571Y-12725286D01*
X7752857Y-12682429D01*
X7767143Y-12611000D01*
X7767143Y-12553857D01*
X7752857Y-12482429D01*
X7738571Y-12439571D01*
X7724286Y-12411000D01*
X7695714Y-12368143D01*
X7681428Y-12353857D01*
X8224286Y-12811000D02*
X8210000Y-12796714D01*
X8181428Y-12753857D01*
X8167143Y-12725286D01*
X8152857Y-12682429D01*
X8138571Y-12611000D01*
X8138571Y-12553857D01*
X8152857Y-12482429D01*
X8167143Y-12439571D01*
X8181428Y-12411000D01*
X8210000Y-12368143D01*
X8224286Y-12353857D01*
X8338571Y-12496714D02*
X8338571Y-12696714D01*
X8338571Y-12525286D02*
X8352857Y-12511000D01*
X8381428Y-12496714D01*
X8424286Y-12496714D01*
X8452857Y-12511000D01*
X8467143Y-12539571D01*
X8467143Y-12696714D01*
X8652857Y-12696714D02*
X8624286Y-12682429D01*
X8610000Y-12668143D01*
X8595714Y-12639571D01*
X8595714Y-12553857D01*
X8610000Y-12525286D01*
X8624286Y-12511000D01*
X8652857Y-12496714D01*
X8695714Y-12496714D01*
X8724286Y-12511000D01*
X8738571Y-12525286D01*
X8752857Y-12553857D01*
X8752857Y-12639571D01*
X8738571Y-12668143D01*
X8724286Y-12682429D01*
X8695714Y-12696714D01*
X8652857Y-12696714D01*
X8838571Y-12496714D02*
X8952857Y-12496714D01*
X8881428Y-12396714D02*
X8881428Y-12653857D01*
X8895714Y-12682429D01*
X8924286Y-12696714D01*
X8952857Y-12696714D01*
X9281428Y-12496714D02*
X9281428Y-12796714D01*
X9281428Y-12511000D02*
X9310000Y-12496714D01*
X9367143Y-12496714D01*
X9395714Y-12511000D01*
X9410000Y-12525286D01*
X9424286Y-12553857D01*
X9424286Y-12639571D01*
X9410000Y-12668143D01*
X9395714Y-12682429D01*
X9367143Y-12696714D01*
X9310000Y-12696714D01*
X9281428Y-12682429D01*
X9595714Y-12696714D02*
X9567143Y-12682429D01*
X9552857Y-12653857D01*
X9552857Y-12396714D01*
X9838571Y-12696714D02*
X9838571Y-12539571D01*
X9824286Y-12511000D01*
X9795714Y-12496714D01*
X9738571Y-12496714D01*
X9710000Y-12511000D01*
X9838571Y-12682429D02*
X9810000Y-12696714D01*
X9738571Y-12696714D01*
X9710000Y-12682429D01*
X9695714Y-12653857D01*
X9695714Y-12625286D01*
X9710000Y-12596714D01*
X9738571Y-12582429D01*
X9810000Y-12582429D01*
X9838571Y-12568143D01*
X9938571Y-12496714D02*
X10052857Y-12496714D01*
X9981428Y-12396714D02*
X9981428Y-12653857D01*
X9995714Y-12682429D01*
X10024286Y-12696714D01*
X10052857Y-12696714D01*
X10267143Y-12682429D02*
X10238571Y-12696714D01*
X10181428Y-12696714D01*
X10152857Y-12682429D01*
X10138571Y-12653857D01*
X10138571Y-12539571D01*
X10152857Y-12511000D01*
X10181428Y-12496714D01*
X10238571Y-12496714D01*
X10267143Y-12511000D01*
X10281428Y-12539571D01*
X10281428Y-12568143D01*
X10138571Y-12596714D01*
X10538571Y-12696714D02*
X10538571Y-12396714D01*
X10538571Y-12682429D02*
X10510000Y-12696714D01*
X10452857Y-12696714D01*
X10424286Y-12682429D01*
X10410000Y-12668143D01*
X10395714Y-12639571D01*
X10395714Y-12553857D01*
X10410000Y-12525286D01*
X10424286Y-12511000D01*
X10452857Y-12496714D01*
X10510000Y-12496714D01*
X10538571Y-12511000D01*
X10652857Y-12811000D02*
X10667143Y-12796714D01*
X10695714Y-12753857D01*
X10710000Y-12725286D01*
X10724286Y-12682429D01*
X10738571Y-12611000D01*
X10738571Y-12553857D01*
X10724286Y-12482429D01*
X10710000Y-12439571D01*
X10695714Y-12411000D01*
X10667143Y-12368143D01*
X10652857Y-12353857D01*
M02*
