G04 #@! TF.GenerationSoftware,KiCad,Pcbnew,(5.1.7)-1*
G04 #@! TF.CreationDate,2022-02-14T00:20:13+00:00*
G04 #@! TF.ProjectId,bp_fp_connector,62705f66-705f-4636-9f6e-6e6563746f72,rev?*
G04 #@! TF.SameCoordinates,Original*
G04 #@! TF.FileFunction,Soldermask,Bot*
G04 #@! TF.FilePolarity,Negative*
%FSLAX46Y46*%
G04 Gerber Fmt 4.6, Leading zero omitted, Abs format (unit mm)*
G04 Created by KiCad (PCBNEW (5.1.7)-1) date 2022-02-14 00:20:13*
%MOMM*%
%LPD*%
G01*
G04 APERTURE LIST*
%ADD10C,0.010000*%
%ADD11C,1.550000*%
%ADD12C,2.850000*%
G04 APERTURE END LIST*
D10*
G36*
X21572222Y-20543867D02*
G01*
X28622133Y-20543867D01*
X28622133Y-19544800D01*
X28131067Y-19544800D01*
X28131067Y-20205200D01*
X28029467Y-20205200D01*
X28029467Y-19775455D01*
X28002656Y-19721223D01*
X27981980Y-19682637D01*
X27963003Y-19654363D01*
X27945067Y-19635671D01*
X27927514Y-19625833D01*
X27914760Y-19623822D01*
X27898323Y-19626129D01*
X27887320Y-19634790D01*
X27884253Y-19639088D01*
X27881950Y-19643315D01*
X27880014Y-19649026D01*
X27878405Y-19657200D01*
X27877083Y-19668817D01*
X27876011Y-19684854D01*
X27875147Y-19706291D01*
X27874453Y-19734108D01*
X27873889Y-19769282D01*
X27873417Y-19812793D01*
X27872997Y-19865621D01*
X27872589Y-19928744D01*
X27872583Y-19929777D01*
X27870920Y-20205200D01*
X27769822Y-20205200D01*
X27769822Y-19775257D01*
X27740904Y-19718959D01*
X27721117Y-19682608D01*
X27703816Y-19655969D01*
X27688061Y-19637998D01*
X27672907Y-19627651D01*
X27657413Y-19623884D01*
X27654986Y-19623822D01*
X27638556Y-19626177D01*
X27627518Y-19634993D01*
X27624608Y-19639089D01*
X27622306Y-19643315D01*
X27620370Y-19649022D01*
X27618762Y-19657189D01*
X27617443Y-19668796D01*
X27616372Y-19684820D01*
X27615512Y-19706243D01*
X27614823Y-19734042D01*
X27614265Y-19769196D01*
X27613800Y-19812685D01*
X27613389Y-19865488D01*
X27612992Y-19928584D01*
X27612985Y-19929778D01*
X27611370Y-20205200D01*
X27509508Y-20205200D01*
X27510130Y-20109245D01*
X27386000Y-20109245D01*
X27386000Y-20205200D01*
X26861067Y-20205200D01*
X26861067Y-20109245D01*
X27058622Y-20109245D01*
X27058622Y-19861148D01*
X26746659Y-19861148D01*
X26745684Y-19928221D01*
X26735869Y-19989220D01*
X26717491Y-20043730D01*
X26690827Y-20091337D01*
X26656153Y-20131628D01*
X26613747Y-20164189D01*
X26563883Y-20188604D01*
X26518974Y-20201958D01*
X26484279Y-20207124D01*
X26442413Y-20209324D01*
X26397057Y-20208696D01*
X26351893Y-20205381D01*
X26310602Y-20199517D01*
X26282511Y-20192992D01*
X26237356Y-20179800D01*
X26235715Y-20129719D01*
X26235109Y-20105926D01*
X26235440Y-20091439D01*
X26237069Y-20084291D01*
X26240355Y-20082514D01*
X26244181Y-20083543D01*
X26310053Y-20104832D01*
X26371370Y-20115998D01*
X26428464Y-20117090D01*
X26448488Y-20114965D01*
X26498098Y-20103965D01*
X26539253Y-20085969D01*
X26572383Y-20060514D01*
X26597917Y-20027136D01*
X26616283Y-19985372D01*
X26627912Y-19934759D01*
X26630004Y-19919062D01*
X26631884Y-19859768D01*
X26624091Y-19802146D01*
X26612314Y-19762345D01*
X26596248Y-19731433D01*
X26572368Y-19700510D01*
X26543671Y-19672813D01*
X26513156Y-19651581D01*
X26506540Y-19648119D01*
X26472681Y-19636519D01*
X26431848Y-19630451D01*
X26386848Y-19629810D01*
X26340486Y-19634489D01*
X26295568Y-19644382D01*
X26259064Y-19657492D01*
X26234533Y-19668343D01*
X26234533Y-19566802D01*
X26252878Y-19559232D01*
X26291140Y-19547410D01*
X26307672Y-19544800D01*
X26070845Y-19544800D01*
X26070845Y-20205200D01*
X25957956Y-20205200D01*
X25957956Y-19880645D01*
X25429149Y-19880645D01*
X25426149Y-19943111D01*
X25417409Y-19997139D01*
X25402421Y-20044299D01*
X25380673Y-20086156D01*
X25351657Y-20124278D01*
X25348957Y-20127268D01*
X25310983Y-20160650D01*
X25265227Y-20186762D01*
X25213095Y-20204897D01*
X25182397Y-20211185D01*
X25155134Y-20213444D01*
X25121614Y-20213254D01*
X25086545Y-20210853D01*
X25054635Y-20206479D01*
X25043556Y-20204171D01*
X24997875Y-20188334D01*
X24953547Y-20163702D01*
X24914461Y-20132482D01*
X24910911Y-20129003D01*
X24875063Y-20086525D01*
X24847979Y-20039167D01*
X24829324Y-19986007D01*
X24818763Y-19926122D01*
X24815902Y-19866534D01*
X24816068Y-19861148D01*
X24686437Y-19861148D01*
X24685461Y-19928221D01*
X24675646Y-19989220D01*
X24657269Y-20043730D01*
X24630605Y-20091337D01*
X24595931Y-20131628D01*
X24553524Y-20164189D01*
X24503661Y-20188604D01*
X24458752Y-20201958D01*
X24424057Y-20207124D01*
X24382191Y-20209324D01*
X24336835Y-20208696D01*
X24291670Y-20205381D01*
X24250380Y-20199517D01*
X24222289Y-20192992D01*
X24177133Y-20179800D01*
X24175493Y-20129719D01*
X24174972Y-20109245D01*
X24021911Y-20109245D01*
X24021911Y-20205200D01*
X23496978Y-20205200D01*
X23496978Y-20109245D01*
X23694533Y-20109245D01*
X23694533Y-19887614D01*
X23392533Y-19887614D01*
X23390759Y-19933392D01*
X23385834Y-19974828D01*
X23382068Y-19993169D01*
X23363579Y-20049318D01*
X23337595Y-20097106D01*
X23303970Y-20136661D01*
X23262557Y-20168113D01*
X23213207Y-20191591D01*
X23155774Y-20207225D01*
X23133543Y-20210894D01*
X23107706Y-20213001D01*
X23074101Y-20213557D01*
X23036125Y-20212670D01*
X22997176Y-20210449D01*
X22960652Y-20207005D01*
X22943822Y-20204779D01*
X22918556Y-20200674D01*
X22892420Y-20195912D01*
X22877500Y-20192888D01*
X22847867Y-20186470D01*
X22847867Y-20141555D01*
X22848015Y-20119286D01*
X22848892Y-20106184D01*
X22851150Y-20100128D01*
X22855439Y-20098995D01*
X22860567Y-20100152D01*
X22895707Y-20108031D01*
X22936520Y-20114196D01*
X22980374Y-20118529D01*
X23024636Y-20120906D01*
X23066676Y-20121206D01*
X23103862Y-20119309D01*
X23133561Y-20115093D01*
X23141489Y-20113109D01*
X23183737Y-20095305D01*
X23219250Y-20069103D01*
X23247080Y-20035764D01*
X23266277Y-19996550D01*
X23275892Y-19952723D01*
X23276845Y-19933242D01*
X23276845Y-19906045D01*
X22814692Y-19906045D01*
X22810869Y-19880553D01*
X22809483Y-19861926D01*
X22809491Y-19837337D01*
X22810887Y-19812028D01*
X22810941Y-19811409D01*
X22820917Y-19747270D01*
X22838579Y-19691228D01*
X22863774Y-19643435D01*
X22896346Y-19604042D01*
X22936139Y-19573202D01*
X22982998Y-19551066D01*
X23008370Y-19544800D01*
X22684178Y-19544800D01*
X22684178Y-20205200D01*
X22582578Y-20205200D01*
X22582578Y-19775455D01*
X22555767Y-19721223D01*
X22535091Y-19682637D01*
X22516114Y-19654363D01*
X22498178Y-19635671D01*
X22480625Y-19625833D01*
X22467871Y-19623822D01*
X22451434Y-19626129D01*
X22440431Y-19634790D01*
X22437364Y-19639088D01*
X22435061Y-19643315D01*
X22433125Y-19649026D01*
X22431516Y-19657200D01*
X22430195Y-19668817D01*
X22429122Y-19684854D01*
X22428258Y-19706291D01*
X22427564Y-19734108D01*
X22427000Y-19769282D01*
X22426528Y-19812793D01*
X22426108Y-19865621D01*
X22425700Y-19928744D01*
X22425694Y-19929777D01*
X22424032Y-20205200D01*
X22322933Y-20205200D01*
X22322933Y-19775257D01*
X22294015Y-19718959D01*
X22274228Y-19682608D01*
X22256928Y-19655969D01*
X22241172Y-19637998D01*
X22226018Y-19627651D01*
X22210524Y-19623884D01*
X22208097Y-19623822D01*
X22191667Y-19626177D01*
X22180629Y-19634993D01*
X22177719Y-19639089D01*
X22175417Y-19643315D01*
X22173481Y-19649022D01*
X22171873Y-19657189D01*
X22170554Y-19668796D01*
X22169483Y-19684820D01*
X22168623Y-19706243D01*
X22167934Y-19734042D01*
X22167376Y-19769196D01*
X22166912Y-19812685D01*
X22166500Y-19865488D01*
X22166103Y-19928584D01*
X22166096Y-19929778D01*
X22164482Y-20205200D01*
X22062619Y-20205200D01*
X22064440Y-19924389D01*
X22064865Y-19860814D01*
X22065273Y-19807498D01*
X22065714Y-19763411D01*
X22066235Y-19727522D01*
X22066882Y-19698802D01*
X22067705Y-19676221D01*
X22068751Y-19658748D01*
X22070066Y-19645355D01*
X22071700Y-19635010D01*
X22073699Y-19626684D01*
X22076111Y-19619347D01*
X22078873Y-19612243D01*
X22094692Y-19582649D01*
X22115324Y-19558339D01*
X22138374Y-19541982D01*
X22144090Y-19539502D01*
X22169672Y-19534178D01*
X22199069Y-19534440D01*
X22226636Y-19539988D01*
X22237615Y-19544468D01*
X22262838Y-19561989D01*
X22286356Y-19588352D01*
X22309070Y-19624628D01*
X22315452Y-19636793D01*
X22336062Y-19677445D01*
X22342881Y-19637650D01*
X22351812Y-19599712D01*
X22364501Y-19571593D01*
X22382011Y-19552153D01*
X22405404Y-19540250D01*
X22435743Y-19534740D01*
X22438870Y-19534518D01*
X22470631Y-19535929D01*
X22498430Y-19545074D01*
X22523420Y-19562807D01*
X22546751Y-19589977D01*
X22569574Y-19627437D01*
X22572791Y-19633544D01*
X22582299Y-19650666D01*
X22589204Y-19659429D01*
X22593920Y-19659257D01*
X22596864Y-19649574D01*
X22598451Y-19629804D01*
X22599095Y-19599369D01*
X22599115Y-19597011D01*
X22599511Y-19544800D01*
X22684178Y-19544800D01*
X23008370Y-19544800D01*
X23036767Y-19537787D01*
X23095314Y-19533511D01*
X23151362Y-19537920D01*
X23201494Y-19551514D01*
X23247065Y-19574846D01*
X23289432Y-19608466D01*
X23296526Y-19615357D01*
X23329776Y-19654455D01*
X23355834Y-19698896D01*
X23376008Y-19750994D01*
X23379386Y-19762309D01*
X23386802Y-19798265D01*
X23391199Y-19841303D01*
X23392533Y-19887614D01*
X23694533Y-19887614D01*
X23694533Y-19273867D01*
X24004978Y-19273867D01*
X24004978Y-19364178D01*
X23807422Y-19364178D01*
X23807422Y-20109245D01*
X24021911Y-20109245D01*
X24174972Y-20109245D01*
X24174887Y-20105926D01*
X24175218Y-20091439D01*
X24176847Y-20084291D01*
X24180133Y-20082514D01*
X24183959Y-20083543D01*
X24249831Y-20104832D01*
X24311147Y-20115998D01*
X24368242Y-20117090D01*
X24388266Y-20114965D01*
X24437876Y-20103965D01*
X24479031Y-20085969D01*
X24512161Y-20060514D01*
X24537695Y-20027136D01*
X24556061Y-19985372D01*
X24567689Y-19934759D01*
X24569782Y-19919062D01*
X24571662Y-19859768D01*
X24563868Y-19802146D01*
X24552092Y-19762345D01*
X24536026Y-19731433D01*
X24512145Y-19700510D01*
X24483449Y-19672813D01*
X24452934Y-19651581D01*
X24446318Y-19648119D01*
X24412459Y-19636519D01*
X24371626Y-19630451D01*
X24326625Y-19629810D01*
X24280263Y-19634489D01*
X24235346Y-19644382D01*
X24198842Y-19657492D01*
X24174311Y-19668343D01*
X24174311Y-19566802D01*
X24192656Y-19559232D01*
X24230918Y-19547410D01*
X24278115Y-19539959D01*
X24334951Y-19536778D01*
X24349289Y-19536641D01*
X24383234Y-19537001D01*
X24409263Y-19538492D01*
X24430726Y-19541487D01*
X24450969Y-19546357D01*
X24459356Y-19548877D01*
X24515955Y-19572027D01*
X24565012Y-19603427D01*
X24606231Y-19642669D01*
X24639315Y-19689346D01*
X24663969Y-19743051D01*
X24679897Y-19803377D01*
X24686437Y-19861148D01*
X24816068Y-19861148D01*
X24817439Y-19816765D01*
X24821765Y-19775993D01*
X24825491Y-19757034D01*
X24844410Y-19699533D01*
X24871122Y-19650130D01*
X24905299Y-19609081D01*
X24946613Y-19576640D01*
X24994739Y-19553062D01*
X25049348Y-19538602D01*
X25110114Y-19533516D01*
X25112197Y-19533511D01*
X25156565Y-19535208D01*
X25194400Y-19540906D01*
X25230027Y-19551520D01*
X25261817Y-19565093D01*
X25306557Y-19592357D01*
X25345899Y-19628474D01*
X25377970Y-19671573D01*
X25389425Y-19692530D01*
X25405945Y-19729249D01*
X25417431Y-19763050D01*
X25424628Y-19797463D01*
X25428283Y-19836022D01*
X25429149Y-19880645D01*
X25957956Y-19880645D01*
X25957956Y-19769704D01*
X25900100Y-19711830D01*
X25862391Y-19676655D01*
X25828679Y-19650987D01*
X25797810Y-19634291D01*
X25768625Y-19626031D01*
X25739969Y-19625670D01*
X25721781Y-19629227D01*
X25693169Y-19641458D01*
X25671339Y-19661287D01*
X25655867Y-19689380D01*
X25646327Y-19726408D01*
X25643343Y-19752234D01*
X25640237Y-19793156D01*
X25528978Y-19793156D01*
X25529175Y-19769167D01*
X25531365Y-19738390D01*
X25536870Y-19704193D01*
X25544774Y-19670807D01*
X25554160Y-19642467D01*
X25558869Y-19632005D01*
X25583524Y-19594795D01*
X25614920Y-19566539D01*
X25653218Y-19547138D01*
X25698579Y-19536496D01*
X25718835Y-19534664D01*
X25764701Y-19536124D01*
X25807607Y-19546133D01*
X25848958Y-19565323D01*
X25890156Y-19594327D01*
X25927794Y-19628871D01*
X25943627Y-19644451D01*
X25956490Y-19656364D01*
X25964338Y-19662746D01*
X25965591Y-19663334D01*
X25967091Y-19658078D01*
X25968292Y-19643867D01*
X25969052Y-19623031D01*
X25969245Y-19604067D01*
X25969245Y-19544800D01*
X26070845Y-19544800D01*
X26307672Y-19544800D01*
X26338337Y-19539959D01*
X26395173Y-19536778D01*
X26409511Y-19536641D01*
X26443456Y-19537001D01*
X26469486Y-19538492D01*
X26490948Y-19541487D01*
X26511191Y-19546357D01*
X26519578Y-19548877D01*
X26576177Y-19572027D01*
X26625234Y-19603427D01*
X26666453Y-19642669D01*
X26699537Y-19689346D01*
X26724192Y-19743051D01*
X26740119Y-19803377D01*
X26746659Y-19861148D01*
X27058622Y-19861148D01*
X27058622Y-19544800D01*
X27369067Y-19544800D01*
X27369067Y-19635111D01*
X27171511Y-19635111D01*
X27171511Y-20109245D01*
X27386000Y-20109245D01*
X27510130Y-20109245D01*
X27511329Y-19924389D01*
X27511753Y-19860814D01*
X27512162Y-19807498D01*
X27512603Y-19763411D01*
X27513123Y-19727522D01*
X27513771Y-19698802D01*
X27514594Y-19676221D01*
X27515639Y-19658748D01*
X27516955Y-19645355D01*
X27518589Y-19635010D01*
X27520587Y-19626684D01*
X27522999Y-19619347D01*
X27525762Y-19612243D01*
X27541581Y-19582649D01*
X27562213Y-19558339D01*
X27585263Y-19541982D01*
X27590979Y-19539502D01*
X27616561Y-19534178D01*
X27645958Y-19534440D01*
X27673525Y-19539988D01*
X27684504Y-19544468D01*
X27709727Y-19561989D01*
X27733245Y-19588352D01*
X27755959Y-19624628D01*
X27762341Y-19636793D01*
X27782951Y-19677445D01*
X27789770Y-19637650D01*
X27798701Y-19599712D01*
X27811390Y-19571593D01*
X27828900Y-19552153D01*
X27852293Y-19540250D01*
X27882632Y-19534740D01*
X27885759Y-19534518D01*
X27917520Y-19535929D01*
X27945319Y-19545074D01*
X27970309Y-19562807D01*
X27993640Y-19589977D01*
X28016463Y-19627437D01*
X28019680Y-19633544D01*
X28029188Y-19650666D01*
X28036092Y-19659429D01*
X28040809Y-19659257D01*
X28043753Y-19649574D01*
X28045340Y-19629804D01*
X28045984Y-19599369D01*
X28046003Y-19597011D01*
X28046400Y-19544800D01*
X28131067Y-19544800D01*
X28622133Y-19544800D01*
X28622133Y-19362849D01*
X27219196Y-19362849D01*
X27216982Y-19374295D01*
X27206473Y-19396855D01*
X27189241Y-19417541D01*
X27168740Y-19432670D01*
X27158126Y-19437063D01*
X27141953Y-19441319D01*
X27130450Y-19442221D01*
X27117528Y-19439835D01*
X27109172Y-19437579D01*
X27087189Y-19426639D01*
X27067032Y-19408354D01*
X27052247Y-19386432D01*
X27047426Y-19373056D01*
X27046270Y-19344274D01*
X27054625Y-19316727D01*
X27070924Y-19293003D01*
X27093598Y-19275694D01*
X27110282Y-19269291D01*
X27139254Y-19267069D01*
X27166180Y-19274219D01*
X27189349Y-19289056D01*
X27207048Y-19309896D01*
X27217568Y-19335055D01*
X27219196Y-19362849D01*
X28622133Y-19362849D01*
X28622133Y-18507295D01*
X26414062Y-18507295D01*
X26411659Y-18527339D01*
X26402295Y-18553883D01*
X26386803Y-18585260D01*
X26366015Y-18619802D01*
X26340765Y-18655843D01*
X26338201Y-18659236D01*
X26321295Y-18679330D01*
X26297840Y-18704298D01*
X26270100Y-18731958D01*
X26240337Y-18760129D01*
X26210815Y-18786630D01*
X26183799Y-18809281D01*
X26176640Y-18814907D01*
X26129184Y-18846749D01*
X26073096Y-18876483D01*
X26010971Y-18903219D01*
X25945399Y-18926066D01*
X25878972Y-18944137D01*
X25814284Y-18956540D01*
X25753925Y-18962385D01*
X25746289Y-18962623D01*
X25730069Y-18962466D01*
X25705662Y-18961590D01*
X25676138Y-18960132D01*
X25644566Y-18958228D01*
X25638473Y-18957819D01*
X25603045Y-18954511D01*
X25563105Y-18949316D01*
X25521140Y-18942698D01*
X25479637Y-18935121D01*
X25441084Y-18927049D01*
X25407967Y-18918949D01*
X25382776Y-18911283D01*
X25376578Y-18908908D01*
X25356822Y-18900712D01*
X25364382Y-18894898D01*
X24788245Y-18894898D01*
X24783610Y-18904518D01*
X24783509Y-18904640D01*
X24770037Y-18915158D01*
X24747399Y-18926454D01*
X24717621Y-18937833D01*
X24682732Y-18948600D01*
X24644756Y-18958061D01*
X24606111Y-18965458D01*
X24591549Y-18966544D01*
X24568246Y-18966859D01*
X24538718Y-18966494D01*
X24505479Y-18965545D01*
X24471045Y-18964105D01*
X24437930Y-18962268D01*
X24408649Y-18960128D01*
X24385719Y-18957780D01*
X24380333Y-18957030D01*
X24327458Y-18945521D01*
X24269597Y-18926947D01*
X24209389Y-18902567D01*
X24149472Y-18873642D01*
X24092483Y-18841433D01*
X24041061Y-18807199D01*
X24002792Y-18776650D01*
X23973632Y-18748814D01*
X23940797Y-18714067D01*
X23906578Y-18675079D01*
X23873265Y-18634526D01*
X23843146Y-18595078D01*
X23824429Y-18568421D01*
X23804594Y-18538092D01*
X23786506Y-18509086D01*
X23771147Y-18483101D01*
X23759497Y-18461832D01*
X23752536Y-18446978D01*
X23750978Y-18441243D01*
X23755829Y-18439995D01*
X23767758Y-18441154D01*
X23770306Y-18441603D01*
X23783378Y-18443218D01*
X23789199Y-18439931D01*
X23791457Y-18429635D01*
X23791472Y-18429501D01*
X23793506Y-18419040D01*
X23797373Y-18418272D01*
X23801778Y-18422083D01*
X23811778Y-18430607D01*
X23826079Y-18441436D01*
X23830000Y-18444225D01*
X23842555Y-18453376D01*
X23861239Y-18467436D01*
X23883315Y-18484329D01*
X23901590Y-18498498D01*
X23937182Y-18525248D01*
X23973577Y-18550358D01*
X24012657Y-18574954D01*
X24056305Y-18600163D01*
X24106403Y-18627111D01*
X24164836Y-18656924D01*
X24174311Y-18661650D01*
X24214870Y-18681431D01*
X24255144Y-18700340D01*
X24293640Y-18717738D01*
X24328861Y-18732987D01*
X24359312Y-18745448D01*
X24383498Y-18754483D01*
X24399922Y-18759453D01*
X24405159Y-18760222D01*
X24412436Y-18761789D01*
X24428208Y-18766059D01*
X24450186Y-18772391D01*
X24476084Y-18780140D01*
X24477372Y-18780532D01*
X24508162Y-18789335D01*
X24545750Y-18799201D01*
X24585849Y-18809050D01*
X24624174Y-18817805D01*
X24632488Y-18819592D01*
X24668403Y-18827481D01*
X24695503Y-18834229D01*
X24716101Y-18840587D01*
X24732513Y-18847307D01*
X24747052Y-18855140D01*
X24752632Y-18858606D01*
X24773671Y-18873306D01*
X24785237Y-18884949D01*
X24788245Y-18894898D01*
X25364382Y-18894898D01*
X25370933Y-18889860D01*
X25382537Y-18882133D01*
X25390671Y-18878757D01*
X25390689Y-18878756D01*
X25390840Y-18875734D01*
X25383595Y-18868723D01*
X25382694Y-18868020D01*
X25373814Y-18860533D01*
X25373542Y-18856741D01*
X25379872Y-18854216D01*
X25388988Y-18852384D01*
X25407129Y-18849482D01*
X25432117Y-18845833D01*
X25461775Y-18841760D01*
X25481000Y-18839233D01*
X25531181Y-18832165D01*
X25577414Y-18824240D01*
X25622208Y-18814843D01*
X25668069Y-18803362D01*
X25717504Y-18789181D01*
X25773019Y-18771687D01*
X25818569Y-18756558D01*
X25918005Y-18720320D01*
X26010589Y-18680678D01*
X26099709Y-18635966D01*
X26188755Y-18584514D01*
X26257357Y-18540613D01*
X26288409Y-18520610D01*
X26312864Y-18506452D01*
X26332982Y-18496984D01*
X26351022Y-18491051D01*
X26357077Y-18489636D01*
X26382211Y-18485035D01*
X26398548Y-18484449D01*
X26408053Y-18488489D01*
X26412691Y-18497763D01*
X26414062Y-18507295D01*
X28622133Y-18507295D01*
X28622133Y-18477419D01*
X25116649Y-18477419D01*
X25116564Y-18513999D01*
X25115605Y-18545206D01*
X25113753Y-18569083D01*
X25110991Y-18583673D01*
X25110979Y-18583706D01*
X25099385Y-18602853D01*
X25079910Y-18621077D01*
X25055863Y-18635943D01*
X25030550Y-18645016D01*
X25026724Y-18645748D01*
X25015184Y-18648370D01*
X25010323Y-18650462D01*
X25004460Y-18649394D01*
X24992355Y-18643946D01*
X24985384Y-18640216D01*
X24962208Y-18620969D01*
X24946341Y-18598182D01*
X24935578Y-18575173D01*
X24923752Y-18543287D01*
X24911573Y-18504795D01*
X24899749Y-18461970D01*
X24888991Y-18417083D01*
X24887105Y-18408410D01*
X24884161Y-18392825D01*
X24881842Y-18375754D01*
X24880080Y-18355677D01*
X24878806Y-18331076D01*
X24877952Y-18300432D01*
X24877447Y-18262226D01*
X24877224Y-18214939D01*
X24877197Y-18190134D01*
X24877218Y-18141047D01*
X24877400Y-18101253D01*
X24877875Y-18068757D01*
X24878771Y-18041563D01*
X24880221Y-18017675D01*
X24882354Y-17995098D01*
X24885301Y-17971836D01*
X24889193Y-17945892D01*
X24894159Y-17915273D01*
X24895844Y-17905089D01*
X24902613Y-17865223D01*
X24909894Y-17824055D01*
X24917099Y-17784791D01*
X24923642Y-17750637D01*
X24928399Y-17727289D01*
X24935454Y-17693920D01*
X24943085Y-17657302D01*
X24950144Y-17622967D01*
X24953535Y-17606224D01*
X24959123Y-17581478D01*
X24965042Y-17560287D01*
X24970429Y-17545535D01*
X24973139Y-17540869D01*
X24979963Y-17529662D01*
X24981467Y-17523108D01*
X24984557Y-17513539D01*
X24991686Y-17504968D01*
X24999641Y-17500129D01*
X25005209Y-17501759D01*
X25005586Y-17502577D01*
X25008581Y-17503137D01*
X25012318Y-17494713D01*
X25012767Y-17493101D01*
X25018009Y-17479757D01*
X25025139Y-17468460D01*
X25031839Y-17462406D01*
X25034809Y-17462739D01*
X25036851Y-17469889D01*
X25039409Y-17486627D01*
X25042318Y-17511270D01*
X25045412Y-17542139D01*
X25048525Y-17577553D01*
X25051493Y-17615831D01*
X25054149Y-17655291D01*
X25054748Y-17665200D01*
X25057061Y-17700374D01*
X25060273Y-17743569D01*
X25064124Y-17791575D01*
X25068353Y-17841184D01*
X25072699Y-17889187D01*
X25074478Y-17907911D01*
X25078768Y-17953572D01*
X25083058Y-18001495D01*
X25087093Y-18048651D01*
X25090618Y-18092014D01*
X25093374Y-18128556D01*
X25094308Y-18142156D01*
X25097153Y-18182302D01*
X25100682Y-18227363D01*
X25104473Y-18272189D01*
X25108106Y-18311629D01*
X25108586Y-18316513D01*
X25111826Y-18355014D01*
X25114262Y-18395969D01*
X25115875Y-18437424D01*
X25116649Y-18477419D01*
X28622133Y-18477419D01*
X28622133Y-17323711D01*
X27343364Y-17323711D01*
X27342166Y-17386831D01*
X27338148Y-17442118D01*
X27330620Y-17492237D01*
X27318896Y-17539852D01*
X27302288Y-17587629D01*
X27280109Y-17638233D01*
X27251671Y-17694328D01*
X27244135Y-17708355D01*
X27208981Y-17767187D01*
X27169669Y-17820646D01*
X27123857Y-17871640D01*
X27076652Y-17916479D01*
X27045503Y-17943250D01*
X27012627Y-17969641D01*
X26979128Y-17994953D01*
X26946111Y-18018484D01*
X26914682Y-18039534D01*
X26885945Y-18057404D01*
X26861005Y-18071393D01*
X26840967Y-18080800D01*
X26826936Y-18084927D01*
X26820017Y-18083071D01*
X26819622Y-18079361D01*
X26822280Y-18063056D01*
X26822001Y-18055116D01*
X26817959Y-18052819D01*
X26811678Y-18053189D01*
X26801807Y-18052558D01*
X26798978Y-18050034D01*
X26802237Y-18044332D01*
X26804114Y-18041602D01*
X26426445Y-18041602D01*
X26426445Y-18069112D01*
X26423891Y-18094046D01*
X26417163Y-18120229D01*
X26407660Y-18143269D01*
X26398408Y-18157141D01*
X26382780Y-18166526D01*
X26359856Y-18170820D01*
X26332405Y-18170043D01*
X26303198Y-18164213D01*
X26281380Y-18156348D01*
X26242322Y-18136865D01*
X26198676Y-18111414D01*
X26153697Y-18082144D01*
X26110643Y-18051204D01*
X26072770Y-18020744D01*
X26063417Y-18012485D01*
X25999346Y-17952539D01*
X25940812Y-17893394D01*
X25886046Y-17832964D01*
X25833277Y-17769165D01*
X25780737Y-17699911D01*
X25726655Y-17623118D01*
X25702314Y-17587001D01*
X25682842Y-17557803D01*
X25661583Y-17525974D01*
X25641458Y-17495885D01*
X25628836Y-17477046D01*
X25611793Y-17449906D01*
X25596322Y-17422108D01*
X25583788Y-17396377D01*
X25575558Y-17375441D01*
X25573213Y-17366045D01*
X25573285Y-17353442D01*
X25576904Y-17346592D01*
X25580650Y-17346828D01*
X25584465Y-17347542D01*
X25582637Y-17343527D01*
X25578688Y-17332762D01*
X25576158Y-17319453D01*
X25574209Y-17302707D01*
X25589693Y-17312586D01*
X25606630Y-17324364D01*
X25628111Y-17341107D01*
X25655097Y-17363609D01*
X25688553Y-17392667D01*
X25715139Y-17416264D01*
X25735719Y-17434352D01*
X25763144Y-17458013D01*
X25795535Y-17485652D01*
X25831015Y-17515673D01*
X25867708Y-17546481D01*
X25901117Y-17574309D01*
X25936855Y-17604051D01*
X25972769Y-17634124D01*
X26007067Y-17663013D01*
X26037955Y-17689204D01*
X26063643Y-17711184D01*
X26081739Y-17726910D01*
X26105141Y-17747309D01*
X26134298Y-17772386D01*
X26166264Y-17799628D01*
X26198094Y-17826519D01*
X26214778Y-17840502D01*
X26246981Y-17868184D01*
X26282383Y-17899916D01*
X26317471Y-17932473D01*
X26348734Y-17962629D01*
X26360122Y-17974049D01*
X26426445Y-18041602D01*
X26804114Y-18041602D01*
X26811311Y-18031140D01*
X26825141Y-18011927D01*
X26842670Y-17988160D01*
X26862841Y-17961307D01*
X26863995Y-17959784D01*
X26886999Y-17928847D01*
X26909859Y-17897044D01*
X26930770Y-17866960D01*
X26947927Y-17841182D01*
X26957478Y-17825838D01*
X26970159Y-17803406D01*
X26986347Y-17773329D01*
X27004937Y-17737800D01*
X27024824Y-17699010D01*
X27044904Y-17659154D01*
X27064072Y-17620422D01*
X27081225Y-17585009D01*
X27095257Y-17555106D01*
X27105064Y-17532906D01*
X27105210Y-17532556D01*
X27118940Y-17496522D01*
X27133959Y-17452103D01*
X27149482Y-17402011D01*
X27164723Y-17348955D01*
X27178896Y-17295649D01*
X27191215Y-17244802D01*
X27198867Y-17209407D01*
X27206526Y-17173594D01*
X27213462Y-17146448D01*
X27220473Y-17125449D01*
X27228356Y-17108079D01*
X27234201Y-17097746D01*
X27249698Y-17073779D01*
X27261846Y-17059091D01*
X27271758Y-17052589D01*
X27279869Y-17052903D01*
X27290314Y-17062019D01*
X27301721Y-17081004D01*
X27313473Y-17108549D01*
X27324952Y-17143346D01*
X27328555Y-17156124D01*
X27333708Y-17175910D01*
X27337512Y-17193325D01*
X27340168Y-17210655D01*
X27341879Y-17230185D01*
X27342848Y-17254201D01*
X27343275Y-17284991D01*
X27343364Y-17323711D01*
X28622133Y-17323711D01*
X28622133Y-16829190D01*
X27030400Y-16829190D01*
X27025117Y-16849551D01*
X27010317Y-16870125D01*
X26987571Y-16889012D01*
X26974391Y-16896868D01*
X26952419Y-16906694D01*
X26922221Y-16917613D01*
X26886694Y-16928799D01*
X26848738Y-16939428D01*
X26811250Y-16948673D01*
X26777129Y-16955708D01*
X26756645Y-16958896D01*
X26730626Y-16961204D01*
X26695631Y-16962915D01*
X26653959Y-16964041D01*
X26607905Y-16964593D01*
X26559766Y-16964581D01*
X26511841Y-16964017D01*
X26466426Y-16962911D01*
X26425818Y-16961275D01*
X26392314Y-16959119D01*
X26372464Y-16957067D01*
X26338260Y-16952272D01*
X26299517Y-16946442D01*
X26258261Y-16939922D01*
X26216515Y-16933056D01*
X26176305Y-16926188D01*
X26139655Y-16919663D01*
X26108590Y-16913825D01*
X26085136Y-16909017D01*
X26073667Y-16906271D01*
X26054726Y-16901584D01*
X26029334Y-16895956D01*
X26002157Y-16890409D01*
X25994645Y-16888969D01*
X25969131Y-16883109D01*
X25943403Y-16875425D01*
X25919780Y-16866832D01*
X25900582Y-16858245D01*
X25888129Y-16850579D01*
X25884578Y-16845577D01*
X25879893Y-16841595D01*
X25874700Y-16840715D01*
X25868659Y-16839796D01*
X25872735Y-16836960D01*
X25876111Y-16835467D01*
X25887400Y-16830616D01*
X25876111Y-16830040D01*
X25864862Y-16827108D01*
X25853868Y-16821002D01*
X25846726Y-16814196D01*
X25846450Y-16809624D01*
X25853347Y-16805981D01*
X25867027Y-16802551D01*
X25888334Y-16799232D01*
X25918108Y-16795920D01*
X25957190Y-16792512D01*
X26006423Y-16788904D01*
X26026072Y-16787584D01*
X26071964Y-16784375D01*
X26125194Y-16780351D01*
X26181867Y-16775826D01*
X26238091Y-16771113D01*
X26289969Y-16766526D01*
X26292025Y-16766336D01*
X25715156Y-16766336D01*
X25713247Y-16779920D01*
X25705705Y-16798604D01*
X25692999Y-16824363D01*
X25682425Y-16846482D01*
X25673654Y-16866983D01*
X25668260Y-16882134D01*
X25667652Y-16884515D01*
X25657525Y-16909013D01*
X25637066Y-16937140D01*
X25606183Y-16969009D01*
X25576956Y-16994739D01*
X25554953Y-17013446D01*
X25534550Y-17031374D01*
X25518280Y-17046265D01*
X25509819Y-17054603D01*
X25499838Y-17066151D01*
X25496925Y-17073919D01*
X25500028Y-17081966D01*
X25501935Y-17084981D01*
X25507781Y-17098309D01*
X25512843Y-17117122D01*
X25514444Y-17126156D01*
X25517428Y-17145332D01*
X25520342Y-17161581D01*
X25521433Y-17166700D01*
X25519975Y-17176058D01*
X25510498Y-17185448D01*
X25492143Y-17195376D01*
X25464052Y-17206347D01*
X25441090Y-17213983D01*
X25420472Y-17221172D01*
X25403418Y-17228264D01*
X25393491Y-17233770D01*
X25393281Y-17233947D01*
X25374974Y-17243485D01*
X25347232Y-17249180D01*
X25311279Y-17250896D01*
X25268342Y-17248499D01*
X25264442Y-17248105D01*
X25235400Y-17245403D01*
X25206623Y-17243290D01*
X25182371Y-17242053D01*
X25172232Y-17241851D01*
X25153970Y-17242177D01*
X25143811Y-17244212D01*
X25138572Y-17249574D01*
X25135068Y-17259883D01*
X25134790Y-17260888D01*
X25128516Y-17275748D01*
X25117691Y-17294599D01*
X25107802Y-17309024D01*
X25095408Y-17324844D01*
X25086531Y-17333136D01*
X25078386Y-17335745D01*
X25069044Y-17334685D01*
X25056137Y-17330557D01*
X25036832Y-17322628D01*
X25014699Y-17312393D01*
X25008100Y-17309127D01*
X24987196Y-17299087D01*
X24969436Y-17291430D01*
X24957709Y-17287370D01*
X24955483Y-17287022D01*
X24939435Y-17282530D01*
X24918918Y-17269954D01*
X24895663Y-17250646D01*
X24871397Y-17225958D01*
X24859199Y-17211743D01*
X24845750Y-17195692D01*
X24535556Y-17195692D01*
X24531857Y-17203883D01*
X24521341Y-17219239D01*
X24504880Y-17240658D01*
X24483347Y-17267039D01*
X24457614Y-17297281D01*
X24432053Y-17326365D01*
X24412115Y-17349075D01*
X24386782Y-17378462D01*
X24357805Y-17412462D01*
X24326937Y-17449012D01*
X24295930Y-17486050D01*
X24273725Y-17512800D01*
X24243083Y-17549716D01*
X24210679Y-17588488D01*
X24178417Y-17626854D01*
X24148202Y-17662555D01*
X24121939Y-17693331D01*
X24107253Y-17710356D01*
X24080396Y-17741453D01*
X24051019Y-17775742D01*
X24022024Y-17809817D01*
X23996313Y-17840276D01*
X23986946Y-17851467D01*
X23966719Y-17874960D01*
X23943140Y-17901124D01*
X23917551Y-17928601D01*
X23891292Y-17956028D01*
X23865704Y-17982045D01*
X23842126Y-18005293D01*
X23821901Y-18024410D01*
X23806367Y-18038035D01*
X23796866Y-18044809D01*
X23796133Y-18045119D01*
X23788378Y-18047469D01*
X23780401Y-18048229D01*
X23769002Y-18047260D01*
X23750980Y-18044424D01*
X23741240Y-18042742D01*
X23708833Y-18033801D01*
X23686077Y-18019628D01*
X23676850Y-18005895D01*
X23355515Y-18005895D01*
X23355218Y-18023605D01*
X23351965Y-18034093D01*
X23351633Y-18034458D01*
X23341789Y-18037133D01*
X23324664Y-18034806D01*
X23302741Y-18028149D01*
X23278498Y-18017835D01*
X23265583Y-18011130D01*
X23219179Y-17983424D01*
X23177421Y-17953947D01*
X23138167Y-17920814D01*
X23099272Y-17882145D01*
X23058593Y-17836055D01*
X23038780Y-17811956D01*
X22998588Y-17754797D01*
X22962575Y-17688605D01*
X22931470Y-17615097D01*
X22906003Y-17535989D01*
X22887536Y-17456356D01*
X22884468Y-17432392D01*
X22882386Y-17399980D01*
X22881295Y-17361918D01*
X22881196Y-17321004D01*
X22882095Y-17280036D01*
X22883994Y-17241811D01*
X22886896Y-17209127D01*
X22887224Y-17206417D01*
X22892336Y-17170572D01*
X22898873Y-17132691D01*
X22906360Y-17094858D01*
X22914324Y-17059155D01*
X22922290Y-17027667D01*
X22929783Y-17002477D01*
X22936329Y-16985670D01*
X22938263Y-16982222D01*
X22942927Y-16977509D01*
X22946210Y-16982695D01*
X22947201Y-16986065D01*
X22954808Y-16998690D01*
X22966374Y-17002040D01*
X22977566Y-16996445D01*
X22981442Y-16993756D01*
X22984493Y-16994715D01*
X22987145Y-17000833D01*
X22989823Y-17013622D01*
X22992952Y-17034593D01*
X22996958Y-17065259D01*
X22996982Y-17065453D01*
X23004314Y-17120626D01*
X23011515Y-17168500D01*
X23019172Y-17211538D01*
X23027873Y-17252202D01*
X23038204Y-17292954D01*
X23050752Y-17336255D01*
X23066103Y-17384568D01*
X23084846Y-17440356D01*
X23089784Y-17454754D01*
X23131507Y-17565167D01*
X23178904Y-17669324D01*
X23233631Y-17770554D01*
X23297344Y-17872188D01*
X23297610Y-17872586D01*
X23314274Y-17898611D01*
X23329172Y-17923872D01*
X23340778Y-17945646D01*
X23347564Y-17961209D01*
X23347938Y-17962383D01*
X23353031Y-17984357D01*
X23355515Y-18005895D01*
X23676850Y-18005895D01*
X23672687Y-17999700D01*
X23668382Y-17973495D01*
X23672876Y-17940488D01*
X23677284Y-17924588D01*
X23687532Y-17898481D01*
X23703515Y-17866115D01*
X23723757Y-17829914D01*
X23746782Y-17792302D01*
X23771113Y-17755705D01*
X23795273Y-17722547D01*
X23815122Y-17698249D01*
X23849788Y-17660274D01*
X23889366Y-17619451D01*
X23931946Y-17577564D01*
X23975617Y-17536398D01*
X24018471Y-17497737D01*
X24058597Y-17463365D01*
X24094086Y-17435068D01*
X24106812Y-17425667D01*
X24168416Y-17381830D01*
X24225761Y-17341734D01*
X24278193Y-17305805D01*
X24325060Y-17274472D01*
X24365711Y-17248162D01*
X24399494Y-17227302D01*
X24425756Y-17212321D01*
X24443845Y-17203647D01*
X24446925Y-17202542D01*
X24471392Y-17195819D01*
X24487262Y-17194011D01*
X24493921Y-17197146D01*
X24493616Y-17200543D01*
X24493031Y-17205166D01*
X24498661Y-17202751D01*
X24503019Y-17199802D01*
X24515679Y-17193436D01*
X24527559Y-17191148D01*
X24534812Y-17193423D01*
X24535556Y-17195692D01*
X24845750Y-17195692D01*
X24828537Y-17175150D01*
X24803796Y-17147416D01*
X24785102Y-17128672D01*
X24772580Y-17119048D01*
X24768426Y-17117689D01*
X24758258Y-17120599D01*
X24748435Y-17125865D01*
X24736335Y-17130721D01*
X24717391Y-17135154D01*
X24698920Y-17137822D01*
X24680589Y-17139256D01*
X24667263Y-17138137D01*
X24657317Y-17132886D01*
X24649127Y-17121923D01*
X24641071Y-17103668D01*
X24631525Y-17076540D01*
X24629377Y-17070160D01*
X24621724Y-17048586D01*
X24614652Y-17030761D01*
X24609402Y-17019747D01*
X24608399Y-17018267D01*
X24603632Y-17008992D01*
X24597854Y-16992971D01*
X24594363Y-16981130D01*
X24591996Y-16971996D01*
X24590261Y-16963439D01*
X24589202Y-16953998D01*
X24588860Y-16942212D01*
X24589276Y-16926620D01*
X24590494Y-16905763D01*
X24592555Y-16878179D01*
X24595500Y-16842408D01*
X24599372Y-16796990D01*
X24599790Y-16792114D01*
X24599003Y-16771207D01*
X24592092Y-16759494D01*
X24581297Y-16756445D01*
X24571329Y-16753095D01*
X24555835Y-16744353D01*
X24537857Y-16732180D01*
X24520435Y-16718535D01*
X24514832Y-16713592D01*
X24508003Y-16705138D01*
X24505545Y-16694869D01*
X24507821Y-16680938D01*
X24515192Y-16661498D01*
X24521274Y-16648791D01*
X24376443Y-16648791D01*
X24376131Y-16652462D01*
X24367522Y-16655704D01*
X24348400Y-16659181D01*
X24319533Y-16662801D01*
X24281695Y-16666473D01*
X24235653Y-16670107D01*
X24213822Y-16671615D01*
X24182220Y-16673864D01*
X24141871Y-16676966D01*
X24095270Y-16680717D01*
X24044908Y-16684910D01*
X23993281Y-16689342D01*
X23942880Y-16693807D01*
X23934422Y-16694572D01*
X23882868Y-16699184D01*
X23828201Y-16703957D01*
X23773249Y-16708653D01*
X23720840Y-16713033D01*
X23673801Y-16716858D01*
X23634961Y-16719889D01*
X23632445Y-16720078D01*
X23596669Y-16722861D01*
X23564853Y-16725519D01*
X23538663Y-16727897D01*
X23519764Y-16729842D01*
X23509822Y-16731199D01*
X23508737Y-16731530D01*
X23502657Y-16732208D01*
X23486931Y-16732808D01*
X23463206Y-16733301D01*
X23433124Y-16733656D01*
X23398331Y-16733845D01*
X23381087Y-16733867D01*
X23340153Y-16733811D01*
X23308951Y-16733558D01*
X23285925Y-16732978D01*
X23269520Y-16731940D01*
X23258179Y-16730315D01*
X23250346Y-16727973D01*
X23244465Y-16724784D01*
X23240913Y-16722165D01*
X23226059Y-16706538D01*
X23211114Y-16684553D01*
X23198834Y-16660777D01*
X23192351Y-16641682D01*
X23193099Y-16619654D01*
X23204758Y-16598470D01*
X23226969Y-16578322D01*
X23259373Y-16559400D01*
X23301611Y-16541895D01*
X23353325Y-16525999D01*
X23414156Y-16511901D01*
X23448328Y-16505509D01*
X23474034Y-16502306D01*
X23508853Y-16499796D01*
X23550632Y-16497982D01*
X23597218Y-16496865D01*
X23646455Y-16496447D01*
X23696192Y-16496731D01*
X23744272Y-16497718D01*
X23788544Y-16499410D01*
X23826852Y-16501809D01*
X23857043Y-16504918D01*
X23858651Y-16505141D01*
X23916935Y-16513804D01*
X23975721Y-16523285D01*
X24033732Y-16533324D01*
X24089694Y-16543658D01*
X24142329Y-16554027D01*
X24190361Y-16564169D01*
X24232516Y-16573822D01*
X24267516Y-16582726D01*
X24294086Y-16590618D01*
X24310949Y-16597238D01*
X24312600Y-16598127D01*
X24333870Y-16610629D01*
X24346373Y-16618986D01*
X24351357Y-16624257D01*
X24350072Y-16627503D01*
X24348274Y-16628397D01*
X24345708Y-16630944D01*
X24351103Y-16631821D01*
X24361002Y-16634978D01*
X24370682Y-16641652D01*
X24376443Y-16648791D01*
X24521274Y-16648791D01*
X24528020Y-16634701D01*
X24531732Y-16627399D01*
X24541803Y-16606588D01*
X24550022Y-16587544D01*
X24554664Y-16574277D01*
X24554744Y-16573955D01*
X24561663Y-16555365D01*
X24574294Y-16535460D01*
X24593642Y-16513064D01*
X24620710Y-16487002D01*
X24652482Y-16459455D01*
X24675379Y-16439925D01*
X24695109Y-16422456D01*
X24710053Y-16408529D01*
X24718598Y-16399624D01*
X24719915Y-16397674D01*
X24719899Y-16387965D01*
X24716361Y-16372623D01*
X24714071Y-16365746D01*
X24708074Y-16344831D01*
X24703420Y-16320800D01*
X24702340Y-16312200D01*
X24701484Y-16296423D01*
X24703624Y-16284719D01*
X24710377Y-16275594D01*
X24723361Y-16267555D01*
X24744194Y-16259111D01*
X24769174Y-16250536D01*
X24793056Y-16241969D01*
X24815299Y-16232938D01*
X24831726Y-16225160D01*
X24833860Y-16223956D01*
X24848155Y-16217972D01*
X24868001Y-16214046D01*
X24894580Y-16212129D01*
X24929072Y-16212174D01*
X24972659Y-16214132D01*
X25010986Y-16216749D01*
X25039235Y-16218766D01*
X25058222Y-16219649D01*
X25069929Y-16219238D01*
X25076341Y-16217371D01*
X25079441Y-16213888D01*
X25080490Y-16211105D01*
X25096253Y-16176382D01*
X25119396Y-16144826D01*
X25122198Y-16141960D01*
X24650974Y-16141960D01*
X24650922Y-16150930D01*
X24643500Y-16151950D01*
X24628991Y-16145062D01*
X24607675Y-16130307D01*
X24591145Y-16117211D01*
X24570944Y-16100335D01*
X24545225Y-16078445D01*
X24516899Y-16054040D01*
X24488877Y-16029618D01*
X24480972Y-16022667D01*
X24456113Y-16001057D01*
X24424914Y-15974396D01*
X24389810Y-15944737D01*
X24353233Y-15914133D01*
X24317618Y-15884637D01*
X24306998Y-15875911D01*
X24272129Y-15847159D01*
X24235470Y-15816636D01*
X24199470Y-15786403D01*
X24166578Y-15758518D01*
X24139244Y-15735042D01*
X24132258Y-15728961D01*
X24103776Y-15704261D01*
X24073212Y-15678089D01*
X24043799Y-15653195D01*
X24018773Y-15632329D01*
X24013445Y-15627952D01*
X23992951Y-15610447D01*
X23966855Y-15587036D01*
X23937473Y-15559860D01*
X23907120Y-15531059D01*
X23879389Y-15504039D01*
X23796133Y-15421675D01*
X23796162Y-15410964D01*
X23422638Y-15410964D01*
X23418471Y-15419632D01*
X23407079Y-15435434D01*
X23406667Y-15435976D01*
X23392355Y-15454845D01*
X23377524Y-15474497D01*
X23373847Y-15479389D01*
X23362634Y-15494198D01*
X23347473Y-15514053D01*
X23331326Y-15535075D01*
X23328590Y-15538625D01*
X23312264Y-15560944D01*
X23293413Y-15588478D01*
X23275133Y-15616648D01*
X23267862Y-15628407D01*
X23252469Y-15654961D01*
X23234112Y-15688504D01*
X23213811Y-15726984D01*
X23192591Y-15768352D01*
X23171474Y-15810559D01*
X23151482Y-15851553D01*
X23133639Y-15889286D01*
X23118967Y-15921706D01*
X23108490Y-15946765D01*
X23106777Y-15951281D01*
X23089510Y-16001111D01*
X23071774Y-16057641D01*
X23054503Y-16117495D01*
X23038629Y-16177297D01*
X23025082Y-16233673D01*
X23014795Y-16283245D01*
X23014136Y-16286844D01*
X23007830Y-16316848D01*
X23000650Y-16339488D01*
X22991194Y-16358675D01*
X22984846Y-16368688D01*
X22969040Y-16391047D01*
X22957081Y-16404032D01*
X22947165Y-16408045D01*
X22937492Y-16403486D01*
X22926261Y-16390757D01*
X22920592Y-16382994D01*
X22914688Y-16371231D01*
X22907233Y-16351329D01*
X22899215Y-16326149D01*
X22892156Y-16300648D01*
X22885311Y-16272901D01*
X22880600Y-16250014D01*
X22877649Y-16228585D01*
X22876083Y-16205209D01*
X22875528Y-16176483D01*
X22875549Y-16149667D01*
X22877109Y-16083567D01*
X22881196Y-16026715D01*
X22887968Y-15977322D01*
X22892834Y-15952952D01*
X22902697Y-15918413D01*
X22917863Y-15877285D01*
X22937111Y-15832194D01*
X22959224Y-15785766D01*
X22982983Y-15740628D01*
X23007169Y-15699404D01*
X23018975Y-15681178D01*
X23046554Y-15645048D01*
X23082377Y-15605515D01*
X23124563Y-15564170D01*
X23171232Y-15522604D01*
X23220504Y-15482409D01*
X23270499Y-15445177D01*
X23319337Y-15412499D01*
X23365137Y-15385967D01*
X23371736Y-15382562D01*
X23401589Y-15367434D01*
X23398970Y-15390236D01*
X23397786Y-15404593D01*
X23399728Y-15410451D01*
X23406314Y-15410483D01*
X23409975Y-15409618D01*
X23419749Y-15408078D01*
X23422638Y-15410964D01*
X23796162Y-15410964D01*
X23796218Y-15390560D01*
X23800848Y-15349647D01*
X23814349Y-15315046D01*
X23820231Y-15305822D01*
X23826512Y-15298434D01*
X23834324Y-15294190D01*
X23846747Y-15292236D01*
X23866862Y-15291718D01*
X23871128Y-15291711D01*
X23890531Y-15292121D01*
X23906149Y-15294002D01*
X23921359Y-15298328D01*
X23939541Y-15306076D01*
X23964072Y-15318221D01*
X23965564Y-15318981D01*
X24011933Y-15343967D01*
X24054481Y-15370076D01*
X24095442Y-15398966D01*
X24137052Y-15432295D01*
X24181544Y-15471721D01*
X24218425Y-15506553D01*
X24285467Y-15573730D01*
X24344333Y-15637995D01*
X24394339Y-15698572D01*
X24427099Y-15743267D01*
X24441037Y-15763237D01*
X24458740Y-15788170D01*
X24477273Y-15813940D01*
X24485392Y-15825111D01*
X24503774Y-15850801D01*
X24523052Y-15878557D01*
X24540061Y-15903798D01*
X24545801Y-15912600D01*
X24561314Y-15936654D01*
X24579576Y-15964851D01*
X24597153Y-15991888D01*
X24600660Y-15997267D01*
X24614614Y-16019912D01*
X24626760Y-16041895D01*
X24635181Y-16059660D01*
X24637145Y-16065000D01*
X24642526Y-16080257D01*
X24647371Y-16090727D01*
X24648474Y-16092287D01*
X24650937Y-16100123D01*
X24649265Y-16109405D01*
X24644930Y-16115258D01*
X24641595Y-16115056D01*
X24639828Y-16116586D01*
X24643377Y-16124997D01*
X24650974Y-16141960D01*
X25122198Y-16141960D01*
X25129524Y-16134469D01*
X25139053Y-16128532D01*
X25150074Y-16127202D01*
X25164680Y-16130667D01*
X25184961Y-16139113D01*
X25213011Y-16152728D01*
X25214175Y-16153308D01*
X25235360Y-16163272D01*
X25253752Y-16170836D01*
X25266275Y-16174773D01*
X25268641Y-16175067D01*
X25282381Y-16179468D01*
X25301318Y-16191901D01*
X25324096Y-16211204D01*
X25349356Y-16236220D01*
X25375739Y-16265788D01*
X25377761Y-16268200D01*
X25396123Y-16289844D01*
X25413371Y-16309543D01*
X25427381Y-16324907D01*
X25435102Y-16332725D01*
X25445587Y-16341406D01*
X25453859Y-16343290D01*
X25465394Y-16339111D01*
X25469235Y-16337297D01*
X25485650Y-16331582D01*
X25507572Y-16326566D01*
X25523050Y-16324228D01*
X25541421Y-16322680D01*
X25554562Y-16324015D01*
X25564233Y-16329880D01*
X25572198Y-16341919D01*
X25580218Y-16361779D01*
X25588027Y-16384921D01*
X25596450Y-16408551D01*
X25605448Y-16430640D01*
X25613225Y-16446807D01*
X25613974Y-16448114D01*
X25621569Y-16464689D01*
X25626549Y-16485188D01*
X25629027Y-16511219D01*
X25629116Y-16544390D01*
X25626929Y-16586310D01*
X25625213Y-16608689D01*
X25622587Y-16644092D01*
X25621597Y-16669792D01*
X25622502Y-16687289D01*
X25625558Y-16698084D01*
X25631024Y-16703678D01*
X25639158Y-16705573D01*
X25641879Y-16705645D01*
X25650987Y-16708954D01*
X25665743Y-16717677D01*
X25683121Y-16730001D01*
X25684932Y-16731397D01*
X25701214Y-16744553D01*
X25711217Y-16755373D01*
X25715156Y-16766336D01*
X26292025Y-16766336D01*
X26304903Y-16765146D01*
X26386309Y-16757624D01*
X26457881Y-16751230D01*
X26521009Y-16745870D01*
X26577080Y-16741451D01*
X26627485Y-16737877D01*
X26673611Y-16735055D01*
X26716848Y-16732890D01*
X26758584Y-16731289D01*
X26800209Y-16730156D01*
X26828861Y-16729611D01*
X26968811Y-16727349D01*
X26988731Y-16748952D01*
X27004641Y-16769257D01*
X27018133Y-16791992D01*
X27027334Y-16813550D01*
X27030400Y-16829190D01*
X28622133Y-16829190D01*
X28622133Y-16117883D01*
X27341132Y-16117883D01*
X27338911Y-16190773D01*
X27331547Y-16267372D01*
X27319123Y-16345609D01*
X27314897Y-16366813D01*
X27305303Y-16410143D01*
X27296757Y-16442604D01*
X27289089Y-16464552D01*
X27282130Y-16476341D01*
X27275708Y-16478326D01*
X27269655Y-16470863D01*
X27267467Y-16465756D01*
X27260608Y-16454103D01*
X27253604Y-16452741D01*
X27248492Y-16460111D01*
X27243286Y-16468234D01*
X27238250Y-16465136D01*
X27233422Y-16450886D01*
X27228839Y-16425550D01*
X27228737Y-16424834D01*
X27225264Y-16400246D01*
X27220927Y-16369166D01*
X27216379Y-16336286D01*
X27213620Y-16316178D01*
X27208421Y-16282943D01*
X27201728Y-16246876D01*
X27194597Y-16213443D01*
X27190737Y-16197645D01*
X27181417Y-16164272D01*
X27169414Y-16124789D01*
X27155434Y-16081213D01*
X27140179Y-16035565D01*
X27124354Y-15989861D01*
X27108662Y-15946123D01*
X27093806Y-15906367D01*
X27080492Y-15872613D01*
X27069421Y-15846879D01*
X27065892Y-15839510D01*
X27032326Y-15774414D01*
X26998380Y-15712225D01*
X26965375Y-15655279D01*
X26934637Y-15605910D01*
X26926567Y-15593689D01*
X26902134Y-15555247D01*
X26884785Y-15522885D01*
X26873699Y-15494627D01*
X26869764Y-15476415D01*
X26552235Y-15476415D01*
X26552127Y-15502453D01*
X26544669Y-15533841D01*
X26529701Y-15571142D01*
X26507062Y-15614918D01*
X26476592Y-15665730D01*
X26457769Y-15694865D01*
X26442671Y-15716509D01*
X26425081Y-15739117D01*
X26403792Y-15764060D01*
X26377595Y-15792707D01*
X26345283Y-15826429D01*
X26312328Y-15859885D01*
X26281152Y-15890827D01*
X26250131Y-15920839D01*
X26220856Y-15948440D01*
X26194915Y-15972149D01*
X26173900Y-15990484D01*
X26161156Y-16000695D01*
X26106024Y-16041052D01*
X26052013Y-16079815D01*
X26000057Y-16116360D01*
X25951088Y-16150065D01*
X25906042Y-16180306D01*
X25865853Y-16206459D01*
X25831454Y-16227901D01*
X25803780Y-16244009D01*
X25783765Y-16254158D01*
X25777926Y-16256475D01*
X25757562Y-16261064D01*
X25736643Y-16262499D01*
X25736188Y-16262481D01*
X25721701Y-16262917D01*
X25712856Y-16265190D01*
X25712088Y-16265920D01*
X25705013Y-16269386D01*
X25694925Y-16268705D01*
X25687751Y-16264688D01*
X25687022Y-16262483D01*
X25690806Y-16254369D01*
X25701790Y-16238724D01*
X25719430Y-16216225D01*
X25743178Y-16187551D01*
X25772487Y-16153379D01*
X25803046Y-16118622D01*
X25823096Y-16095701D01*
X25848485Y-16066144D01*
X25877423Y-16032068D01*
X25908116Y-15995590D01*
X25938775Y-15958825D01*
X25958328Y-15935178D01*
X25987735Y-15899639D01*
X26018140Y-15863177D01*
X26047808Y-15827856D01*
X26075002Y-15795737D01*
X26097986Y-15768883D01*
X26110433Y-15754556D01*
X26135440Y-15725798D01*
X26164207Y-15692316D01*
X26193322Y-15658102D01*
X26219373Y-15627149D01*
X26221390Y-15624734D01*
X26247693Y-15594112D01*
X26276226Y-15562482D01*
X26305742Y-15531075D01*
X26334996Y-15501120D01*
X26362744Y-15473849D01*
X26387740Y-15450492D01*
X26408739Y-15432280D01*
X26424497Y-15420443D01*
X26432057Y-15416510D01*
X26450943Y-15414670D01*
X26475180Y-15417288D01*
X26500234Y-15423374D01*
X26521569Y-15431936D01*
X26531044Y-15438142D01*
X26545154Y-15455166D01*
X26552235Y-15476415D01*
X26869764Y-15476415D01*
X26868053Y-15468497D01*
X26866896Y-15450433D01*
X26866711Y-15422888D01*
X26891809Y-15425716D01*
X26920898Y-15433168D01*
X26954976Y-15448924D01*
X26992720Y-15471931D01*
X27032806Y-15501135D01*
X27073911Y-15535483D01*
X27114710Y-15573920D01*
X27153881Y-15615393D01*
X27190099Y-15658848D01*
X27198530Y-15669889D01*
X27228861Y-15716248D01*
X27257595Y-15771527D01*
X27283771Y-15833371D01*
X27306430Y-15899430D01*
X27324611Y-15967351D01*
X27329815Y-15991507D01*
X27338127Y-16050770D01*
X27341132Y-16117883D01*
X28622133Y-16117883D01*
X28622133Y-15259260D01*
X25343454Y-15259260D01*
X25343322Y-15309857D01*
X25342695Y-15356879D01*
X25341624Y-15398629D01*
X25340158Y-15433412D01*
X25338348Y-15459530D01*
X25337234Y-15469511D01*
X25332879Y-15499509D01*
X25327334Y-15535408D01*
X25320951Y-15575150D01*
X25314080Y-15616677D01*
X25307074Y-15657929D01*
X25300282Y-15696849D01*
X25294056Y-15731378D01*
X25288747Y-15759457D01*
X25284705Y-15779027D01*
X25283829Y-15782778D01*
X25278825Y-15803906D01*
X25272538Y-15831360D01*
X25266040Y-15860426D01*
X25263573Y-15871678D01*
X25258037Y-15894848D01*
X25252719Y-15913204D01*
X25248355Y-15924394D01*
X25246349Y-15926711D01*
X25241700Y-15931289D01*
X25241111Y-15935178D01*
X25238545Y-15942696D01*
X25236373Y-15943645D01*
X25230846Y-15948205D01*
X25225060Y-15958074D01*
X25218640Y-15967356D01*
X25212865Y-15969030D01*
X25208481Y-15970815D01*
X25207245Y-15977511D01*
X25205123Y-15985523D01*
X25201600Y-15985978D01*
X25196399Y-15986425D01*
X25195956Y-15988467D01*
X25192404Y-15994221D01*
X25191086Y-15994445D01*
X25187949Y-15989306D01*
X25184157Y-15975741D01*
X25180462Y-15956523D01*
X25179993Y-15953522D01*
X25177041Y-15930167D01*
X25174081Y-15900082D01*
X25171530Y-15867820D01*
X25170282Y-15847689D01*
X25168764Y-15823682D01*
X25166361Y-15790871D01*
X25163269Y-15751692D01*
X25159683Y-15708577D01*
X25155801Y-15663961D01*
X25153016Y-15633200D01*
X25148908Y-15588098D01*
X25144792Y-15541992D01*
X25140896Y-15497517D01*
X25137451Y-15457310D01*
X25134685Y-15424006D01*
X25133369Y-15407422D01*
X25131040Y-15377891D01*
X25127989Y-15340248D01*
X25124474Y-15297628D01*
X25120754Y-15253165D01*
X25117089Y-15209994D01*
X25116572Y-15203970D01*
X25113145Y-15159009D01*
X25110158Y-15110165D01*
X25107792Y-15061191D01*
X25106228Y-15015839D01*
X25105645Y-14977862D01*
X25105645Y-14877237D01*
X25122223Y-14858355D01*
X25142183Y-14840625D01*
X25167522Y-14824894D01*
X25193199Y-14814082D01*
X25202621Y-14811756D01*
X25221752Y-14813573D01*
X25242147Y-14824174D01*
X25261075Y-14841781D01*
X25271610Y-14856666D01*
X25286268Y-14886943D01*
X25301018Y-14927656D01*
X25315585Y-14977958D01*
X25328294Y-15030660D01*
X25332621Y-15050676D01*
X25336015Y-15068436D01*
X25338593Y-15085709D01*
X25340472Y-15104263D01*
X25341771Y-15125868D01*
X25342605Y-15152292D01*
X25343093Y-15185305D01*
X25343352Y-15226676D01*
X25343454Y-15259260D01*
X28622133Y-15259260D01*
X28622133Y-15020908D01*
X26470112Y-15020908D01*
X26469798Y-15021639D01*
X26464012Y-15021405D01*
X26451445Y-15019120D01*
X26448390Y-15018450D01*
X26435288Y-15016044D01*
X26430280Y-15017931D01*
X26430544Y-15025523D01*
X26430862Y-15027228D01*
X26431360Y-15037341D01*
X26429329Y-15040534D01*
X26423745Y-15037301D01*
X26410623Y-15028302D01*
X26391425Y-15014581D01*
X26367614Y-14997186D01*
X26340653Y-14977163D01*
X26338831Y-14975798D01*
X26302620Y-14949014D01*
X26270102Y-14925873D01*
X26239335Y-14905217D01*
X26208377Y-14885887D01*
X26175286Y-14866724D01*
X26138120Y-14846568D01*
X26094937Y-14824261D01*
X26043795Y-14798645D01*
X26033037Y-14793318D01*
X25940738Y-14750509D01*
X25849592Y-14714285D01*
X25756324Y-14683534D01*
X25657659Y-14657145D01*
X25581907Y-14640319D01*
X25548195Y-14633081D01*
X25523085Y-14626796D01*
X25504036Y-14620612D01*
X25488506Y-14613676D01*
X25473953Y-14605136D01*
X25470828Y-14603089D01*
X25448692Y-14586808D01*
X25436846Y-14573473D01*
X25435085Y-14561871D01*
X25435299Y-14561578D01*
X24862933Y-14561578D01*
X24858671Y-14566315D01*
X24857692Y-14566400D01*
X24849922Y-14570006D01*
X24843313Y-14575538D01*
X24837226Y-14583367D01*
X24839466Y-14590265D01*
X24843269Y-14594723D01*
X24847296Y-14600104D01*
X24846220Y-14603734D01*
X24838215Y-14606627D01*
X24821453Y-14609800D01*
X24813903Y-14611047D01*
X24792180Y-14614382D01*
X24763397Y-14618510D01*
X24731697Y-14622850D01*
X24707774Y-14625985D01*
X24672294Y-14631322D01*
X24632362Y-14638571D01*
X24594069Y-14646579D01*
X24575129Y-14651087D01*
X24545338Y-14659252D01*
X24508429Y-14670340D01*
X24466646Y-14683586D01*
X24422235Y-14698226D01*
X24377437Y-14713495D01*
X24334498Y-14728628D01*
X24295661Y-14742860D01*
X24263171Y-14755426D01*
X24239323Y-14765539D01*
X24200746Y-14784255D01*
X24155940Y-14807615D01*
X24107990Y-14833886D01*
X24059980Y-14861334D01*
X24014996Y-14888224D01*
X23976122Y-14912821D01*
X23969396Y-14917283D01*
X23934513Y-14939725D01*
X23906478Y-14955581D01*
X23883655Y-14965719D01*
X23870618Y-14969708D01*
X23844285Y-14975464D01*
X23826529Y-14977580D01*
X23815260Y-14976114D01*
X23808606Y-14971389D01*
X23805394Y-14959277D01*
X23808461Y-14940062D01*
X23816960Y-14915397D01*
X23830044Y-14886933D01*
X23846865Y-14856324D01*
X23866576Y-14825222D01*
X23888332Y-14795279D01*
X23911283Y-14768149D01*
X23914588Y-14764623D01*
X23940925Y-14738124D01*
X23971003Y-14709827D01*
X24002490Y-14681761D01*
X24033054Y-14655954D01*
X24060363Y-14634433D01*
X24080804Y-14620040D01*
X24116747Y-14599697D01*
X24160961Y-14578824D01*
X24210544Y-14558533D01*
X24262600Y-14539935D01*
X24314228Y-14524144D01*
X24360578Y-14512683D01*
X24419083Y-14503840D01*
X24485183Y-14500101D01*
X24556487Y-14501298D01*
X24630605Y-14507267D01*
X24705149Y-14517842D01*
X24777729Y-14532857D01*
X24822011Y-14544709D01*
X24841567Y-14551056D01*
X24856036Y-14556876D01*
X24862753Y-14561072D01*
X24862933Y-14561578D01*
X25435299Y-14561578D01*
X25443204Y-14550789D01*
X25460095Y-14539518D01*
X25474415Y-14533094D01*
X25496286Y-14525167D01*
X25522296Y-14516917D01*
X25540267Y-14511815D01*
X25563347Y-14505830D01*
X25582923Y-14501567D01*
X25601758Y-14498750D01*
X25622613Y-14497101D01*
X25648253Y-14496343D01*
X25681439Y-14496200D01*
X25695489Y-14496244D01*
X25731371Y-14496796D01*
X25767130Y-14498054D01*
X25799608Y-14499860D01*
X25825651Y-14502055D01*
X25835888Y-14503339D01*
X25892557Y-14515561D01*
X25953852Y-14535300D01*
X26017228Y-14561358D01*
X26080137Y-14592537D01*
X26140032Y-14627639D01*
X26194367Y-14665465D01*
X26214415Y-14681456D01*
X26238767Y-14703742D01*
X26267466Y-14733221D01*
X26298605Y-14767686D01*
X26330281Y-14804931D01*
X26360587Y-14842748D01*
X26387617Y-14878933D01*
X26398878Y-14895086D01*
X26417215Y-14922961D01*
X26434233Y-14950335D01*
X26448982Y-14975512D01*
X26460511Y-14996797D01*
X26467872Y-15012494D01*
X26470112Y-15020908D01*
X28622133Y-15020908D01*
X28622133Y-14150122D01*
X25938916Y-14150122D01*
X25938770Y-14158410D01*
X25932638Y-14159240D01*
X25922576Y-14153078D01*
X25913971Y-14144478D01*
X25906172Y-14136746D01*
X25903196Y-14136645D01*
X25903524Y-14138366D01*
X25902390Y-14147747D01*
X25898821Y-14150702D01*
X25894049Y-14156776D01*
X25893504Y-14170907D01*
X25894236Y-14177980D01*
X25897274Y-14202334D01*
X25881048Y-14179444D01*
X25875635Y-14171700D01*
X25121537Y-14171700D01*
X25119012Y-14175928D01*
X25111062Y-14180431D01*
X25096698Y-14185583D01*
X25074934Y-14191758D01*
X25044783Y-14199330D01*
X25005258Y-14208671D01*
X24972538Y-14216221D01*
X24908118Y-14230090D01*
X24845516Y-14241815D01*
X24787446Y-14250937D01*
X24736623Y-14256999D01*
X24724645Y-14258039D01*
X24702472Y-14259026D01*
X24671479Y-14259357D01*
X24633949Y-14259106D01*
X24592168Y-14258342D01*
X24548421Y-14257136D01*
X24504993Y-14255560D01*
X24464169Y-14253684D01*
X24428234Y-14251579D01*
X24399474Y-14249316D01*
X24383156Y-14247439D01*
X24336066Y-14238967D01*
X24296056Y-14227928D01*
X24258986Y-14212981D01*
X24228868Y-14197421D01*
X24159747Y-14153101D01*
X24091945Y-14098513D01*
X24026401Y-14034670D01*
X23964059Y-13962588D01*
X23905859Y-13883280D01*
X23852743Y-13797760D01*
X23844845Y-13783686D01*
X23809861Y-13713987D01*
X23784631Y-13648761D01*
X23768912Y-13587229D01*
X23762465Y-13528613D01*
X23762267Y-13516601D01*
X23762713Y-13498570D01*
X23765399Y-13486400D01*
X23772349Y-13477703D01*
X23785587Y-13470090D01*
X23807136Y-13461171D01*
X23810245Y-13459951D01*
X23828322Y-13452309D01*
X23841911Y-13445530D01*
X23847653Y-13441470D01*
X23855365Y-13437267D01*
X23867409Y-13434970D01*
X23883234Y-13432439D01*
X23893880Y-13429202D01*
X23905856Y-13428342D01*
X23910531Y-13431117D01*
X23921452Y-13436716D01*
X23927189Y-13437511D01*
X23935409Y-13442374D01*
X23947745Y-13456120D01*
X23963365Y-13477483D01*
X23981441Y-13505198D01*
X24001139Y-13538001D01*
X24021631Y-13574627D01*
X24039126Y-13607966D01*
X24087369Y-13695523D01*
X24138179Y-13773175D01*
X24192579Y-13842197D01*
X24251593Y-13903869D01*
X24316244Y-13959466D01*
X24328144Y-13968613D01*
X24361106Y-13992096D01*
X24393979Y-14012197D01*
X24428082Y-14029275D01*
X24464732Y-14043691D01*
X24505247Y-14055805D01*
X24550947Y-14065976D01*
X24603148Y-14074563D01*
X24663170Y-14081928D01*
X24732330Y-14088429D01*
X24781089Y-14092236D01*
X24815925Y-14095388D01*
X24852496Y-14099693D01*
X24886477Y-14104587D01*
X24913544Y-14109506D01*
X24913733Y-14109547D01*
X24941383Y-14115381D01*
X24968953Y-14121028D01*
X24991847Y-14125551D01*
X24998400Y-14126787D01*
X25027563Y-14132998D01*
X25056631Y-14140615D01*
X25082777Y-14148767D01*
X25103174Y-14156578D01*
X25114254Y-14162576D01*
X25119621Y-14167374D01*
X25121537Y-14171700D01*
X25875635Y-14171700D01*
X25871064Y-14165162D01*
X25856873Y-14144610D01*
X25840594Y-14120866D01*
X25828581Y-14103244D01*
X25812669Y-14079969D01*
X25797921Y-14058810D01*
X25783593Y-14038873D01*
X25768937Y-14019264D01*
X25753205Y-13999089D01*
X25735653Y-13977453D01*
X25715532Y-13953462D01*
X25692095Y-13926223D01*
X25678067Y-13910212D01*
X24919378Y-13910212D01*
X24915280Y-13910907D01*
X24912322Y-13909925D01*
X24903486Y-13906347D01*
X24887986Y-13900145D01*
X24874222Y-13894666D01*
X24819885Y-13872033D01*
X24756878Y-13843892D01*
X24686131Y-13810668D01*
X24617400Y-13777165D01*
X24584614Y-13761014D01*
X24554508Y-13746329D01*
X24528818Y-13733945D01*
X24509281Y-13724697D01*
X24497633Y-13719422D01*
X24496045Y-13718779D01*
X24481404Y-13712357D01*
X24460147Y-13701814D01*
X24433923Y-13688085D01*
X24404379Y-13672103D01*
X24373166Y-13654802D01*
X24341932Y-13637118D01*
X24312325Y-13619983D01*
X24285995Y-13604333D01*
X24264590Y-13591101D01*
X24249760Y-13581222D01*
X24243152Y-13575629D01*
X24243048Y-13575439D01*
X24240920Y-13562078D01*
X24245258Y-13550396D01*
X24254289Y-13544809D01*
X24255376Y-13544756D01*
X24264372Y-13542435D01*
X24279123Y-13536546D01*
X24287417Y-13532718D01*
X24312332Y-13520681D01*
X24374555Y-13553589D01*
X24429129Y-13582934D01*
X24475546Y-13609027D01*
X24515982Y-13633166D01*
X24552612Y-13656648D01*
X24586356Y-13679875D01*
X24632365Y-13712561D01*
X24670353Y-13739492D01*
X24701484Y-13761478D01*
X24726919Y-13779330D01*
X24747822Y-13793859D01*
X24765354Y-13805874D01*
X24780679Y-13816187D01*
X24794959Y-13825608D01*
X24801398Y-13829800D01*
X24842881Y-13856852D01*
X24875086Y-13878153D01*
X24898318Y-13893911D01*
X24912885Y-13904336D01*
X24919094Y-13909638D01*
X24919378Y-13910212D01*
X25678067Y-13910212D01*
X25664597Y-13894840D01*
X25632290Y-13858419D01*
X25625538Y-13850866D01*
X25224178Y-13850866D01*
X25219261Y-13853888D01*
X25207383Y-13855199D01*
X25206911Y-13855200D01*
X25195628Y-13856729D01*
X25193022Y-13860651D01*
X25193133Y-13860845D01*
X25195297Y-13868313D01*
X25188615Y-13869221D01*
X25173336Y-13863693D01*
X25149710Y-13851856D01*
X25117984Y-13833837D01*
X25078409Y-13809761D01*
X25031233Y-13779756D01*
X25023800Y-13774936D01*
X24999773Y-13759874D01*
X24970790Y-13742764D01*
X24935783Y-13723015D01*
X24893685Y-13700032D01*
X24843428Y-13673223D01*
X24792378Y-13646399D01*
X24761660Y-13630221D01*
X24731151Y-13613936D01*
X24703766Y-13599114D01*
X24682422Y-13587325D01*
X24676667Y-13584063D01*
X24656338Y-13572804D01*
X24629641Y-13558574D01*
X24600347Y-13543359D01*
X24577293Y-13531674D01*
X24508848Y-13499174D01*
X24443628Y-13472111D01*
X24379294Y-13449854D01*
X24313505Y-13431774D01*
X24243922Y-13417239D01*
X24168205Y-13405619D01*
X24084014Y-13396285D01*
X24069889Y-13394987D01*
X24010634Y-13390303D01*
X23960838Y-13387874D01*
X23918880Y-13387790D01*
X23883139Y-13390139D01*
X23851996Y-13395010D01*
X23823829Y-13402490D01*
X23804624Y-13409486D01*
X23777381Y-13419846D01*
X23747956Y-13430041D01*
X23722363Y-13437994D01*
X23720576Y-13438495D01*
X23681660Y-13449279D01*
X23668572Y-13436984D01*
X23657878Y-13420426D01*
X23651482Y-13396916D01*
X23650148Y-13370225D01*
X23651942Y-13355059D01*
X23662119Y-13330551D01*
X23683241Y-13306123D01*
X23714962Y-13282004D01*
X23756939Y-13258424D01*
X23808828Y-13235611D01*
X23858029Y-13217806D01*
X23896192Y-13206198D01*
X23932150Y-13197980D01*
X23968822Y-13192812D01*
X24009128Y-13190353D01*
X24055986Y-13190263D01*
X24086822Y-13191144D01*
X24203917Y-13199977D01*
X24316427Y-13217963D01*
X24425586Y-13245487D01*
X24532627Y-13282929D01*
X24638784Y-13330672D01*
X24745290Y-13389099D01*
X24766227Y-13401784D01*
X24807225Y-13427691D01*
X24843263Y-13452221D01*
X24876676Y-13477240D01*
X24909798Y-13504614D01*
X24944964Y-13536209D01*
X24984510Y-13573891D01*
X24997584Y-13586668D01*
X25030882Y-13620062D01*
X25064317Y-13654881D01*
X25096944Y-13690025D01*
X25127819Y-13724393D01*
X25156000Y-13756887D01*
X25180541Y-13786404D01*
X25200500Y-13811845D01*
X25214933Y-13832110D01*
X25222896Y-13846097D01*
X25224178Y-13850866D01*
X25625538Y-13850866D01*
X25594427Y-13816068D01*
X25550262Y-13766890D01*
X25514290Y-13726918D01*
X25443897Y-13651070D01*
X25376955Y-13584056D01*
X25311872Y-13524610D01*
X25247053Y-13471467D01*
X25180905Y-13423360D01*
X25111837Y-13379025D01*
X25038254Y-13337195D01*
X24995956Y-13315140D01*
X24963712Y-13298561D01*
X24931213Y-13281445D01*
X24901449Y-13265394D01*
X24877409Y-13252008D01*
X24868956Y-13247104D01*
X24845484Y-13233702D01*
X24816187Y-13217706D01*
X24785396Y-13201452D01*
X24765640Y-13191356D01*
X24731098Y-13172558D01*
X24706014Y-13155090D01*
X24688924Y-13137429D01*
X24678362Y-13118050D01*
X24672865Y-13095428D01*
X24672759Y-13094648D01*
X24671843Y-13083844D01*
X24673199Y-13075150D01*
X24678119Y-13067859D01*
X24687891Y-13061268D01*
X24703806Y-13054671D01*
X24727153Y-13047363D01*
X24759224Y-13038638D01*
X24789556Y-13030797D01*
X24822931Y-13026296D01*
X24863493Y-13028195D01*
X24911783Y-13036576D01*
X24968342Y-13051517D01*
X25002076Y-13062197D01*
X25046785Y-13078463D01*
X25089932Y-13097358D01*
X25134282Y-13120267D01*
X25182603Y-13148575D01*
X25213805Y-13168184D01*
X25320928Y-13242600D01*
X25422994Y-13324961D01*
X25518680Y-13413985D01*
X25606661Y-13508392D01*
X25685615Y-13606900D01*
X25725334Y-13663289D01*
X25762644Y-13723045D01*
X25799445Y-13789590D01*
X25834526Y-13860253D01*
X25866679Y-13932364D01*
X25894695Y-14003253D01*
X25917365Y-14070249D01*
X25929764Y-14114845D01*
X25934216Y-14132476D01*
X25937956Y-14146682D01*
X25938916Y-14150122D01*
X28622133Y-14150122D01*
X28622133Y-12856134D01*
X21572222Y-12856134D01*
X21572222Y-20543867D01*
G37*
X21572222Y-20543867D02*
X28622133Y-20543867D01*
X28622133Y-19544800D01*
X28131067Y-19544800D01*
X28131067Y-20205200D01*
X28029467Y-20205200D01*
X28029467Y-19775455D01*
X28002656Y-19721223D01*
X27981980Y-19682637D01*
X27963003Y-19654363D01*
X27945067Y-19635671D01*
X27927514Y-19625833D01*
X27914760Y-19623822D01*
X27898323Y-19626129D01*
X27887320Y-19634790D01*
X27884253Y-19639088D01*
X27881950Y-19643315D01*
X27880014Y-19649026D01*
X27878405Y-19657200D01*
X27877083Y-19668817D01*
X27876011Y-19684854D01*
X27875147Y-19706291D01*
X27874453Y-19734108D01*
X27873889Y-19769282D01*
X27873417Y-19812793D01*
X27872997Y-19865621D01*
X27872589Y-19928744D01*
X27872583Y-19929777D01*
X27870920Y-20205200D01*
X27769822Y-20205200D01*
X27769822Y-19775257D01*
X27740904Y-19718959D01*
X27721117Y-19682608D01*
X27703816Y-19655969D01*
X27688061Y-19637998D01*
X27672907Y-19627651D01*
X27657413Y-19623884D01*
X27654986Y-19623822D01*
X27638556Y-19626177D01*
X27627518Y-19634993D01*
X27624608Y-19639089D01*
X27622306Y-19643315D01*
X27620370Y-19649022D01*
X27618762Y-19657189D01*
X27617443Y-19668796D01*
X27616372Y-19684820D01*
X27615512Y-19706243D01*
X27614823Y-19734042D01*
X27614265Y-19769196D01*
X27613800Y-19812685D01*
X27613389Y-19865488D01*
X27612992Y-19928584D01*
X27612985Y-19929778D01*
X27611370Y-20205200D01*
X27509508Y-20205200D01*
X27510130Y-20109245D01*
X27386000Y-20109245D01*
X27386000Y-20205200D01*
X26861067Y-20205200D01*
X26861067Y-20109245D01*
X27058622Y-20109245D01*
X27058622Y-19861148D01*
X26746659Y-19861148D01*
X26745684Y-19928221D01*
X26735869Y-19989220D01*
X26717491Y-20043730D01*
X26690827Y-20091337D01*
X26656153Y-20131628D01*
X26613747Y-20164189D01*
X26563883Y-20188604D01*
X26518974Y-20201958D01*
X26484279Y-20207124D01*
X26442413Y-20209324D01*
X26397057Y-20208696D01*
X26351893Y-20205381D01*
X26310602Y-20199517D01*
X26282511Y-20192992D01*
X26237356Y-20179800D01*
X26235715Y-20129719D01*
X26235109Y-20105926D01*
X26235440Y-20091439D01*
X26237069Y-20084291D01*
X26240355Y-20082514D01*
X26244181Y-20083543D01*
X26310053Y-20104832D01*
X26371370Y-20115998D01*
X26428464Y-20117090D01*
X26448488Y-20114965D01*
X26498098Y-20103965D01*
X26539253Y-20085969D01*
X26572383Y-20060514D01*
X26597917Y-20027136D01*
X26616283Y-19985372D01*
X26627912Y-19934759D01*
X26630004Y-19919062D01*
X26631884Y-19859768D01*
X26624091Y-19802146D01*
X26612314Y-19762345D01*
X26596248Y-19731433D01*
X26572368Y-19700510D01*
X26543671Y-19672813D01*
X26513156Y-19651581D01*
X26506540Y-19648119D01*
X26472681Y-19636519D01*
X26431848Y-19630451D01*
X26386848Y-19629810D01*
X26340486Y-19634489D01*
X26295568Y-19644382D01*
X26259064Y-19657492D01*
X26234533Y-19668343D01*
X26234533Y-19566802D01*
X26252878Y-19559232D01*
X26291140Y-19547410D01*
X26307672Y-19544800D01*
X26070845Y-19544800D01*
X26070845Y-20205200D01*
X25957956Y-20205200D01*
X25957956Y-19880645D01*
X25429149Y-19880645D01*
X25426149Y-19943111D01*
X25417409Y-19997139D01*
X25402421Y-20044299D01*
X25380673Y-20086156D01*
X25351657Y-20124278D01*
X25348957Y-20127268D01*
X25310983Y-20160650D01*
X25265227Y-20186762D01*
X25213095Y-20204897D01*
X25182397Y-20211185D01*
X25155134Y-20213444D01*
X25121614Y-20213254D01*
X25086545Y-20210853D01*
X25054635Y-20206479D01*
X25043556Y-20204171D01*
X24997875Y-20188334D01*
X24953547Y-20163702D01*
X24914461Y-20132482D01*
X24910911Y-20129003D01*
X24875063Y-20086525D01*
X24847979Y-20039167D01*
X24829324Y-19986007D01*
X24818763Y-19926122D01*
X24815902Y-19866534D01*
X24816068Y-19861148D01*
X24686437Y-19861148D01*
X24685461Y-19928221D01*
X24675646Y-19989220D01*
X24657269Y-20043730D01*
X24630605Y-20091337D01*
X24595931Y-20131628D01*
X24553524Y-20164189D01*
X24503661Y-20188604D01*
X24458752Y-20201958D01*
X24424057Y-20207124D01*
X24382191Y-20209324D01*
X24336835Y-20208696D01*
X24291670Y-20205381D01*
X24250380Y-20199517D01*
X24222289Y-20192992D01*
X24177133Y-20179800D01*
X24175493Y-20129719D01*
X24174972Y-20109245D01*
X24021911Y-20109245D01*
X24021911Y-20205200D01*
X23496978Y-20205200D01*
X23496978Y-20109245D01*
X23694533Y-20109245D01*
X23694533Y-19887614D01*
X23392533Y-19887614D01*
X23390759Y-19933392D01*
X23385834Y-19974828D01*
X23382068Y-19993169D01*
X23363579Y-20049318D01*
X23337595Y-20097106D01*
X23303970Y-20136661D01*
X23262557Y-20168113D01*
X23213207Y-20191591D01*
X23155774Y-20207225D01*
X23133543Y-20210894D01*
X23107706Y-20213001D01*
X23074101Y-20213557D01*
X23036125Y-20212670D01*
X22997176Y-20210449D01*
X22960652Y-20207005D01*
X22943822Y-20204779D01*
X22918556Y-20200674D01*
X22892420Y-20195912D01*
X22877500Y-20192888D01*
X22847867Y-20186470D01*
X22847867Y-20141555D01*
X22848015Y-20119286D01*
X22848892Y-20106184D01*
X22851150Y-20100128D01*
X22855439Y-20098995D01*
X22860567Y-20100152D01*
X22895707Y-20108031D01*
X22936520Y-20114196D01*
X22980374Y-20118529D01*
X23024636Y-20120906D01*
X23066676Y-20121206D01*
X23103862Y-20119309D01*
X23133561Y-20115093D01*
X23141489Y-20113109D01*
X23183737Y-20095305D01*
X23219250Y-20069103D01*
X23247080Y-20035764D01*
X23266277Y-19996550D01*
X23275892Y-19952723D01*
X23276845Y-19933242D01*
X23276845Y-19906045D01*
X22814692Y-19906045D01*
X22810869Y-19880553D01*
X22809483Y-19861926D01*
X22809491Y-19837337D01*
X22810887Y-19812028D01*
X22810941Y-19811409D01*
X22820917Y-19747270D01*
X22838579Y-19691228D01*
X22863774Y-19643435D01*
X22896346Y-19604042D01*
X22936139Y-19573202D01*
X22982998Y-19551066D01*
X23008370Y-19544800D01*
X22684178Y-19544800D01*
X22684178Y-20205200D01*
X22582578Y-20205200D01*
X22582578Y-19775455D01*
X22555767Y-19721223D01*
X22535091Y-19682637D01*
X22516114Y-19654363D01*
X22498178Y-19635671D01*
X22480625Y-19625833D01*
X22467871Y-19623822D01*
X22451434Y-19626129D01*
X22440431Y-19634790D01*
X22437364Y-19639088D01*
X22435061Y-19643315D01*
X22433125Y-19649026D01*
X22431516Y-19657200D01*
X22430195Y-19668817D01*
X22429122Y-19684854D01*
X22428258Y-19706291D01*
X22427564Y-19734108D01*
X22427000Y-19769282D01*
X22426528Y-19812793D01*
X22426108Y-19865621D01*
X22425700Y-19928744D01*
X22425694Y-19929777D01*
X22424032Y-20205200D01*
X22322933Y-20205200D01*
X22322933Y-19775257D01*
X22294015Y-19718959D01*
X22274228Y-19682608D01*
X22256928Y-19655969D01*
X22241172Y-19637998D01*
X22226018Y-19627651D01*
X22210524Y-19623884D01*
X22208097Y-19623822D01*
X22191667Y-19626177D01*
X22180629Y-19634993D01*
X22177719Y-19639089D01*
X22175417Y-19643315D01*
X22173481Y-19649022D01*
X22171873Y-19657189D01*
X22170554Y-19668796D01*
X22169483Y-19684820D01*
X22168623Y-19706243D01*
X22167934Y-19734042D01*
X22167376Y-19769196D01*
X22166912Y-19812685D01*
X22166500Y-19865488D01*
X22166103Y-19928584D01*
X22166096Y-19929778D01*
X22164482Y-20205200D01*
X22062619Y-20205200D01*
X22064440Y-19924389D01*
X22064865Y-19860814D01*
X22065273Y-19807498D01*
X22065714Y-19763411D01*
X22066235Y-19727522D01*
X22066882Y-19698802D01*
X22067705Y-19676221D01*
X22068751Y-19658748D01*
X22070066Y-19645355D01*
X22071700Y-19635010D01*
X22073699Y-19626684D01*
X22076111Y-19619347D01*
X22078873Y-19612243D01*
X22094692Y-19582649D01*
X22115324Y-19558339D01*
X22138374Y-19541982D01*
X22144090Y-19539502D01*
X22169672Y-19534178D01*
X22199069Y-19534440D01*
X22226636Y-19539988D01*
X22237615Y-19544468D01*
X22262838Y-19561989D01*
X22286356Y-19588352D01*
X22309070Y-19624628D01*
X22315452Y-19636793D01*
X22336062Y-19677445D01*
X22342881Y-19637650D01*
X22351812Y-19599712D01*
X22364501Y-19571593D01*
X22382011Y-19552153D01*
X22405404Y-19540250D01*
X22435743Y-19534740D01*
X22438870Y-19534518D01*
X22470631Y-19535929D01*
X22498430Y-19545074D01*
X22523420Y-19562807D01*
X22546751Y-19589977D01*
X22569574Y-19627437D01*
X22572791Y-19633544D01*
X22582299Y-19650666D01*
X22589204Y-19659429D01*
X22593920Y-19659257D01*
X22596864Y-19649574D01*
X22598451Y-19629804D01*
X22599095Y-19599369D01*
X22599115Y-19597011D01*
X22599511Y-19544800D01*
X22684178Y-19544800D01*
X23008370Y-19544800D01*
X23036767Y-19537787D01*
X23095314Y-19533511D01*
X23151362Y-19537920D01*
X23201494Y-19551514D01*
X23247065Y-19574846D01*
X23289432Y-19608466D01*
X23296526Y-19615357D01*
X23329776Y-19654455D01*
X23355834Y-19698896D01*
X23376008Y-19750994D01*
X23379386Y-19762309D01*
X23386802Y-19798265D01*
X23391199Y-19841303D01*
X23392533Y-19887614D01*
X23694533Y-19887614D01*
X23694533Y-19273867D01*
X24004978Y-19273867D01*
X24004978Y-19364178D01*
X23807422Y-19364178D01*
X23807422Y-20109245D01*
X24021911Y-20109245D01*
X24174972Y-20109245D01*
X24174887Y-20105926D01*
X24175218Y-20091439D01*
X24176847Y-20084291D01*
X24180133Y-20082514D01*
X24183959Y-20083543D01*
X24249831Y-20104832D01*
X24311147Y-20115998D01*
X24368242Y-20117090D01*
X24388266Y-20114965D01*
X24437876Y-20103965D01*
X24479031Y-20085969D01*
X24512161Y-20060514D01*
X24537695Y-20027136D01*
X24556061Y-19985372D01*
X24567689Y-19934759D01*
X24569782Y-19919062D01*
X24571662Y-19859768D01*
X24563868Y-19802146D01*
X24552092Y-19762345D01*
X24536026Y-19731433D01*
X24512145Y-19700510D01*
X24483449Y-19672813D01*
X24452934Y-19651581D01*
X24446318Y-19648119D01*
X24412459Y-19636519D01*
X24371626Y-19630451D01*
X24326625Y-19629810D01*
X24280263Y-19634489D01*
X24235346Y-19644382D01*
X24198842Y-19657492D01*
X24174311Y-19668343D01*
X24174311Y-19566802D01*
X24192656Y-19559232D01*
X24230918Y-19547410D01*
X24278115Y-19539959D01*
X24334951Y-19536778D01*
X24349289Y-19536641D01*
X24383234Y-19537001D01*
X24409263Y-19538492D01*
X24430726Y-19541487D01*
X24450969Y-19546357D01*
X24459356Y-19548877D01*
X24515955Y-19572027D01*
X24565012Y-19603427D01*
X24606231Y-19642669D01*
X24639315Y-19689346D01*
X24663969Y-19743051D01*
X24679897Y-19803377D01*
X24686437Y-19861148D01*
X24816068Y-19861148D01*
X24817439Y-19816765D01*
X24821765Y-19775993D01*
X24825491Y-19757034D01*
X24844410Y-19699533D01*
X24871122Y-19650130D01*
X24905299Y-19609081D01*
X24946613Y-19576640D01*
X24994739Y-19553062D01*
X25049348Y-19538602D01*
X25110114Y-19533516D01*
X25112197Y-19533511D01*
X25156565Y-19535208D01*
X25194400Y-19540906D01*
X25230027Y-19551520D01*
X25261817Y-19565093D01*
X25306557Y-19592357D01*
X25345899Y-19628474D01*
X25377970Y-19671573D01*
X25389425Y-19692530D01*
X25405945Y-19729249D01*
X25417431Y-19763050D01*
X25424628Y-19797463D01*
X25428283Y-19836022D01*
X25429149Y-19880645D01*
X25957956Y-19880645D01*
X25957956Y-19769704D01*
X25900100Y-19711830D01*
X25862391Y-19676655D01*
X25828679Y-19650987D01*
X25797810Y-19634291D01*
X25768625Y-19626031D01*
X25739969Y-19625670D01*
X25721781Y-19629227D01*
X25693169Y-19641458D01*
X25671339Y-19661287D01*
X25655867Y-19689380D01*
X25646327Y-19726408D01*
X25643343Y-19752234D01*
X25640237Y-19793156D01*
X25528978Y-19793156D01*
X25529175Y-19769167D01*
X25531365Y-19738390D01*
X25536870Y-19704193D01*
X25544774Y-19670807D01*
X25554160Y-19642467D01*
X25558869Y-19632005D01*
X25583524Y-19594795D01*
X25614920Y-19566539D01*
X25653218Y-19547138D01*
X25698579Y-19536496D01*
X25718835Y-19534664D01*
X25764701Y-19536124D01*
X25807607Y-19546133D01*
X25848958Y-19565323D01*
X25890156Y-19594327D01*
X25927794Y-19628871D01*
X25943627Y-19644451D01*
X25956490Y-19656364D01*
X25964338Y-19662746D01*
X25965591Y-19663334D01*
X25967091Y-19658078D01*
X25968292Y-19643867D01*
X25969052Y-19623031D01*
X25969245Y-19604067D01*
X25969245Y-19544800D01*
X26070845Y-19544800D01*
X26307672Y-19544800D01*
X26338337Y-19539959D01*
X26395173Y-19536778D01*
X26409511Y-19536641D01*
X26443456Y-19537001D01*
X26469486Y-19538492D01*
X26490948Y-19541487D01*
X26511191Y-19546357D01*
X26519578Y-19548877D01*
X26576177Y-19572027D01*
X26625234Y-19603427D01*
X26666453Y-19642669D01*
X26699537Y-19689346D01*
X26724192Y-19743051D01*
X26740119Y-19803377D01*
X26746659Y-19861148D01*
X27058622Y-19861148D01*
X27058622Y-19544800D01*
X27369067Y-19544800D01*
X27369067Y-19635111D01*
X27171511Y-19635111D01*
X27171511Y-20109245D01*
X27386000Y-20109245D01*
X27510130Y-20109245D01*
X27511329Y-19924389D01*
X27511753Y-19860814D01*
X27512162Y-19807498D01*
X27512603Y-19763411D01*
X27513123Y-19727522D01*
X27513771Y-19698802D01*
X27514594Y-19676221D01*
X27515639Y-19658748D01*
X27516955Y-19645355D01*
X27518589Y-19635010D01*
X27520587Y-19626684D01*
X27522999Y-19619347D01*
X27525762Y-19612243D01*
X27541581Y-19582649D01*
X27562213Y-19558339D01*
X27585263Y-19541982D01*
X27590979Y-19539502D01*
X27616561Y-19534178D01*
X27645958Y-19534440D01*
X27673525Y-19539988D01*
X27684504Y-19544468D01*
X27709727Y-19561989D01*
X27733245Y-19588352D01*
X27755959Y-19624628D01*
X27762341Y-19636793D01*
X27782951Y-19677445D01*
X27789770Y-19637650D01*
X27798701Y-19599712D01*
X27811390Y-19571593D01*
X27828900Y-19552153D01*
X27852293Y-19540250D01*
X27882632Y-19534740D01*
X27885759Y-19534518D01*
X27917520Y-19535929D01*
X27945319Y-19545074D01*
X27970309Y-19562807D01*
X27993640Y-19589977D01*
X28016463Y-19627437D01*
X28019680Y-19633544D01*
X28029188Y-19650666D01*
X28036092Y-19659429D01*
X28040809Y-19659257D01*
X28043753Y-19649574D01*
X28045340Y-19629804D01*
X28045984Y-19599369D01*
X28046003Y-19597011D01*
X28046400Y-19544800D01*
X28131067Y-19544800D01*
X28622133Y-19544800D01*
X28622133Y-19362849D01*
X27219196Y-19362849D01*
X27216982Y-19374295D01*
X27206473Y-19396855D01*
X27189241Y-19417541D01*
X27168740Y-19432670D01*
X27158126Y-19437063D01*
X27141953Y-19441319D01*
X27130450Y-19442221D01*
X27117528Y-19439835D01*
X27109172Y-19437579D01*
X27087189Y-19426639D01*
X27067032Y-19408354D01*
X27052247Y-19386432D01*
X27047426Y-19373056D01*
X27046270Y-19344274D01*
X27054625Y-19316727D01*
X27070924Y-19293003D01*
X27093598Y-19275694D01*
X27110282Y-19269291D01*
X27139254Y-19267069D01*
X27166180Y-19274219D01*
X27189349Y-19289056D01*
X27207048Y-19309896D01*
X27217568Y-19335055D01*
X27219196Y-19362849D01*
X28622133Y-19362849D01*
X28622133Y-18507295D01*
X26414062Y-18507295D01*
X26411659Y-18527339D01*
X26402295Y-18553883D01*
X26386803Y-18585260D01*
X26366015Y-18619802D01*
X26340765Y-18655843D01*
X26338201Y-18659236D01*
X26321295Y-18679330D01*
X26297840Y-18704298D01*
X26270100Y-18731958D01*
X26240337Y-18760129D01*
X26210815Y-18786630D01*
X26183799Y-18809281D01*
X26176640Y-18814907D01*
X26129184Y-18846749D01*
X26073096Y-18876483D01*
X26010971Y-18903219D01*
X25945399Y-18926066D01*
X25878972Y-18944137D01*
X25814284Y-18956540D01*
X25753925Y-18962385D01*
X25746289Y-18962623D01*
X25730069Y-18962466D01*
X25705662Y-18961590D01*
X25676138Y-18960132D01*
X25644566Y-18958228D01*
X25638473Y-18957819D01*
X25603045Y-18954511D01*
X25563105Y-18949316D01*
X25521140Y-18942698D01*
X25479637Y-18935121D01*
X25441084Y-18927049D01*
X25407967Y-18918949D01*
X25382776Y-18911283D01*
X25376578Y-18908908D01*
X25356822Y-18900712D01*
X25364382Y-18894898D01*
X24788245Y-18894898D01*
X24783610Y-18904518D01*
X24783509Y-18904640D01*
X24770037Y-18915158D01*
X24747399Y-18926454D01*
X24717621Y-18937833D01*
X24682732Y-18948600D01*
X24644756Y-18958061D01*
X24606111Y-18965458D01*
X24591549Y-18966544D01*
X24568246Y-18966859D01*
X24538718Y-18966494D01*
X24505479Y-18965545D01*
X24471045Y-18964105D01*
X24437930Y-18962268D01*
X24408649Y-18960128D01*
X24385719Y-18957780D01*
X24380333Y-18957030D01*
X24327458Y-18945521D01*
X24269597Y-18926947D01*
X24209389Y-18902567D01*
X24149472Y-18873642D01*
X24092483Y-18841433D01*
X24041061Y-18807199D01*
X24002792Y-18776650D01*
X23973632Y-18748814D01*
X23940797Y-18714067D01*
X23906578Y-18675079D01*
X23873265Y-18634526D01*
X23843146Y-18595078D01*
X23824429Y-18568421D01*
X23804594Y-18538092D01*
X23786506Y-18509086D01*
X23771147Y-18483101D01*
X23759497Y-18461832D01*
X23752536Y-18446978D01*
X23750978Y-18441243D01*
X23755829Y-18439995D01*
X23767758Y-18441154D01*
X23770306Y-18441603D01*
X23783378Y-18443218D01*
X23789199Y-18439931D01*
X23791457Y-18429635D01*
X23791472Y-18429501D01*
X23793506Y-18419040D01*
X23797373Y-18418272D01*
X23801778Y-18422083D01*
X23811778Y-18430607D01*
X23826079Y-18441436D01*
X23830000Y-18444225D01*
X23842555Y-18453376D01*
X23861239Y-18467436D01*
X23883315Y-18484329D01*
X23901590Y-18498498D01*
X23937182Y-18525248D01*
X23973577Y-18550358D01*
X24012657Y-18574954D01*
X24056305Y-18600163D01*
X24106403Y-18627111D01*
X24164836Y-18656924D01*
X24174311Y-18661650D01*
X24214870Y-18681431D01*
X24255144Y-18700340D01*
X24293640Y-18717738D01*
X24328861Y-18732987D01*
X24359312Y-18745448D01*
X24383498Y-18754483D01*
X24399922Y-18759453D01*
X24405159Y-18760222D01*
X24412436Y-18761789D01*
X24428208Y-18766059D01*
X24450186Y-18772391D01*
X24476084Y-18780140D01*
X24477372Y-18780532D01*
X24508162Y-18789335D01*
X24545750Y-18799201D01*
X24585849Y-18809050D01*
X24624174Y-18817805D01*
X24632488Y-18819592D01*
X24668403Y-18827481D01*
X24695503Y-18834229D01*
X24716101Y-18840587D01*
X24732513Y-18847307D01*
X24747052Y-18855140D01*
X24752632Y-18858606D01*
X24773671Y-18873306D01*
X24785237Y-18884949D01*
X24788245Y-18894898D01*
X25364382Y-18894898D01*
X25370933Y-18889860D01*
X25382537Y-18882133D01*
X25390671Y-18878757D01*
X25390689Y-18878756D01*
X25390840Y-18875734D01*
X25383595Y-18868723D01*
X25382694Y-18868020D01*
X25373814Y-18860533D01*
X25373542Y-18856741D01*
X25379872Y-18854216D01*
X25388988Y-18852384D01*
X25407129Y-18849482D01*
X25432117Y-18845833D01*
X25461775Y-18841760D01*
X25481000Y-18839233D01*
X25531181Y-18832165D01*
X25577414Y-18824240D01*
X25622208Y-18814843D01*
X25668069Y-18803362D01*
X25717504Y-18789181D01*
X25773019Y-18771687D01*
X25818569Y-18756558D01*
X25918005Y-18720320D01*
X26010589Y-18680678D01*
X26099709Y-18635966D01*
X26188755Y-18584514D01*
X26257357Y-18540613D01*
X26288409Y-18520610D01*
X26312864Y-18506452D01*
X26332982Y-18496984D01*
X26351022Y-18491051D01*
X26357077Y-18489636D01*
X26382211Y-18485035D01*
X26398548Y-18484449D01*
X26408053Y-18488489D01*
X26412691Y-18497763D01*
X26414062Y-18507295D01*
X28622133Y-18507295D01*
X28622133Y-18477419D01*
X25116649Y-18477419D01*
X25116564Y-18513999D01*
X25115605Y-18545206D01*
X25113753Y-18569083D01*
X25110991Y-18583673D01*
X25110979Y-18583706D01*
X25099385Y-18602853D01*
X25079910Y-18621077D01*
X25055863Y-18635943D01*
X25030550Y-18645016D01*
X25026724Y-18645748D01*
X25015184Y-18648370D01*
X25010323Y-18650462D01*
X25004460Y-18649394D01*
X24992355Y-18643946D01*
X24985384Y-18640216D01*
X24962208Y-18620969D01*
X24946341Y-18598182D01*
X24935578Y-18575173D01*
X24923752Y-18543287D01*
X24911573Y-18504795D01*
X24899749Y-18461970D01*
X24888991Y-18417083D01*
X24887105Y-18408410D01*
X24884161Y-18392825D01*
X24881842Y-18375754D01*
X24880080Y-18355677D01*
X24878806Y-18331076D01*
X24877952Y-18300432D01*
X24877447Y-18262226D01*
X24877224Y-18214939D01*
X24877197Y-18190134D01*
X24877218Y-18141047D01*
X24877400Y-18101253D01*
X24877875Y-18068757D01*
X24878771Y-18041563D01*
X24880221Y-18017675D01*
X24882354Y-17995098D01*
X24885301Y-17971836D01*
X24889193Y-17945892D01*
X24894159Y-17915273D01*
X24895844Y-17905089D01*
X24902613Y-17865223D01*
X24909894Y-17824055D01*
X24917099Y-17784791D01*
X24923642Y-17750637D01*
X24928399Y-17727289D01*
X24935454Y-17693920D01*
X24943085Y-17657302D01*
X24950144Y-17622967D01*
X24953535Y-17606224D01*
X24959123Y-17581478D01*
X24965042Y-17560287D01*
X24970429Y-17545535D01*
X24973139Y-17540869D01*
X24979963Y-17529662D01*
X24981467Y-17523108D01*
X24984557Y-17513539D01*
X24991686Y-17504968D01*
X24999641Y-17500129D01*
X25005209Y-17501759D01*
X25005586Y-17502577D01*
X25008581Y-17503137D01*
X25012318Y-17494713D01*
X25012767Y-17493101D01*
X25018009Y-17479757D01*
X25025139Y-17468460D01*
X25031839Y-17462406D01*
X25034809Y-17462739D01*
X25036851Y-17469889D01*
X25039409Y-17486627D01*
X25042318Y-17511270D01*
X25045412Y-17542139D01*
X25048525Y-17577553D01*
X25051493Y-17615831D01*
X25054149Y-17655291D01*
X25054748Y-17665200D01*
X25057061Y-17700374D01*
X25060273Y-17743569D01*
X25064124Y-17791575D01*
X25068353Y-17841184D01*
X25072699Y-17889187D01*
X25074478Y-17907911D01*
X25078768Y-17953572D01*
X25083058Y-18001495D01*
X25087093Y-18048651D01*
X25090618Y-18092014D01*
X25093374Y-18128556D01*
X25094308Y-18142156D01*
X25097153Y-18182302D01*
X25100682Y-18227363D01*
X25104473Y-18272189D01*
X25108106Y-18311629D01*
X25108586Y-18316513D01*
X25111826Y-18355014D01*
X25114262Y-18395969D01*
X25115875Y-18437424D01*
X25116649Y-18477419D01*
X28622133Y-18477419D01*
X28622133Y-17323711D01*
X27343364Y-17323711D01*
X27342166Y-17386831D01*
X27338148Y-17442118D01*
X27330620Y-17492237D01*
X27318896Y-17539852D01*
X27302288Y-17587629D01*
X27280109Y-17638233D01*
X27251671Y-17694328D01*
X27244135Y-17708355D01*
X27208981Y-17767187D01*
X27169669Y-17820646D01*
X27123857Y-17871640D01*
X27076652Y-17916479D01*
X27045503Y-17943250D01*
X27012627Y-17969641D01*
X26979128Y-17994953D01*
X26946111Y-18018484D01*
X26914682Y-18039534D01*
X26885945Y-18057404D01*
X26861005Y-18071393D01*
X26840967Y-18080800D01*
X26826936Y-18084927D01*
X26820017Y-18083071D01*
X26819622Y-18079361D01*
X26822280Y-18063056D01*
X26822001Y-18055116D01*
X26817959Y-18052819D01*
X26811678Y-18053189D01*
X26801807Y-18052558D01*
X26798978Y-18050034D01*
X26802237Y-18044332D01*
X26804114Y-18041602D01*
X26426445Y-18041602D01*
X26426445Y-18069112D01*
X26423891Y-18094046D01*
X26417163Y-18120229D01*
X26407660Y-18143269D01*
X26398408Y-18157141D01*
X26382780Y-18166526D01*
X26359856Y-18170820D01*
X26332405Y-18170043D01*
X26303198Y-18164213D01*
X26281380Y-18156348D01*
X26242322Y-18136865D01*
X26198676Y-18111414D01*
X26153697Y-18082144D01*
X26110643Y-18051204D01*
X26072770Y-18020744D01*
X26063417Y-18012485D01*
X25999346Y-17952539D01*
X25940812Y-17893394D01*
X25886046Y-17832964D01*
X25833277Y-17769165D01*
X25780737Y-17699911D01*
X25726655Y-17623118D01*
X25702314Y-17587001D01*
X25682842Y-17557803D01*
X25661583Y-17525974D01*
X25641458Y-17495885D01*
X25628836Y-17477046D01*
X25611793Y-17449906D01*
X25596322Y-17422108D01*
X25583788Y-17396377D01*
X25575558Y-17375441D01*
X25573213Y-17366045D01*
X25573285Y-17353442D01*
X25576904Y-17346592D01*
X25580650Y-17346828D01*
X25584465Y-17347542D01*
X25582637Y-17343527D01*
X25578688Y-17332762D01*
X25576158Y-17319453D01*
X25574209Y-17302707D01*
X25589693Y-17312586D01*
X25606630Y-17324364D01*
X25628111Y-17341107D01*
X25655097Y-17363609D01*
X25688553Y-17392667D01*
X25715139Y-17416264D01*
X25735719Y-17434352D01*
X25763144Y-17458013D01*
X25795535Y-17485652D01*
X25831015Y-17515673D01*
X25867708Y-17546481D01*
X25901117Y-17574309D01*
X25936855Y-17604051D01*
X25972769Y-17634124D01*
X26007067Y-17663013D01*
X26037955Y-17689204D01*
X26063643Y-17711184D01*
X26081739Y-17726910D01*
X26105141Y-17747309D01*
X26134298Y-17772386D01*
X26166264Y-17799628D01*
X26198094Y-17826519D01*
X26214778Y-17840502D01*
X26246981Y-17868184D01*
X26282383Y-17899916D01*
X26317471Y-17932473D01*
X26348734Y-17962629D01*
X26360122Y-17974049D01*
X26426445Y-18041602D01*
X26804114Y-18041602D01*
X26811311Y-18031140D01*
X26825141Y-18011927D01*
X26842670Y-17988160D01*
X26862841Y-17961307D01*
X26863995Y-17959784D01*
X26886999Y-17928847D01*
X26909859Y-17897044D01*
X26930770Y-17866960D01*
X26947927Y-17841182D01*
X26957478Y-17825838D01*
X26970159Y-17803406D01*
X26986347Y-17773329D01*
X27004937Y-17737800D01*
X27024824Y-17699010D01*
X27044904Y-17659154D01*
X27064072Y-17620422D01*
X27081225Y-17585009D01*
X27095257Y-17555106D01*
X27105064Y-17532906D01*
X27105210Y-17532556D01*
X27118940Y-17496522D01*
X27133959Y-17452103D01*
X27149482Y-17402011D01*
X27164723Y-17348955D01*
X27178896Y-17295649D01*
X27191215Y-17244802D01*
X27198867Y-17209407D01*
X27206526Y-17173594D01*
X27213462Y-17146448D01*
X27220473Y-17125449D01*
X27228356Y-17108079D01*
X27234201Y-17097746D01*
X27249698Y-17073779D01*
X27261846Y-17059091D01*
X27271758Y-17052589D01*
X27279869Y-17052903D01*
X27290314Y-17062019D01*
X27301721Y-17081004D01*
X27313473Y-17108549D01*
X27324952Y-17143346D01*
X27328555Y-17156124D01*
X27333708Y-17175910D01*
X27337512Y-17193325D01*
X27340168Y-17210655D01*
X27341879Y-17230185D01*
X27342848Y-17254201D01*
X27343275Y-17284991D01*
X27343364Y-17323711D01*
X28622133Y-17323711D01*
X28622133Y-16829190D01*
X27030400Y-16829190D01*
X27025117Y-16849551D01*
X27010317Y-16870125D01*
X26987571Y-16889012D01*
X26974391Y-16896868D01*
X26952419Y-16906694D01*
X26922221Y-16917613D01*
X26886694Y-16928799D01*
X26848738Y-16939428D01*
X26811250Y-16948673D01*
X26777129Y-16955708D01*
X26756645Y-16958896D01*
X26730626Y-16961204D01*
X26695631Y-16962915D01*
X26653959Y-16964041D01*
X26607905Y-16964593D01*
X26559766Y-16964581D01*
X26511841Y-16964017D01*
X26466426Y-16962911D01*
X26425818Y-16961275D01*
X26392314Y-16959119D01*
X26372464Y-16957067D01*
X26338260Y-16952272D01*
X26299517Y-16946442D01*
X26258261Y-16939922D01*
X26216515Y-16933056D01*
X26176305Y-16926188D01*
X26139655Y-16919663D01*
X26108590Y-16913825D01*
X26085136Y-16909017D01*
X26073667Y-16906271D01*
X26054726Y-16901584D01*
X26029334Y-16895956D01*
X26002157Y-16890409D01*
X25994645Y-16888969D01*
X25969131Y-16883109D01*
X25943403Y-16875425D01*
X25919780Y-16866832D01*
X25900582Y-16858245D01*
X25888129Y-16850579D01*
X25884578Y-16845577D01*
X25879893Y-16841595D01*
X25874700Y-16840715D01*
X25868659Y-16839796D01*
X25872735Y-16836960D01*
X25876111Y-16835467D01*
X25887400Y-16830616D01*
X25876111Y-16830040D01*
X25864862Y-16827108D01*
X25853868Y-16821002D01*
X25846726Y-16814196D01*
X25846450Y-16809624D01*
X25853347Y-16805981D01*
X25867027Y-16802551D01*
X25888334Y-16799232D01*
X25918108Y-16795920D01*
X25957190Y-16792512D01*
X26006423Y-16788904D01*
X26026072Y-16787584D01*
X26071964Y-16784375D01*
X26125194Y-16780351D01*
X26181867Y-16775826D01*
X26238091Y-16771113D01*
X26289969Y-16766526D01*
X26292025Y-16766336D01*
X25715156Y-16766336D01*
X25713247Y-16779920D01*
X25705705Y-16798604D01*
X25692999Y-16824363D01*
X25682425Y-16846482D01*
X25673654Y-16866983D01*
X25668260Y-16882134D01*
X25667652Y-16884515D01*
X25657525Y-16909013D01*
X25637066Y-16937140D01*
X25606183Y-16969009D01*
X25576956Y-16994739D01*
X25554953Y-17013446D01*
X25534550Y-17031374D01*
X25518280Y-17046265D01*
X25509819Y-17054603D01*
X25499838Y-17066151D01*
X25496925Y-17073919D01*
X25500028Y-17081966D01*
X25501935Y-17084981D01*
X25507781Y-17098309D01*
X25512843Y-17117122D01*
X25514444Y-17126156D01*
X25517428Y-17145332D01*
X25520342Y-17161581D01*
X25521433Y-17166700D01*
X25519975Y-17176058D01*
X25510498Y-17185448D01*
X25492143Y-17195376D01*
X25464052Y-17206347D01*
X25441090Y-17213983D01*
X25420472Y-17221172D01*
X25403418Y-17228264D01*
X25393491Y-17233770D01*
X25393281Y-17233947D01*
X25374974Y-17243485D01*
X25347232Y-17249180D01*
X25311279Y-17250896D01*
X25268342Y-17248499D01*
X25264442Y-17248105D01*
X25235400Y-17245403D01*
X25206623Y-17243290D01*
X25182371Y-17242053D01*
X25172232Y-17241851D01*
X25153970Y-17242177D01*
X25143811Y-17244212D01*
X25138572Y-17249574D01*
X25135068Y-17259883D01*
X25134790Y-17260888D01*
X25128516Y-17275748D01*
X25117691Y-17294599D01*
X25107802Y-17309024D01*
X25095408Y-17324844D01*
X25086531Y-17333136D01*
X25078386Y-17335745D01*
X25069044Y-17334685D01*
X25056137Y-17330557D01*
X25036832Y-17322628D01*
X25014699Y-17312393D01*
X25008100Y-17309127D01*
X24987196Y-17299087D01*
X24969436Y-17291430D01*
X24957709Y-17287370D01*
X24955483Y-17287022D01*
X24939435Y-17282530D01*
X24918918Y-17269954D01*
X24895663Y-17250646D01*
X24871397Y-17225958D01*
X24859199Y-17211743D01*
X24845750Y-17195692D01*
X24535556Y-17195692D01*
X24531857Y-17203883D01*
X24521341Y-17219239D01*
X24504880Y-17240658D01*
X24483347Y-17267039D01*
X24457614Y-17297281D01*
X24432053Y-17326365D01*
X24412115Y-17349075D01*
X24386782Y-17378462D01*
X24357805Y-17412462D01*
X24326937Y-17449012D01*
X24295930Y-17486050D01*
X24273725Y-17512800D01*
X24243083Y-17549716D01*
X24210679Y-17588488D01*
X24178417Y-17626854D01*
X24148202Y-17662555D01*
X24121939Y-17693331D01*
X24107253Y-17710356D01*
X24080396Y-17741453D01*
X24051019Y-17775742D01*
X24022024Y-17809817D01*
X23996313Y-17840276D01*
X23986946Y-17851467D01*
X23966719Y-17874960D01*
X23943140Y-17901124D01*
X23917551Y-17928601D01*
X23891292Y-17956028D01*
X23865704Y-17982045D01*
X23842126Y-18005293D01*
X23821901Y-18024410D01*
X23806367Y-18038035D01*
X23796866Y-18044809D01*
X23796133Y-18045119D01*
X23788378Y-18047469D01*
X23780401Y-18048229D01*
X23769002Y-18047260D01*
X23750980Y-18044424D01*
X23741240Y-18042742D01*
X23708833Y-18033801D01*
X23686077Y-18019628D01*
X23676850Y-18005895D01*
X23355515Y-18005895D01*
X23355218Y-18023605D01*
X23351965Y-18034093D01*
X23351633Y-18034458D01*
X23341789Y-18037133D01*
X23324664Y-18034806D01*
X23302741Y-18028149D01*
X23278498Y-18017835D01*
X23265583Y-18011130D01*
X23219179Y-17983424D01*
X23177421Y-17953947D01*
X23138167Y-17920814D01*
X23099272Y-17882145D01*
X23058593Y-17836055D01*
X23038780Y-17811956D01*
X22998588Y-17754797D01*
X22962575Y-17688605D01*
X22931470Y-17615097D01*
X22906003Y-17535989D01*
X22887536Y-17456356D01*
X22884468Y-17432392D01*
X22882386Y-17399980D01*
X22881295Y-17361918D01*
X22881196Y-17321004D01*
X22882095Y-17280036D01*
X22883994Y-17241811D01*
X22886896Y-17209127D01*
X22887224Y-17206417D01*
X22892336Y-17170572D01*
X22898873Y-17132691D01*
X22906360Y-17094858D01*
X22914324Y-17059155D01*
X22922290Y-17027667D01*
X22929783Y-17002477D01*
X22936329Y-16985670D01*
X22938263Y-16982222D01*
X22942927Y-16977509D01*
X22946210Y-16982695D01*
X22947201Y-16986065D01*
X22954808Y-16998690D01*
X22966374Y-17002040D01*
X22977566Y-16996445D01*
X22981442Y-16993756D01*
X22984493Y-16994715D01*
X22987145Y-17000833D01*
X22989823Y-17013622D01*
X22992952Y-17034593D01*
X22996958Y-17065259D01*
X22996982Y-17065453D01*
X23004314Y-17120626D01*
X23011515Y-17168500D01*
X23019172Y-17211538D01*
X23027873Y-17252202D01*
X23038204Y-17292954D01*
X23050752Y-17336255D01*
X23066103Y-17384568D01*
X23084846Y-17440356D01*
X23089784Y-17454754D01*
X23131507Y-17565167D01*
X23178904Y-17669324D01*
X23233631Y-17770554D01*
X23297344Y-17872188D01*
X23297610Y-17872586D01*
X23314274Y-17898611D01*
X23329172Y-17923872D01*
X23340778Y-17945646D01*
X23347564Y-17961209D01*
X23347938Y-17962383D01*
X23353031Y-17984357D01*
X23355515Y-18005895D01*
X23676850Y-18005895D01*
X23672687Y-17999700D01*
X23668382Y-17973495D01*
X23672876Y-17940488D01*
X23677284Y-17924588D01*
X23687532Y-17898481D01*
X23703515Y-17866115D01*
X23723757Y-17829914D01*
X23746782Y-17792302D01*
X23771113Y-17755705D01*
X23795273Y-17722547D01*
X23815122Y-17698249D01*
X23849788Y-17660274D01*
X23889366Y-17619451D01*
X23931946Y-17577564D01*
X23975617Y-17536398D01*
X24018471Y-17497737D01*
X24058597Y-17463365D01*
X24094086Y-17435068D01*
X24106812Y-17425667D01*
X24168416Y-17381830D01*
X24225761Y-17341734D01*
X24278193Y-17305805D01*
X24325060Y-17274472D01*
X24365711Y-17248162D01*
X24399494Y-17227302D01*
X24425756Y-17212321D01*
X24443845Y-17203647D01*
X24446925Y-17202542D01*
X24471392Y-17195819D01*
X24487262Y-17194011D01*
X24493921Y-17197146D01*
X24493616Y-17200543D01*
X24493031Y-17205166D01*
X24498661Y-17202751D01*
X24503019Y-17199802D01*
X24515679Y-17193436D01*
X24527559Y-17191148D01*
X24534812Y-17193423D01*
X24535556Y-17195692D01*
X24845750Y-17195692D01*
X24828537Y-17175150D01*
X24803796Y-17147416D01*
X24785102Y-17128672D01*
X24772580Y-17119048D01*
X24768426Y-17117689D01*
X24758258Y-17120599D01*
X24748435Y-17125865D01*
X24736335Y-17130721D01*
X24717391Y-17135154D01*
X24698920Y-17137822D01*
X24680589Y-17139256D01*
X24667263Y-17138137D01*
X24657317Y-17132886D01*
X24649127Y-17121923D01*
X24641071Y-17103668D01*
X24631525Y-17076540D01*
X24629377Y-17070160D01*
X24621724Y-17048586D01*
X24614652Y-17030761D01*
X24609402Y-17019747D01*
X24608399Y-17018267D01*
X24603632Y-17008992D01*
X24597854Y-16992971D01*
X24594363Y-16981130D01*
X24591996Y-16971996D01*
X24590261Y-16963439D01*
X24589202Y-16953998D01*
X24588860Y-16942212D01*
X24589276Y-16926620D01*
X24590494Y-16905763D01*
X24592555Y-16878179D01*
X24595500Y-16842408D01*
X24599372Y-16796990D01*
X24599790Y-16792114D01*
X24599003Y-16771207D01*
X24592092Y-16759494D01*
X24581297Y-16756445D01*
X24571329Y-16753095D01*
X24555835Y-16744353D01*
X24537857Y-16732180D01*
X24520435Y-16718535D01*
X24514832Y-16713592D01*
X24508003Y-16705138D01*
X24505545Y-16694869D01*
X24507821Y-16680938D01*
X24515192Y-16661498D01*
X24521274Y-16648791D01*
X24376443Y-16648791D01*
X24376131Y-16652462D01*
X24367522Y-16655704D01*
X24348400Y-16659181D01*
X24319533Y-16662801D01*
X24281695Y-16666473D01*
X24235653Y-16670107D01*
X24213822Y-16671615D01*
X24182220Y-16673864D01*
X24141871Y-16676966D01*
X24095270Y-16680717D01*
X24044908Y-16684910D01*
X23993281Y-16689342D01*
X23942880Y-16693807D01*
X23934422Y-16694572D01*
X23882868Y-16699184D01*
X23828201Y-16703957D01*
X23773249Y-16708653D01*
X23720840Y-16713033D01*
X23673801Y-16716858D01*
X23634961Y-16719889D01*
X23632445Y-16720078D01*
X23596669Y-16722861D01*
X23564853Y-16725519D01*
X23538663Y-16727897D01*
X23519764Y-16729842D01*
X23509822Y-16731199D01*
X23508737Y-16731530D01*
X23502657Y-16732208D01*
X23486931Y-16732808D01*
X23463206Y-16733301D01*
X23433124Y-16733656D01*
X23398331Y-16733845D01*
X23381087Y-16733867D01*
X23340153Y-16733811D01*
X23308951Y-16733558D01*
X23285925Y-16732978D01*
X23269520Y-16731940D01*
X23258179Y-16730315D01*
X23250346Y-16727973D01*
X23244465Y-16724784D01*
X23240913Y-16722165D01*
X23226059Y-16706538D01*
X23211114Y-16684553D01*
X23198834Y-16660777D01*
X23192351Y-16641682D01*
X23193099Y-16619654D01*
X23204758Y-16598470D01*
X23226969Y-16578322D01*
X23259373Y-16559400D01*
X23301611Y-16541895D01*
X23353325Y-16525999D01*
X23414156Y-16511901D01*
X23448328Y-16505509D01*
X23474034Y-16502306D01*
X23508853Y-16499796D01*
X23550632Y-16497982D01*
X23597218Y-16496865D01*
X23646455Y-16496447D01*
X23696192Y-16496731D01*
X23744272Y-16497718D01*
X23788544Y-16499410D01*
X23826852Y-16501809D01*
X23857043Y-16504918D01*
X23858651Y-16505141D01*
X23916935Y-16513804D01*
X23975721Y-16523285D01*
X24033732Y-16533324D01*
X24089694Y-16543658D01*
X24142329Y-16554027D01*
X24190361Y-16564169D01*
X24232516Y-16573822D01*
X24267516Y-16582726D01*
X24294086Y-16590618D01*
X24310949Y-16597238D01*
X24312600Y-16598127D01*
X24333870Y-16610629D01*
X24346373Y-16618986D01*
X24351357Y-16624257D01*
X24350072Y-16627503D01*
X24348274Y-16628397D01*
X24345708Y-16630944D01*
X24351103Y-16631821D01*
X24361002Y-16634978D01*
X24370682Y-16641652D01*
X24376443Y-16648791D01*
X24521274Y-16648791D01*
X24528020Y-16634701D01*
X24531732Y-16627399D01*
X24541803Y-16606588D01*
X24550022Y-16587544D01*
X24554664Y-16574277D01*
X24554744Y-16573955D01*
X24561663Y-16555365D01*
X24574294Y-16535460D01*
X24593642Y-16513064D01*
X24620710Y-16487002D01*
X24652482Y-16459455D01*
X24675379Y-16439925D01*
X24695109Y-16422456D01*
X24710053Y-16408529D01*
X24718598Y-16399624D01*
X24719915Y-16397674D01*
X24719899Y-16387965D01*
X24716361Y-16372623D01*
X24714071Y-16365746D01*
X24708074Y-16344831D01*
X24703420Y-16320800D01*
X24702340Y-16312200D01*
X24701484Y-16296423D01*
X24703624Y-16284719D01*
X24710377Y-16275594D01*
X24723361Y-16267555D01*
X24744194Y-16259111D01*
X24769174Y-16250536D01*
X24793056Y-16241969D01*
X24815299Y-16232938D01*
X24831726Y-16225160D01*
X24833860Y-16223956D01*
X24848155Y-16217972D01*
X24868001Y-16214046D01*
X24894580Y-16212129D01*
X24929072Y-16212174D01*
X24972659Y-16214132D01*
X25010986Y-16216749D01*
X25039235Y-16218766D01*
X25058222Y-16219649D01*
X25069929Y-16219238D01*
X25076341Y-16217371D01*
X25079441Y-16213888D01*
X25080490Y-16211105D01*
X25096253Y-16176382D01*
X25119396Y-16144826D01*
X25122198Y-16141960D01*
X24650974Y-16141960D01*
X24650922Y-16150930D01*
X24643500Y-16151950D01*
X24628991Y-16145062D01*
X24607675Y-16130307D01*
X24591145Y-16117211D01*
X24570944Y-16100335D01*
X24545225Y-16078445D01*
X24516899Y-16054040D01*
X24488877Y-16029618D01*
X24480972Y-16022667D01*
X24456113Y-16001057D01*
X24424914Y-15974396D01*
X24389810Y-15944737D01*
X24353233Y-15914133D01*
X24317618Y-15884637D01*
X24306998Y-15875911D01*
X24272129Y-15847159D01*
X24235470Y-15816636D01*
X24199470Y-15786403D01*
X24166578Y-15758518D01*
X24139244Y-15735042D01*
X24132258Y-15728961D01*
X24103776Y-15704261D01*
X24073212Y-15678089D01*
X24043799Y-15653195D01*
X24018773Y-15632329D01*
X24013445Y-15627952D01*
X23992951Y-15610447D01*
X23966855Y-15587036D01*
X23937473Y-15559860D01*
X23907120Y-15531059D01*
X23879389Y-15504039D01*
X23796133Y-15421675D01*
X23796162Y-15410964D01*
X23422638Y-15410964D01*
X23418471Y-15419632D01*
X23407079Y-15435434D01*
X23406667Y-15435976D01*
X23392355Y-15454845D01*
X23377524Y-15474497D01*
X23373847Y-15479389D01*
X23362634Y-15494198D01*
X23347473Y-15514053D01*
X23331326Y-15535075D01*
X23328590Y-15538625D01*
X23312264Y-15560944D01*
X23293413Y-15588478D01*
X23275133Y-15616648D01*
X23267862Y-15628407D01*
X23252469Y-15654961D01*
X23234112Y-15688504D01*
X23213811Y-15726984D01*
X23192591Y-15768352D01*
X23171474Y-15810559D01*
X23151482Y-15851553D01*
X23133639Y-15889286D01*
X23118967Y-15921706D01*
X23108490Y-15946765D01*
X23106777Y-15951281D01*
X23089510Y-16001111D01*
X23071774Y-16057641D01*
X23054503Y-16117495D01*
X23038629Y-16177297D01*
X23025082Y-16233673D01*
X23014795Y-16283245D01*
X23014136Y-16286844D01*
X23007830Y-16316848D01*
X23000650Y-16339488D01*
X22991194Y-16358675D01*
X22984846Y-16368688D01*
X22969040Y-16391047D01*
X22957081Y-16404032D01*
X22947165Y-16408045D01*
X22937492Y-16403486D01*
X22926261Y-16390757D01*
X22920592Y-16382994D01*
X22914688Y-16371231D01*
X22907233Y-16351329D01*
X22899215Y-16326149D01*
X22892156Y-16300648D01*
X22885311Y-16272901D01*
X22880600Y-16250014D01*
X22877649Y-16228585D01*
X22876083Y-16205209D01*
X22875528Y-16176483D01*
X22875549Y-16149667D01*
X22877109Y-16083567D01*
X22881196Y-16026715D01*
X22887968Y-15977322D01*
X22892834Y-15952952D01*
X22902697Y-15918413D01*
X22917863Y-15877285D01*
X22937111Y-15832194D01*
X22959224Y-15785766D01*
X22982983Y-15740628D01*
X23007169Y-15699404D01*
X23018975Y-15681178D01*
X23046554Y-15645048D01*
X23082377Y-15605515D01*
X23124563Y-15564170D01*
X23171232Y-15522604D01*
X23220504Y-15482409D01*
X23270499Y-15445177D01*
X23319337Y-15412499D01*
X23365137Y-15385967D01*
X23371736Y-15382562D01*
X23401589Y-15367434D01*
X23398970Y-15390236D01*
X23397786Y-15404593D01*
X23399728Y-15410451D01*
X23406314Y-15410483D01*
X23409975Y-15409618D01*
X23419749Y-15408078D01*
X23422638Y-15410964D01*
X23796162Y-15410964D01*
X23796218Y-15390560D01*
X23800848Y-15349647D01*
X23814349Y-15315046D01*
X23820231Y-15305822D01*
X23826512Y-15298434D01*
X23834324Y-15294190D01*
X23846747Y-15292236D01*
X23866862Y-15291718D01*
X23871128Y-15291711D01*
X23890531Y-15292121D01*
X23906149Y-15294002D01*
X23921359Y-15298328D01*
X23939541Y-15306076D01*
X23964072Y-15318221D01*
X23965564Y-15318981D01*
X24011933Y-15343967D01*
X24054481Y-15370076D01*
X24095442Y-15398966D01*
X24137052Y-15432295D01*
X24181544Y-15471721D01*
X24218425Y-15506553D01*
X24285467Y-15573730D01*
X24344333Y-15637995D01*
X24394339Y-15698572D01*
X24427099Y-15743267D01*
X24441037Y-15763237D01*
X24458740Y-15788170D01*
X24477273Y-15813940D01*
X24485392Y-15825111D01*
X24503774Y-15850801D01*
X24523052Y-15878557D01*
X24540061Y-15903798D01*
X24545801Y-15912600D01*
X24561314Y-15936654D01*
X24579576Y-15964851D01*
X24597153Y-15991888D01*
X24600660Y-15997267D01*
X24614614Y-16019912D01*
X24626760Y-16041895D01*
X24635181Y-16059660D01*
X24637145Y-16065000D01*
X24642526Y-16080257D01*
X24647371Y-16090727D01*
X24648474Y-16092287D01*
X24650937Y-16100123D01*
X24649265Y-16109405D01*
X24644930Y-16115258D01*
X24641595Y-16115056D01*
X24639828Y-16116586D01*
X24643377Y-16124997D01*
X24650974Y-16141960D01*
X25122198Y-16141960D01*
X25129524Y-16134469D01*
X25139053Y-16128532D01*
X25150074Y-16127202D01*
X25164680Y-16130667D01*
X25184961Y-16139113D01*
X25213011Y-16152728D01*
X25214175Y-16153308D01*
X25235360Y-16163272D01*
X25253752Y-16170836D01*
X25266275Y-16174773D01*
X25268641Y-16175067D01*
X25282381Y-16179468D01*
X25301318Y-16191901D01*
X25324096Y-16211204D01*
X25349356Y-16236220D01*
X25375739Y-16265788D01*
X25377761Y-16268200D01*
X25396123Y-16289844D01*
X25413371Y-16309543D01*
X25427381Y-16324907D01*
X25435102Y-16332725D01*
X25445587Y-16341406D01*
X25453859Y-16343290D01*
X25465394Y-16339111D01*
X25469235Y-16337297D01*
X25485650Y-16331582D01*
X25507572Y-16326566D01*
X25523050Y-16324228D01*
X25541421Y-16322680D01*
X25554562Y-16324015D01*
X25564233Y-16329880D01*
X25572198Y-16341919D01*
X25580218Y-16361779D01*
X25588027Y-16384921D01*
X25596450Y-16408551D01*
X25605448Y-16430640D01*
X25613225Y-16446807D01*
X25613974Y-16448114D01*
X25621569Y-16464689D01*
X25626549Y-16485188D01*
X25629027Y-16511219D01*
X25629116Y-16544390D01*
X25626929Y-16586310D01*
X25625213Y-16608689D01*
X25622587Y-16644092D01*
X25621597Y-16669792D01*
X25622502Y-16687289D01*
X25625558Y-16698084D01*
X25631024Y-16703678D01*
X25639158Y-16705573D01*
X25641879Y-16705645D01*
X25650987Y-16708954D01*
X25665743Y-16717677D01*
X25683121Y-16730001D01*
X25684932Y-16731397D01*
X25701214Y-16744553D01*
X25711217Y-16755373D01*
X25715156Y-16766336D01*
X26292025Y-16766336D01*
X26304903Y-16765146D01*
X26386309Y-16757624D01*
X26457881Y-16751230D01*
X26521009Y-16745870D01*
X26577080Y-16741451D01*
X26627485Y-16737877D01*
X26673611Y-16735055D01*
X26716848Y-16732890D01*
X26758584Y-16731289D01*
X26800209Y-16730156D01*
X26828861Y-16729611D01*
X26968811Y-16727349D01*
X26988731Y-16748952D01*
X27004641Y-16769257D01*
X27018133Y-16791992D01*
X27027334Y-16813550D01*
X27030400Y-16829190D01*
X28622133Y-16829190D01*
X28622133Y-16117883D01*
X27341132Y-16117883D01*
X27338911Y-16190773D01*
X27331547Y-16267372D01*
X27319123Y-16345609D01*
X27314897Y-16366813D01*
X27305303Y-16410143D01*
X27296757Y-16442604D01*
X27289089Y-16464552D01*
X27282130Y-16476341D01*
X27275708Y-16478326D01*
X27269655Y-16470863D01*
X27267467Y-16465756D01*
X27260608Y-16454103D01*
X27253604Y-16452741D01*
X27248492Y-16460111D01*
X27243286Y-16468234D01*
X27238250Y-16465136D01*
X27233422Y-16450886D01*
X27228839Y-16425550D01*
X27228737Y-16424834D01*
X27225264Y-16400246D01*
X27220927Y-16369166D01*
X27216379Y-16336286D01*
X27213620Y-16316178D01*
X27208421Y-16282943D01*
X27201728Y-16246876D01*
X27194597Y-16213443D01*
X27190737Y-16197645D01*
X27181417Y-16164272D01*
X27169414Y-16124789D01*
X27155434Y-16081213D01*
X27140179Y-16035565D01*
X27124354Y-15989861D01*
X27108662Y-15946123D01*
X27093806Y-15906367D01*
X27080492Y-15872613D01*
X27069421Y-15846879D01*
X27065892Y-15839510D01*
X27032326Y-15774414D01*
X26998380Y-15712225D01*
X26965375Y-15655279D01*
X26934637Y-15605910D01*
X26926567Y-15593689D01*
X26902134Y-15555247D01*
X26884785Y-15522885D01*
X26873699Y-15494627D01*
X26869764Y-15476415D01*
X26552235Y-15476415D01*
X26552127Y-15502453D01*
X26544669Y-15533841D01*
X26529701Y-15571142D01*
X26507062Y-15614918D01*
X26476592Y-15665730D01*
X26457769Y-15694865D01*
X26442671Y-15716509D01*
X26425081Y-15739117D01*
X26403792Y-15764060D01*
X26377595Y-15792707D01*
X26345283Y-15826429D01*
X26312328Y-15859885D01*
X26281152Y-15890827D01*
X26250131Y-15920839D01*
X26220856Y-15948440D01*
X26194915Y-15972149D01*
X26173900Y-15990484D01*
X26161156Y-16000695D01*
X26106024Y-16041052D01*
X26052013Y-16079815D01*
X26000057Y-16116360D01*
X25951088Y-16150065D01*
X25906042Y-16180306D01*
X25865853Y-16206459D01*
X25831454Y-16227901D01*
X25803780Y-16244009D01*
X25783765Y-16254158D01*
X25777926Y-16256475D01*
X25757562Y-16261064D01*
X25736643Y-16262499D01*
X25736188Y-16262481D01*
X25721701Y-16262917D01*
X25712856Y-16265190D01*
X25712088Y-16265920D01*
X25705013Y-16269386D01*
X25694925Y-16268705D01*
X25687751Y-16264688D01*
X25687022Y-16262483D01*
X25690806Y-16254369D01*
X25701790Y-16238724D01*
X25719430Y-16216225D01*
X25743178Y-16187551D01*
X25772487Y-16153379D01*
X25803046Y-16118622D01*
X25823096Y-16095701D01*
X25848485Y-16066144D01*
X25877423Y-16032068D01*
X25908116Y-15995590D01*
X25938775Y-15958825D01*
X25958328Y-15935178D01*
X25987735Y-15899639D01*
X26018140Y-15863177D01*
X26047808Y-15827856D01*
X26075002Y-15795737D01*
X26097986Y-15768883D01*
X26110433Y-15754556D01*
X26135440Y-15725798D01*
X26164207Y-15692316D01*
X26193322Y-15658102D01*
X26219373Y-15627149D01*
X26221390Y-15624734D01*
X26247693Y-15594112D01*
X26276226Y-15562482D01*
X26305742Y-15531075D01*
X26334996Y-15501120D01*
X26362744Y-15473849D01*
X26387740Y-15450492D01*
X26408739Y-15432280D01*
X26424497Y-15420443D01*
X26432057Y-15416510D01*
X26450943Y-15414670D01*
X26475180Y-15417288D01*
X26500234Y-15423374D01*
X26521569Y-15431936D01*
X26531044Y-15438142D01*
X26545154Y-15455166D01*
X26552235Y-15476415D01*
X26869764Y-15476415D01*
X26868053Y-15468497D01*
X26866896Y-15450433D01*
X26866711Y-15422888D01*
X26891809Y-15425716D01*
X26920898Y-15433168D01*
X26954976Y-15448924D01*
X26992720Y-15471931D01*
X27032806Y-15501135D01*
X27073911Y-15535483D01*
X27114710Y-15573920D01*
X27153881Y-15615393D01*
X27190099Y-15658848D01*
X27198530Y-15669889D01*
X27228861Y-15716248D01*
X27257595Y-15771527D01*
X27283771Y-15833371D01*
X27306430Y-15899430D01*
X27324611Y-15967351D01*
X27329815Y-15991507D01*
X27338127Y-16050770D01*
X27341132Y-16117883D01*
X28622133Y-16117883D01*
X28622133Y-15259260D01*
X25343454Y-15259260D01*
X25343322Y-15309857D01*
X25342695Y-15356879D01*
X25341624Y-15398629D01*
X25340158Y-15433412D01*
X25338348Y-15459530D01*
X25337234Y-15469511D01*
X25332879Y-15499509D01*
X25327334Y-15535408D01*
X25320951Y-15575150D01*
X25314080Y-15616677D01*
X25307074Y-15657929D01*
X25300282Y-15696849D01*
X25294056Y-15731378D01*
X25288747Y-15759457D01*
X25284705Y-15779027D01*
X25283829Y-15782778D01*
X25278825Y-15803906D01*
X25272538Y-15831360D01*
X25266040Y-15860426D01*
X25263573Y-15871678D01*
X25258037Y-15894848D01*
X25252719Y-15913204D01*
X25248355Y-15924394D01*
X25246349Y-15926711D01*
X25241700Y-15931289D01*
X25241111Y-15935178D01*
X25238545Y-15942696D01*
X25236373Y-15943645D01*
X25230846Y-15948205D01*
X25225060Y-15958074D01*
X25218640Y-15967356D01*
X25212865Y-15969030D01*
X25208481Y-15970815D01*
X25207245Y-15977511D01*
X25205123Y-15985523D01*
X25201600Y-15985978D01*
X25196399Y-15986425D01*
X25195956Y-15988467D01*
X25192404Y-15994221D01*
X25191086Y-15994445D01*
X25187949Y-15989306D01*
X25184157Y-15975741D01*
X25180462Y-15956523D01*
X25179993Y-15953522D01*
X25177041Y-15930167D01*
X25174081Y-15900082D01*
X25171530Y-15867820D01*
X25170282Y-15847689D01*
X25168764Y-15823682D01*
X25166361Y-15790871D01*
X25163269Y-15751692D01*
X25159683Y-15708577D01*
X25155801Y-15663961D01*
X25153016Y-15633200D01*
X25148908Y-15588098D01*
X25144792Y-15541992D01*
X25140896Y-15497517D01*
X25137451Y-15457310D01*
X25134685Y-15424006D01*
X25133369Y-15407422D01*
X25131040Y-15377891D01*
X25127989Y-15340248D01*
X25124474Y-15297628D01*
X25120754Y-15253165D01*
X25117089Y-15209994D01*
X25116572Y-15203970D01*
X25113145Y-15159009D01*
X25110158Y-15110165D01*
X25107792Y-15061191D01*
X25106228Y-15015839D01*
X25105645Y-14977862D01*
X25105645Y-14877237D01*
X25122223Y-14858355D01*
X25142183Y-14840625D01*
X25167522Y-14824894D01*
X25193199Y-14814082D01*
X25202621Y-14811756D01*
X25221752Y-14813573D01*
X25242147Y-14824174D01*
X25261075Y-14841781D01*
X25271610Y-14856666D01*
X25286268Y-14886943D01*
X25301018Y-14927656D01*
X25315585Y-14977958D01*
X25328294Y-15030660D01*
X25332621Y-15050676D01*
X25336015Y-15068436D01*
X25338593Y-15085709D01*
X25340472Y-15104263D01*
X25341771Y-15125868D01*
X25342605Y-15152292D01*
X25343093Y-15185305D01*
X25343352Y-15226676D01*
X25343454Y-15259260D01*
X28622133Y-15259260D01*
X28622133Y-15020908D01*
X26470112Y-15020908D01*
X26469798Y-15021639D01*
X26464012Y-15021405D01*
X26451445Y-15019120D01*
X26448390Y-15018450D01*
X26435288Y-15016044D01*
X26430280Y-15017931D01*
X26430544Y-15025523D01*
X26430862Y-15027228D01*
X26431360Y-15037341D01*
X26429329Y-15040534D01*
X26423745Y-15037301D01*
X26410623Y-15028302D01*
X26391425Y-15014581D01*
X26367614Y-14997186D01*
X26340653Y-14977163D01*
X26338831Y-14975798D01*
X26302620Y-14949014D01*
X26270102Y-14925873D01*
X26239335Y-14905217D01*
X26208377Y-14885887D01*
X26175286Y-14866724D01*
X26138120Y-14846568D01*
X26094937Y-14824261D01*
X26043795Y-14798645D01*
X26033037Y-14793318D01*
X25940738Y-14750509D01*
X25849592Y-14714285D01*
X25756324Y-14683534D01*
X25657659Y-14657145D01*
X25581907Y-14640319D01*
X25548195Y-14633081D01*
X25523085Y-14626796D01*
X25504036Y-14620612D01*
X25488506Y-14613676D01*
X25473953Y-14605136D01*
X25470828Y-14603089D01*
X25448692Y-14586808D01*
X25436846Y-14573473D01*
X25435085Y-14561871D01*
X25435299Y-14561578D01*
X24862933Y-14561578D01*
X24858671Y-14566315D01*
X24857692Y-14566400D01*
X24849922Y-14570006D01*
X24843313Y-14575538D01*
X24837226Y-14583367D01*
X24839466Y-14590265D01*
X24843269Y-14594723D01*
X24847296Y-14600104D01*
X24846220Y-14603734D01*
X24838215Y-14606627D01*
X24821453Y-14609800D01*
X24813903Y-14611047D01*
X24792180Y-14614382D01*
X24763397Y-14618510D01*
X24731697Y-14622850D01*
X24707774Y-14625985D01*
X24672294Y-14631322D01*
X24632362Y-14638571D01*
X24594069Y-14646579D01*
X24575129Y-14651087D01*
X24545338Y-14659252D01*
X24508429Y-14670340D01*
X24466646Y-14683586D01*
X24422235Y-14698226D01*
X24377437Y-14713495D01*
X24334498Y-14728628D01*
X24295661Y-14742860D01*
X24263171Y-14755426D01*
X24239323Y-14765539D01*
X24200746Y-14784255D01*
X24155940Y-14807615D01*
X24107990Y-14833886D01*
X24059980Y-14861334D01*
X24014996Y-14888224D01*
X23976122Y-14912821D01*
X23969396Y-14917283D01*
X23934513Y-14939725D01*
X23906478Y-14955581D01*
X23883655Y-14965719D01*
X23870618Y-14969708D01*
X23844285Y-14975464D01*
X23826529Y-14977580D01*
X23815260Y-14976114D01*
X23808606Y-14971389D01*
X23805394Y-14959277D01*
X23808461Y-14940062D01*
X23816960Y-14915397D01*
X23830044Y-14886933D01*
X23846865Y-14856324D01*
X23866576Y-14825222D01*
X23888332Y-14795279D01*
X23911283Y-14768149D01*
X23914588Y-14764623D01*
X23940925Y-14738124D01*
X23971003Y-14709827D01*
X24002490Y-14681761D01*
X24033054Y-14655954D01*
X24060363Y-14634433D01*
X24080804Y-14620040D01*
X24116747Y-14599697D01*
X24160961Y-14578824D01*
X24210544Y-14558533D01*
X24262600Y-14539935D01*
X24314228Y-14524144D01*
X24360578Y-14512683D01*
X24419083Y-14503840D01*
X24485183Y-14500101D01*
X24556487Y-14501298D01*
X24630605Y-14507267D01*
X24705149Y-14517842D01*
X24777729Y-14532857D01*
X24822011Y-14544709D01*
X24841567Y-14551056D01*
X24856036Y-14556876D01*
X24862753Y-14561072D01*
X24862933Y-14561578D01*
X25435299Y-14561578D01*
X25443204Y-14550789D01*
X25460095Y-14539518D01*
X25474415Y-14533094D01*
X25496286Y-14525167D01*
X25522296Y-14516917D01*
X25540267Y-14511815D01*
X25563347Y-14505830D01*
X25582923Y-14501567D01*
X25601758Y-14498750D01*
X25622613Y-14497101D01*
X25648253Y-14496343D01*
X25681439Y-14496200D01*
X25695489Y-14496244D01*
X25731371Y-14496796D01*
X25767130Y-14498054D01*
X25799608Y-14499860D01*
X25825651Y-14502055D01*
X25835888Y-14503339D01*
X25892557Y-14515561D01*
X25953852Y-14535300D01*
X26017228Y-14561358D01*
X26080137Y-14592537D01*
X26140032Y-14627639D01*
X26194367Y-14665465D01*
X26214415Y-14681456D01*
X26238767Y-14703742D01*
X26267466Y-14733221D01*
X26298605Y-14767686D01*
X26330281Y-14804931D01*
X26360587Y-14842748D01*
X26387617Y-14878933D01*
X26398878Y-14895086D01*
X26417215Y-14922961D01*
X26434233Y-14950335D01*
X26448982Y-14975512D01*
X26460511Y-14996797D01*
X26467872Y-15012494D01*
X26470112Y-15020908D01*
X28622133Y-15020908D01*
X28622133Y-14150122D01*
X25938916Y-14150122D01*
X25938770Y-14158410D01*
X25932638Y-14159240D01*
X25922576Y-14153078D01*
X25913971Y-14144478D01*
X25906172Y-14136746D01*
X25903196Y-14136645D01*
X25903524Y-14138366D01*
X25902390Y-14147747D01*
X25898821Y-14150702D01*
X25894049Y-14156776D01*
X25893504Y-14170907D01*
X25894236Y-14177980D01*
X25897274Y-14202334D01*
X25881048Y-14179444D01*
X25875635Y-14171700D01*
X25121537Y-14171700D01*
X25119012Y-14175928D01*
X25111062Y-14180431D01*
X25096698Y-14185583D01*
X25074934Y-14191758D01*
X25044783Y-14199330D01*
X25005258Y-14208671D01*
X24972538Y-14216221D01*
X24908118Y-14230090D01*
X24845516Y-14241815D01*
X24787446Y-14250937D01*
X24736623Y-14256999D01*
X24724645Y-14258039D01*
X24702472Y-14259026D01*
X24671479Y-14259357D01*
X24633949Y-14259106D01*
X24592168Y-14258342D01*
X24548421Y-14257136D01*
X24504993Y-14255560D01*
X24464169Y-14253684D01*
X24428234Y-14251579D01*
X24399474Y-14249316D01*
X24383156Y-14247439D01*
X24336066Y-14238967D01*
X24296056Y-14227928D01*
X24258986Y-14212981D01*
X24228868Y-14197421D01*
X24159747Y-14153101D01*
X24091945Y-14098513D01*
X24026401Y-14034670D01*
X23964059Y-13962588D01*
X23905859Y-13883280D01*
X23852743Y-13797760D01*
X23844845Y-13783686D01*
X23809861Y-13713987D01*
X23784631Y-13648761D01*
X23768912Y-13587229D01*
X23762465Y-13528613D01*
X23762267Y-13516601D01*
X23762713Y-13498570D01*
X23765399Y-13486400D01*
X23772349Y-13477703D01*
X23785587Y-13470090D01*
X23807136Y-13461171D01*
X23810245Y-13459951D01*
X23828322Y-13452309D01*
X23841911Y-13445530D01*
X23847653Y-13441470D01*
X23855365Y-13437267D01*
X23867409Y-13434970D01*
X23883234Y-13432439D01*
X23893880Y-13429202D01*
X23905856Y-13428342D01*
X23910531Y-13431117D01*
X23921452Y-13436716D01*
X23927189Y-13437511D01*
X23935409Y-13442374D01*
X23947745Y-13456120D01*
X23963365Y-13477483D01*
X23981441Y-13505198D01*
X24001139Y-13538001D01*
X24021631Y-13574627D01*
X24039126Y-13607966D01*
X24087369Y-13695523D01*
X24138179Y-13773175D01*
X24192579Y-13842197D01*
X24251593Y-13903869D01*
X24316244Y-13959466D01*
X24328144Y-13968613D01*
X24361106Y-13992096D01*
X24393979Y-14012197D01*
X24428082Y-14029275D01*
X24464732Y-14043691D01*
X24505247Y-14055805D01*
X24550947Y-14065976D01*
X24603148Y-14074563D01*
X24663170Y-14081928D01*
X24732330Y-14088429D01*
X24781089Y-14092236D01*
X24815925Y-14095388D01*
X24852496Y-14099693D01*
X24886477Y-14104587D01*
X24913544Y-14109506D01*
X24913733Y-14109547D01*
X24941383Y-14115381D01*
X24968953Y-14121028D01*
X24991847Y-14125551D01*
X24998400Y-14126787D01*
X25027563Y-14132998D01*
X25056631Y-14140615D01*
X25082777Y-14148767D01*
X25103174Y-14156578D01*
X25114254Y-14162576D01*
X25119621Y-14167374D01*
X25121537Y-14171700D01*
X25875635Y-14171700D01*
X25871064Y-14165162D01*
X25856873Y-14144610D01*
X25840594Y-14120866D01*
X25828581Y-14103244D01*
X25812669Y-14079969D01*
X25797921Y-14058810D01*
X25783593Y-14038873D01*
X25768937Y-14019264D01*
X25753205Y-13999089D01*
X25735653Y-13977453D01*
X25715532Y-13953462D01*
X25692095Y-13926223D01*
X25678067Y-13910212D01*
X24919378Y-13910212D01*
X24915280Y-13910907D01*
X24912322Y-13909925D01*
X24903486Y-13906347D01*
X24887986Y-13900145D01*
X24874222Y-13894666D01*
X24819885Y-13872033D01*
X24756878Y-13843892D01*
X24686131Y-13810668D01*
X24617400Y-13777165D01*
X24584614Y-13761014D01*
X24554508Y-13746329D01*
X24528818Y-13733945D01*
X24509281Y-13724697D01*
X24497633Y-13719422D01*
X24496045Y-13718779D01*
X24481404Y-13712357D01*
X24460147Y-13701814D01*
X24433923Y-13688085D01*
X24404379Y-13672103D01*
X24373166Y-13654802D01*
X24341932Y-13637118D01*
X24312325Y-13619983D01*
X24285995Y-13604333D01*
X24264590Y-13591101D01*
X24249760Y-13581222D01*
X24243152Y-13575629D01*
X24243048Y-13575439D01*
X24240920Y-13562078D01*
X24245258Y-13550396D01*
X24254289Y-13544809D01*
X24255376Y-13544756D01*
X24264372Y-13542435D01*
X24279123Y-13536546D01*
X24287417Y-13532718D01*
X24312332Y-13520681D01*
X24374555Y-13553589D01*
X24429129Y-13582934D01*
X24475546Y-13609027D01*
X24515982Y-13633166D01*
X24552612Y-13656648D01*
X24586356Y-13679875D01*
X24632365Y-13712561D01*
X24670353Y-13739492D01*
X24701484Y-13761478D01*
X24726919Y-13779330D01*
X24747822Y-13793859D01*
X24765354Y-13805874D01*
X24780679Y-13816187D01*
X24794959Y-13825608D01*
X24801398Y-13829800D01*
X24842881Y-13856852D01*
X24875086Y-13878153D01*
X24898318Y-13893911D01*
X24912885Y-13904336D01*
X24919094Y-13909638D01*
X24919378Y-13910212D01*
X25678067Y-13910212D01*
X25664597Y-13894840D01*
X25632290Y-13858419D01*
X25625538Y-13850866D01*
X25224178Y-13850866D01*
X25219261Y-13853888D01*
X25207383Y-13855199D01*
X25206911Y-13855200D01*
X25195628Y-13856729D01*
X25193022Y-13860651D01*
X25193133Y-13860845D01*
X25195297Y-13868313D01*
X25188615Y-13869221D01*
X25173336Y-13863693D01*
X25149710Y-13851856D01*
X25117984Y-13833837D01*
X25078409Y-13809761D01*
X25031233Y-13779756D01*
X25023800Y-13774936D01*
X24999773Y-13759874D01*
X24970790Y-13742764D01*
X24935783Y-13723015D01*
X24893685Y-13700032D01*
X24843428Y-13673223D01*
X24792378Y-13646399D01*
X24761660Y-13630221D01*
X24731151Y-13613936D01*
X24703766Y-13599114D01*
X24682422Y-13587325D01*
X24676667Y-13584063D01*
X24656338Y-13572804D01*
X24629641Y-13558574D01*
X24600347Y-13543359D01*
X24577293Y-13531674D01*
X24508848Y-13499174D01*
X24443628Y-13472111D01*
X24379294Y-13449854D01*
X24313505Y-13431774D01*
X24243922Y-13417239D01*
X24168205Y-13405619D01*
X24084014Y-13396285D01*
X24069889Y-13394987D01*
X24010634Y-13390303D01*
X23960838Y-13387874D01*
X23918880Y-13387790D01*
X23883139Y-13390139D01*
X23851996Y-13395010D01*
X23823829Y-13402490D01*
X23804624Y-13409486D01*
X23777381Y-13419846D01*
X23747956Y-13430041D01*
X23722363Y-13437994D01*
X23720576Y-13438495D01*
X23681660Y-13449279D01*
X23668572Y-13436984D01*
X23657878Y-13420426D01*
X23651482Y-13396916D01*
X23650148Y-13370225D01*
X23651942Y-13355059D01*
X23662119Y-13330551D01*
X23683241Y-13306123D01*
X23714962Y-13282004D01*
X23756939Y-13258424D01*
X23808828Y-13235611D01*
X23858029Y-13217806D01*
X23896192Y-13206198D01*
X23932150Y-13197980D01*
X23968822Y-13192812D01*
X24009128Y-13190353D01*
X24055986Y-13190263D01*
X24086822Y-13191144D01*
X24203917Y-13199977D01*
X24316427Y-13217963D01*
X24425586Y-13245487D01*
X24532627Y-13282929D01*
X24638784Y-13330672D01*
X24745290Y-13389099D01*
X24766227Y-13401784D01*
X24807225Y-13427691D01*
X24843263Y-13452221D01*
X24876676Y-13477240D01*
X24909798Y-13504614D01*
X24944964Y-13536209D01*
X24984510Y-13573891D01*
X24997584Y-13586668D01*
X25030882Y-13620062D01*
X25064317Y-13654881D01*
X25096944Y-13690025D01*
X25127819Y-13724393D01*
X25156000Y-13756887D01*
X25180541Y-13786404D01*
X25200500Y-13811845D01*
X25214933Y-13832110D01*
X25222896Y-13846097D01*
X25224178Y-13850866D01*
X25625538Y-13850866D01*
X25594427Y-13816068D01*
X25550262Y-13766890D01*
X25514290Y-13726918D01*
X25443897Y-13651070D01*
X25376955Y-13584056D01*
X25311872Y-13524610D01*
X25247053Y-13471467D01*
X25180905Y-13423360D01*
X25111837Y-13379025D01*
X25038254Y-13337195D01*
X24995956Y-13315140D01*
X24963712Y-13298561D01*
X24931213Y-13281445D01*
X24901449Y-13265394D01*
X24877409Y-13252008D01*
X24868956Y-13247104D01*
X24845484Y-13233702D01*
X24816187Y-13217706D01*
X24785396Y-13201452D01*
X24765640Y-13191356D01*
X24731098Y-13172558D01*
X24706014Y-13155090D01*
X24688924Y-13137429D01*
X24678362Y-13118050D01*
X24672865Y-13095428D01*
X24672759Y-13094648D01*
X24671843Y-13083844D01*
X24673199Y-13075150D01*
X24678119Y-13067859D01*
X24687891Y-13061268D01*
X24703806Y-13054671D01*
X24727153Y-13047363D01*
X24759224Y-13038638D01*
X24789556Y-13030797D01*
X24822931Y-13026296D01*
X24863493Y-13028195D01*
X24911783Y-13036576D01*
X24968342Y-13051517D01*
X25002076Y-13062197D01*
X25046785Y-13078463D01*
X25089932Y-13097358D01*
X25134282Y-13120267D01*
X25182603Y-13148575D01*
X25213805Y-13168184D01*
X25320928Y-13242600D01*
X25422994Y-13324961D01*
X25518680Y-13413985D01*
X25606661Y-13508392D01*
X25685615Y-13606900D01*
X25725334Y-13663289D01*
X25762644Y-13723045D01*
X25799445Y-13789590D01*
X25834526Y-13860253D01*
X25866679Y-13932364D01*
X25894695Y-14003253D01*
X25917365Y-14070249D01*
X25929764Y-14114845D01*
X25934216Y-14132476D01*
X25937956Y-14146682D01*
X25938916Y-14150122D01*
X28622133Y-14150122D01*
X28622133Y-12856134D01*
X21572222Y-12856134D01*
X21572222Y-20543867D01*
G36*
X25080712Y-19629171D02*
G01*
X25048997Y-19636520D01*
X25021343Y-19650052D01*
X24994542Y-19670858D01*
X24970371Y-19699581D01*
X24950930Y-19736854D01*
X24936802Y-19780729D01*
X24928570Y-19829256D01*
X24926817Y-19880487D01*
X24927546Y-19894756D01*
X24935184Y-19953516D01*
X24949334Y-20003237D01*
X24970144Y-20044206D01*
X24997760Y-20076707D01*
X25032329Y-20101025D01*
X25034581Y-20102206D01*
X25063359Y-20112566D01*
X25098508Y-20118549D01*
X25135919Y-20119977D01*
X25171485Y-20116673D01*
X25199041Y-20109303D01*
X25226242Y-20094288D01*
X25253138Y-20072272D01*
X25275721Y-20046895D01*
X25286327Y-20030053D01*
X25300659Y-19996606D01*
X25310161Y-19960581D01*
X25315395Y-19919132D01*
X25316921Y-19875000D01*
X25316556Y-19841299D01*
X25314919Y-19815324D01*
X25311611Y-19793546D01*
X25306233Y-19772436D01*
X25304779Y-19767679D01*
X25286032Y-19720943D01*
X25261865Y-19684000D01*
X25231832Y-19656513D01*
X25195485Y-19638141D01*
X25152380Y-19628545D01*
X25119756Y-19626855D01*
X25080712Y-19629171D01*
G37*
X25080712Y-19629171D02*
X25048997Y-19636520D01*
X25021343Y-19650052D01*
X24994542Y-19670858D01*
X24970371Y-19699581D01*
X24950930Y-19736854D01*
X24936802Y-19780729D01*
X24928570Y-19829256D01*
X24926817Y-19880487D01*
X24927546Y-19894756D01*
X24935184Y-19953516D01*
X24949334Y-20003237D01*
X24970144Y-20044206D01*
X24997760Y-20076707D01*
X25032329Y-20101025D01*
X25034581Y-20102206D01*
X25063359Y-20112566D01*
X25098508Y-20118549D01*
X25135919Y-20119977D01*
X25171485Y-20116673D01*
X25199041Y-20109303D01*
X25226242Y-20094288D01*
X25253138Y-20072272D01*
X25275721Y-20046895D01*
X25286327Y-20030053D01*
X25300659Y-19996606D01*
X25310161Y-19960581D01*
X25315395Y-19919132D01*
X25316921Y-19875000D01*
X25316556Y-19841299D01*
X25314919Y-19815324D01*
X25311611Y-19793546D01*
X25306233Y-19772436D01*
X25304779Y-19767679D01*
X25286032Y-19720943D01*
X25261865Y-19684000D01*
X25231832Y-19656513D01*
X25195485Y-19638141D01*
X25152380Y-19628545D01*
X25119756Y-19626855D01*
X25080712Y-19629171D01*
G36*
X23080881Y-19620086D02*
G01*
X23036566Y-19629125D01*
X22999057Y-19646992D01*
X22968878Y-19673138D01*
X22946555Y-19707009D01*
X22932613Y-19748056D01*
X22928142Y-19780456D01*
X22925404Y-19821378D01*
X23276845Y-19821378D01*
X23276845Y-19805039D01*
X23273948Y-19782635D01*
X23266246Y-19754980D01*
X23255216Y-19726204D01*
X23242339Y-19700433D01*
X23235526Y-19689761D01*
X23206098Y-19657004D01*
X23171628Y-19634340D01*
X23132249Y-19621829D01*
X23088094Y-19619530D01*
X23080881Y-19620086D01*
G37*
X23080881Y-19620086D02*
X23036566Y-19629125D01*
X22999057Y-19646992D01*
X22968878Y-19673138D01*
X22946555Y-19707009D01*
X22932613Y-19748056D01*
X22928142Y-19780456D01*
X22925404Y-19821378D01*
X23276845Y-19821378D01*
X23276845Y-19805039D01*
X23273948Y-19782635D01*
X23266246Y-19754980D01*
X23255216Y-19726204D01*
X23242339Y-19700433D01*
X23235526Y-19689761D01*
X23206098Y-19657004D01*
X23171628Y-19634340D01*
X23132249Y-19621829D01*
X23088094Y-19619530D01*
X23080881Y-19620086D01*
G36*
X25574133Y-17363222D02*
G01*
X25576956Y-17366045D01*
X25579778Y-17363222D01*
X25576956Y-17360400D01*
X25574133Y-17363222D01*
G37*
X25574133Y-17363222D02*
X25576956Y-17366045D01*
X25579778Y-17363222D01*
X25576956Y-17360400D01*
X25574133Y-17363222D01*
G36*
X25117048Y-16646141D02*
G01*
X25097961Y-16648991D01*
X25080469Y-16650841D01*
X25065431Y-16655668D01*
X25052237Y-16669197D01*
X25050488Y-16671718D01*
X25039891Y-16686676D01*
X25030375Y-16698897D01*
X25028709Y-16700813D01*
X25023551Y-16709622D01*
X25023700Y-16721510D01*
X25026163Y-16731918D01*
X25030513Y-16749980D01*
X25033393Y-16765916D01*
X25033606Y-16767708D01*
X25039171Y-16780300D01*
X25054065Y-16791562D01*
X25057251Y-16793271D01*
X25071317Y-16801760D01*
X25080363Y-16809470D01*
X25081710Y-16811641D01*
X25088565Y-16816724D01*
X25101402Y-16818259D01*
X25115442Y-16816099D01*
X25122578Y-16812889D01*
X25134528Y-16808681D01*
X25146452Y-16807331D01*
X25157875Y-16804906D01*
X25166881Y-16796018D01*
X25173224Y-16784970D01*
X25181939Y-16770225D01*
X25190174Y-16759950D01*
X25192447Y-16758158D01*
X25196537Y-16753676D01*
X25197580Y-16744930D01*
X25195678Y-16729195D01*
X25193898Y-16719162D01*
X25186632Y-16690744D01*
X25177446Y-16673018D01*
X25166463Y-16666207D01*
X25165095Y-16666134D01*
X25156516Y-16662285D01*
X25147556Y-16654378D01*
X25137140Y-16646396D01*
X25123779Y-16645172D01*
X25117048Y-16646141D01*
G37*
X25117048Y-16646141D02*
X25097961Y-16648991D01*
X25080469Y-16650841D01*
X25065431Y-16655668D01*
X25052237Y-16669197D01*
X25050488Y-16671718D01*
X25039891Y-16686676D01*
X25030375Y-16698897D01*
X25028709Y-16700813D01*
X25023551Y-16709622D01*
X25023700Y-16721510D01*
X25026163Y-16731918D01*
X25030513Y-16749980D01*
X25033393Y-16765916D01*
X25033606Y-16767708D01*
X25039171Y-16780300D01*
X25054065Y-16791562D01*
X25057251Y-16793271D01*
X25071317Y-16801760D01*
X25080363Y-16809470D01*
X25081710Y-16811641D01*
X25088565Y-16816724D01*
X25101402Y-16818259D01*
X25115442Y-16816099D01*
X25122578Y-16812889D01*
X25134528Y-16808681D01*
X25146452Y-16807331D01*
X25157875Y-16804906D01*
X25166881Y-16796018D01*
X25173224Y-16784970D01*
X25181939Y-16770225D01*
X25190174Y-16759950D01*
X25192447Y-16758158D01*
X25196537Y-16753676D01*
X25197580Y-16744930D01*
X25195678Y-16729195D01*
X25193898Y-16719162D01*
X25186632Y-16690744D01*
X25177446Y-16673018D01*
X25166463Y-16666207D01*
X25165095Y-16666134D01*
X25156516Y-16662285D01*
X25147556Y-16654378D01*
X25137140Y-16646396D01*
X25123779Y-16645172D01*
X25117048Y-16646141D01*
G36*
X25703956Y-16262556D02*
G01*
X25706778Y-16265378D01*
X25709600Y-16262556D01*
X25706778Y-16259734D01*
X25703956Y-16262556D01*
G37*
X25703956Y-16262556D02*
X25706778Y-16265378D01*
X25709600Y-16262556D01*
X25706778Y-16259734D01*
X25703956Y-16262556D01*
D11*
X27920000Y-22630000D03*
X27920000Y-25170000D03*
X27920000Y-27710000D03*
X27920000Y-30250000D03*
X27920000Y-32790000D03*
X27920000Y-35330000D03*
X27920000Y-37870000D03*
X27920000Y-40410000D03*
X27920000Y-42950000D03*
X27920000Y-45490000D03*
X27920000Y-48030000D03*
X27920000Y-50570000D03*
X27920000Y-53110000D03*
X27920000Y-55650000D03*
X27920000Y-58190000D03*
X27920000Y-60730000D03*
X27920000Y-63270000D03*
X27920000Y-65810000D03*
X27920000Y-68350000D03*
X27920000Y-70890000D03*
X27920000Y-73430000D03*
X27920000Y-75970000D03*
X27920000Y-78510000D03*
X27920000Y-81050000D03*
X27920000Y-83590000D03*
X27920000Y-86130000D03*
X27920000Y-88670000D03*
X27920000Y-91210000D03*
X27920000Y-93750000D03*
X27920000Y-96290000D03*
X27920000Y-98830000D03*
X27920000Y-101370000D03*
X30460000Y-22630000D03*
X30460000Y-25170000D03*
X30460000Y-27710000D03*
X30460000Y-30250000D03*
X30460000Y-32790000D03*
X30460000Y-35330000D03*
X30460000Y-37870000D03*
X30460000Y-40410000D03*
X30460000Y-42950000D03*
X30460000Y-45490000D03*
X30460000Y-48030000D03*
X30460000Y-50570000D03*
X30460000Y-53110000D03*
X30460000Y-55650000D03*
X30460000Y-58190000D03*
X30460000Y-60730000D03*
X30460000Y-63270000D03*
X30460000Y-65810000D03*
X30460000Y-68350000D03*
X30460000Y-70890000D03*
X30460000Y-73430000D03*
X30460000Y-75970000D03*
X30460000Y-78510000D03*
X30460000Y-81050000D03*
X30460000Y-83590000D03*
X30460000Y-86130000D03*
X30460000Y-88670000D03*
X30460000Y-91210000D03*
X30460000Y-93750000D03*
X30460000Y-96290000D03*
X30460000Y-98830000D03*
X30460000Y-101370000D03*
X33000000Y-22630000D03*
X33000000Y-25170000D03*
X33000000Y-27710000D03*
X33000000Y-30250000D03*
X33000000Y-32790000D03*
X33000000Y-35330000D03*
X33000000Y-37870000D03*
X33000000Y-40410000D03*
X33000000Y-42950000D03*
X33000000Y-45490000D03*
X33000000Y-48030000D03*
X33000000Y-50570000D03*
X33000000Y-53110000D03*
X33000000Y-55650000D03*
X33000000Y-58190000D03*
X33000000Y-60730000D03*
X33000000Y-63270000D03*
X33000000Y-65810000D03*
X33000000Y-68350000D03*
X33000000Y-70890000D03*
X33000000Y-73430000D03*
X33000000Y-75970000D03*
X33000000Y-78510000D03*
X33000000Y-81050000D03*
X33000000Y-83590000D03*
X33000000Y-86130000D03*
X33000000Y-88670000D03*
X33000000Y-91210000D03*
X33000000Y-93750000D03*
X33000000Y-96290000D03*
X33000000Y-98830000D03*
G36*
G01*
X32225000Y-101895450D02*
X32225000Y-100844550D01*
G75*
G02*
X32474550Y-100595000I249550J0D01*
G01*
X33525450Y-100595000D01*
G75*
G02*
X33775000Y-100844550I0J-249550D01*
G01*
X33775000Y-101895450D01*
G75*
G02*
X33525450Y-102145000I-249550J0D01*
G01*
X32474550Y-102145000D01*
G75*
G02*
X32225000Y-101895450I0J249550D01*
G01*
G37*
D12*
X35540000Y-17550000D03*
X35540000Y-106450000D03*
D11*
X22375000Y-22630000D03*
X22375000Y-25170000D03*
X22375000Y-27710000D03*
X22375000Y-30250000D03*
X22375000Y-32790000D03*
X22375000Y-35330000D03*
X22375000Y-37870000D03*
X22375000Y-40410000D03*
X22375000Y-42950000D03*
X22375000Y-45490000D03*
X22375000Y-48030000D03*
X22375000Y-50570000D03*
X22375000Y-53110000D03*
X22375000Y-55650000D03*
X22375000Y-58190000D03*
X22375000Y-60730000D03*
X22375000Y-63270000D03*
X22375000Y-65810000D03*
X22375000Y-68350000D03*
X22375000Y-70890000D03*
X22375000Y-73430000D03*
X22375000Y-75970000D03*
X22375000Y-78510000D03*
X22375000Y-81050000D03*
X22375000Y-83590000D03*
X22375000Y-86130000D03*
X22375000Y-88670000D03*
X22375000Y-91210000D03*
X22375000Y-93750000D03*
X22375000Y-96290000D03*
X22375000Y-98830000D03*
X22375000Y-101370000D03*
X19835000Y-22630000D03*
X19835000Y-25170000D03*
X19835000Y-27710000D03*
X19835000Y-30250000D03*
X19835000Y-32790000D03*
X19835000Y-35330000D03*
X19835000Y-37870000D03*
X19835000Y-40410000D03*
X19835000Y-42950000D03*
X19835000Y-45490000D03*
X19835000Y-48030000D03*
X19835000Y-50570000D03*
X19835000Y-53110000D03*
X19835000Y-55650000D03*
X19835000Y-58190000D03*
X19835000Y-60730000D03*
X19835000Y-63270000D03*
X19835000Y-65810000D03*
X19835000Y-68350000D03*
X19835000Y-70890000D03*
X19835000Y-73430000D03*
X19835000Y-75970000D03*
X19835000Y-78510000D03*
X19835000Y-81050000D03*
X19835000Y-83590000D03*
X19835000Y-86130000D03*
X19835000Y-88670000D03*
X19835000Y-91210000D03*
X19835000Y-93750000D03*
X19835000Y-96290000D03*
X19835000Y-98830000D03*
X19835000Y-101370000D03*
X17295000Y-22630000D03*
X17295000Y-25170000D03*
X17295000Y-27710000D03*
X17295000Y-30250000D03*
X17295000Y-32790000D03*
X17295000Y-35330000D03*
X17295000Y-37870000D03*
X17295000Y-40410000D03*
X17295000Y-42950000D03*
X17295000Y-45490000D03*
X17295000Y-48030000D03*
X17295000Y-50570000D03*
X17295000Y-53110000D03*
X17295000Y-55650000D03*
X17295000Y-58190000D03*
X17295000Y-60730000D03*
X17295000Y-63270000D03*
X17295000Y-65810000D03*
X17295000Y-68350000D03*
X17295000Y-70890000D03*
X17295000Y-73430000D03*
X17295000Y-75970000D03*
X17295000Y-78510000D03*
X17295000Y-81050000D03*
X17295000Y-83590000D03*
X17295000Y-86130000D03*
X17295000Y-88670000D03*
X17295000Y-91210000D03*
X17295000Y-93750000D03*
X17295000Y-96290000D03*
X17295000Y-98830000D03*
G36*
G01*
X18070000Y-100844550D02*
X18070000Y-101895450D01*
G75*
G02*
X17820450Y-102145000I-249550J0D01*
G01*
X16769550Y-102145000D01*
G75*
G02*
X16520000Y-101895450I0J249550D01*
G01*
X16520000Y-100844550D01*
G75*
G02*
X16769550Y-100595000I249550J0D01*
G01*
X17820450Y-100595000D01*
G75*
G02*
X18070000Y-100844550I0J-249550D01*
G01*
G37*
D12*
X14755000Y-17550000D03*
X14755000Y-106450000D03*
M02*
